<svg width="71" height="19" viewBox="0 0 71 19" fill="none" xmlns="http://www.w3.org/2000/svg">
<path d="M7.41619 18.264C6.28019 18.264 5.25619 18.088 4.34419 17.736C3.43219 17.368 2.65619 16.832 2.01619 16.128C1.37619 15.408 0.880194 14.52 0.528194 13.464C0.176194 12.392 0.000193805 11.144 0.000193805 9.72C0.000193805 8.312 0.176194 7.064 0.528194 5.976C0.880194 4.872 1.37619 3.952 2.01619 3.216C2.65619 2.464 3.43219 1.896 4.34419 1.512C5.25619 1.128 6.28019 0.936001 7.41619 0.936001C8.96819 0.936001 10.2482 1.256 11.2562 1.896C12.2642 2.52 13.0722 3.512 13.6802 4.872L10.5362 6.504C10.3122 5.8 9.96019 5.24 9.48019 4.824C9.01619 4.392 8.32819 4.176 7.41619 4.176C6.34419 4.176 5.48019 4.528 4.82419 5.232C4.18419 5.92 3.86419 6.928 3.86419 8.256V10.944C3.86419 12.272 4.18419 13.288 4.82419 13.992C5.48019 14.68 6.34419 15.024 7.41619 15.024C8.31219 15.024 9.02419 14.784 9.55219 14.304C10.0962 13.808 10.4962 13.216 10.7522 12.528L13.7282 14.256C13.1042 15.536 12.2802 16.528 11.2562 17.232C10.2482 17.92 8.96819 18.264 7.41619 18.264ZM19.017 17.976C17.801 17.976 16.905 17.68 16.329 17.088C15.769 16.496 15.489 15.64 15.489 14.52V0.216002H19.041V15.216H20.625V17.976H19.017ZM31.4666 17.976C30.8266 17.976 30.2906 17.776 29.8586 17.376C29.4426 16.976 29.1786 16.44 29.0666 15.768H28.9226C28.7306 16.584 28.3066 17.208 27.6506 17.64C26.9946 18.056 26.1866 18.264 25.2266 18.264C23.9626 18.264 22.9946 17.928 22.3226 17.256C21.6506 16.584 21.3146 15.696 21.3146 14.592C21.3146 13.264 21.7946 12.28 22.7546 11.64C23.7306 10.984 25.0506 10.656 26.7146 10.656H28.7066V9.864C28.7066 9.256 28.5466 8.776 28.2266 8.424C27.9066 8.056 27.3706 7.872 26.6186 7.872C25.9146 7.872 25.3546 8.024 24.9386 8.328C24.5226 8.632 24.1786 8.976 23.9066 9.36L21.7946 7.488C22.3066 6.736 22.9466 6.152 23.7146 5.736C24.4986 5.304 25.5546 5.088 26.8826 5.088C28.6746 5.088 30.0186 5.48 30.9146 6.264C31.8106 7.048 32.2586 8.192 32.2586 9.696V15.216H33.4346V17.976H31.4666ZM26.5466 15.792C27.1386 15.792 27.6426 15.664 28.0586 15.408C28.4906 15.152 28.7066 14.736 28.7066 14.16V12.672H26.9786C25.5866 12.672 24.8906 13.144 24.8906 14.088V14.448C24.8906 14.912 25.0346 15.256 25.3226 15.48C25.6106 15.688 26.0186 15.792 26.5466 15.792ZM39.4907 18.264C38.2747 18.264 37.2507 18.072 36.4187 17.688C35.5867 17.288 34.8427 16.728 34.1867 16.008L36.2747 13.896C36.7227 14.392 37.2187 14.784 37.7627 15.072C38.3067 15.36 38.9227 15.504 39.6107 15.504C40.3147 15.504 40.8027 15.4 41.0747 15.192C41.3467 14.968 41.4827 14.672 41.4827 14.304C41.4827 13.712 41.0587 13.36 40.2107 13.248L38.8427 13.08C36.0107 12.728 34.5947 11.432 34.5947 9.192C34.5947 8.584 34.7067 8.032 34.9307 7.536C35.1707 7.024 35.4987 6.592 35.9147 6.24C36.3467 5.872 36.8587 5.592 37.4507 5.4C38.0587 5.192 38.7387 5.088 39.4907 5.088C40.1467 5.088 40.7227 5.136 41.2187 5.232C41.7307 5.312 42.1787 5.44 42.5627 5.616C42.9627 5.776 43.3227 5.984 43.6427 6.24C43.9787 6.48 44.3067 6.752 44.6267 7.056L42.5867 9.144C42.1867 8.744 41.7307 8.432 41.2187 8.208C40.7227 7.968 40.2107 7.848 39.6827 7.848C39.0747 7.848 38.6427 7.944 38.3867 8.136C38.1307 8.328 38.0027 8.584 38.0027 8.904C38.0027 9.24 38.0907 9.504 38.2667 9.696C38.4587 9.872 38.8107 10 39.3227 10.08L40.7387 10.272C43.5067 10.64 44.8907 11.904 44.8907 14.064C44.8907 14.672 44.7627 15.232 44.5067 15.744C44.2507 16.256 43.8827 16.704 43.4027 17.088C42.9387 17.456 42.3707 17.744 41.6987 17.952C41.0427 18.16 40.3067 18.264 39.4907 18.264ZM50.8204 18.264C49.6044 18.264 48.5804 18.072 47.7484 17.688C46.9164 17.288 46.1724 16.728 45.5164 16.008L47.6044 13.896C48.0524 14.392 48.5484 14.784 49.0924 15.072C49.6364 15.36 50.2524 15.504 50.9404 15.504C51.6444 15.504 52.1324 15.4 52.4044 15.192C52.6764 14.968 52.8124 14.672 52.8124 14.304C52.8124 13.712 52.3884 13.36 51.5404 13.248L50.1724 13.08C47.3404 12.728 45.9244 11.432 45.9244 9.192C45.9244 8.584 46.0364 8.032 46.2604 7.536C46.5004 7.024 46.8284 6.592 47.2444 6.24C47.6764 5.872 48.1884 5.592 48.7804 5.4C49.3884 5.192 50.0684 5.088 50.8204 5.088C51.4764 5.088 52.0524 5.136 52.5484 5.232C53.0604 5.312 53.5084 5.44 53.8924 5.616C54.2924 5.776 54.6524 5.984 54.9724 6.24C55.3084 6.48 55.6364 6.752 55.9564 7.056L53.9164 9.144C53.5164 8.744 53.0604 8.432 52.5484 8.208C52.0524 7.968 51.5404 7.848 51.0124 7.848C50.4044 7.848 49.9724 7.944 49.7164 8.136C49.4604 8.328 49.3324 8.584 49.3324 8.904C49.3324 9.24 49.4204 9.504 49.5964 9.696C49.7884 9.872 50.1404 10 50.6524 10.08L52.0684 10.272C54.8364 10.64 56.2204 11.904 56.2204 14.064C56.2204 14.672 56.0924 15.232 55.8364 15.744C55.5804 16.256 55.2124 16.704 54.7324 17.088C54.2684 17.456 53.7004 17.744 53.0284 17.952C52.3724 18.16 51.6364 18.264 50.8204 18.264Z" fill="#565656"/>
<path d="M62.2706 17.976C61.0386 17.976 60.1026 17.664 59.4626 17.04C58.8386 16.416 58.5266 15.504 58.5266 14.304V8.136H56.7506V5.376H57.6386C58.1186 5.376 58.4466 5.264 58.6226 5.04C58.7986 4.8 58.8866 4.464 58.8866 4.032V1.968H62.0786V5.376H64.5746V8.136H62.0786V15.216H64.3826V17.976H62.2706ZM68.2181 4.032C67.4981 4.032 66.9701 3.872 66.6341 3.552C66.3141 3.216 66.1541 2.792 66.1541 2.28V1.752C66.1541 1.24 66.3141 0.824001 66.6341 0.504001C66.9701 0.168001 67.4981 1.43051e-06 68.2181 1.43051e-06C68.9381 1.43051e-06 69.4581 0.168001 69.7781 0.504001C70.1141 0.824001 70.2821 1.24 70.2821 1.752V2.28C70.2821 2.792 70.1141 3.216 69.7781 3.552C69.4581 3.872 68.9381 4.032 68.2181 4.032ZM66.4421 5.376H69.9941V17.976H66.4421V5.376Z" fill="#009957"/>
</svg>
