<svg width="119" height="39" viewBox="0 0 119 39" fill="none" xmlns="http://www.w3.org/2000/svg">
<path d="M109.524 0.00012675H9.48177C9.1171 0.00012675 8.75681 0.00012675 8.39311 0.00207675C8.08866 0.00402675 7.78664 0.0096915 7.47926 0.0144592C6.8115 0.0221635 6.14531 0.0797611 5.48648 0.186751C4.82858 0.296071 4.19128 0.50217 3.59615 0.798076C3.00175 1.09649 2.45862 1.48424 1.98648 1.94727C1.51187 2.409 1.11623 2.94269 0.814803 3.52783C0.51254 4.11181 0.30295 4.73759 0.193271 5.38357C0.0825503 6.02873 0.0229702 6.68133 0.0150659 7.33552C0.00583743 7.63445 0.00486286 7.93438 0 8.23336V30.7698C0.00486286 31.0725 0.00583743 31.3658 0.0150659 31.6686C0.0229726 32.3228 0.0825527 32.9753 0.193271 33.6205C0.302647 34.2668 0.51225 34.893 0.814803 35.4772C1.1161 36.0604 1.51178 36.5919 1.98648 37.0511C2.45683 37.5162 3.00031 37.9042 3.59615 38.2003C4.19128 38.497 4.82851 38.7044 5.48648 38.8154C6.14543 38.9215 6.81155 38.9791 7.47926 38.9877C7.78664 38.9944 8.08866 38.9982 8.39311 38.9982C8.7568 39.0001 9.11712 39.0001 9.48177 39.0001H109.524C109.881 39.0001 110.244 39.0001 110.602 38.9982C110.905 38.9982 111.215 38.9944 111.518 38.9877C112.185 38.9796 112.85 38.922 113.507 38.8154C114.167 38.7036 114.807 38.4963 115.405 38.2003C116 37.904 116.543 37.516 117.013 37.0511C117.487 36.5901 117.883 36.059 118.188 35.4772C118.488 34.8925 118.696 34.2664 118.804 33.6205C118.915 32.9752 118.976 32.3228 118.988 31.6686C118.992 31.3658 118.992 31.0725 118.992 30.7698C119 30.4155 119 30.0633 119 29.7033V9.29785C119 8.9408 119 8.5866 118.992 8.23336C118.992 7.93438 118.992 7.63445 118.988 7.33548C118.976 6.68124 118.915 6.02878 118.804 5.38353C118.696 4.73793 118.488 4.11219 118.188 3.52779C117.574 2.35494 116.601 1.40025 115.405 0.797989C114.807 0.502805 114.167 0.296761 113.507 0.186664C112.85 0.079202 112.185 0.0215843 111.518 0.0143227C111.215 0.00956475 110.905 0.00385125 110.602 0.00195C110.244 0 109.881 0 109.524 0V0.00012675Z" fill="white"/>
<path d="M8.39796 38.1473C8.09498 38.1473 7.79931 38.1435 7.49869 38.1368C6.87595 38.1289 6.25466 38.0757 5.63993 37.9778C5.06671 37.881 4.51143 37.701 3.99238 37.4436C3.47809 37.1884 3.00902 36.8537 2.60313 36.4524C2.19137 36.0559 1.84856 35.5959 1.58829 35.0908C1.32514 34.5825 1.14303 34.0375 1.0483 33.4751C0.945994 32.8707 0.890643 32.2595 0.882723 31.6469C0.876418 31.4413 0.868164 30.7567 0.868164 30.7567V8.23362C0.868164 8.23362 0.876955 7.5595 0.882773 7.36145C0.890356 6.74981 0.945385 6.13963 1.04738 5.53618C1.14229 4.97216 1.32454 4.42567 1.58783 3.91563C1.84715 3.41089 2.18805 2.9506 2.59733 2.55263C3.00616 2.15087 3.47673 1.81448 3.99189 1.55572C4.50975 1.29918 5.06399 1.1204 5.63604 1.02538C6.25279 0.926481 6.87624 0.873012 7.50114 0.86542L8.39845 0.853516H110.597L111.505 0.865898C112.124 0.873112 112.742 0.926104 113.353 1.02442C113.931 1.12064 114.491 1.30067 115.014 1.55858C116.047 2.08005 116.886 2.90507 117.416 3.91801C117.675 4.42453 117.855 4.96656 117.948 5.52571C118.051 6.13411 118.109 6.74909 118.121 7.36574C118.124 7.64186 118.124 7.93845 118.124 8.23362C118.132 8.59925 118.132 8.94725 118.132 9.29812V29.7036C118.132 30.0578 118.132 30.4034 118.124 30.7519C118.124 31.069 118.124 31.3594 118.12 31.6583C118.109 32.264 118.052 32.868 117.95 33.4655C117.857 34.032 117.676 34.5812 117.413 35.0938C117.151 35.5934 116.81 36.0493 116.403 36.4448C115.997 36.8483 115.527 37.1849 115.012 37.4418C114.489 37.7011 113.93 37.8818 113.353 37.9778C112.738 38.0762 112.117 38.1294 111.494 38.1368C111.203 38.1435 110.898 38.1473 110.602 38.1473L109.524 38.1492L8.39796 38.1473Z" fill="white"/>
<path d="M24.8579 19.3922C24.869 18.5459 25.0983 17.7162 25.5244 16.9801C25.9505 16.2441 26.5595 15.6257 27.2949 15.1824C26.8278 14.5283 26.2115 13.99 25.495 13.6102C24.7785 13.2305 23.9816 13.0197 23.1676 12.9947C21.431 12.816 19.7475 14.0135 18.8626 14.0135C17.9605 14.0135 16.5981 13.0125 15.1309 13.0421C14.1819 13.0721 13.2571 13.3427 12.4464 13.8274C11.6358 14.3121 10.9671 14.9944 10.5054 15.8079C8.50542 19.2028 9.99721 24.1923 11.913 26.9365C12.8716 28.2803 13.9918 29.7813 15.4576 29.7281C16.892 29.6698 17.4277 28.8313 19.1592 28.8313C20.8745 28.8313 21.3771 29.7281 22.8727 29.6942C24.4119 29.6698 25.3816 28.3445 26.3066 26.988C26.9953 26.0305 27.5252 24.9723 27.8768 23.8525C26.9826 23.4817 26.2195 22.861 25.6826 22.0678C25.1458 21.2747 24.859 20.3441 24.8579 19.3922Z" fill="#0E1F1F"/>
<path d="M22.0331 11.19C22.8723 10.2023 23.2858 8.93269 23.1857 7.65088C21.9035 7.78291 20.7192 8.3837 19.8686 9.33355C19.4528 9.79758 19.1343 10.3374 18.9313 10.9222C18.7284 11.507 18.645 12.1253 18.6859 12.7417C19.3272 12.7481 19.9616 12.6119 20.5414 12.3431C21.1212 12.0743 21.6313 11.6801 22.0331 11.19V11.19Z" fill="#0E1F1F"/>
<path d="M42.0671 26.461H37.36L36.2296 29.7335H34.2358L38.6944 17.626H40.7658L45.2243 29.7335H43.1966L42.0671 26.461ZM37.8475 24.9509H41.5787L39.7393 19.6398H39.6878L37.8475 24.9509Z" fill="#0E1F1F"/>
<path d="M54.8531 25.3207C54.8531 28.0638 53.3556 29.8262 51.0957 29.8262C50.5233 29.8556 49.954 29.7263 49.453 29.4532C48.952 29.18 48.5395 28.7741 48.2629 28.2818H48.2202V32.6541H46.3721V20.9065H48.1609V22.3747H48.1949C48.4842 21.8848 48.9036 21.481 49.4084 21.2062C49.9133 20.9314 50.4846 20.7959 51.0617 20.8141C53.3468 20.8141 54.8531 22.5851 54.8531 25.3207ZM52.9535 25.3207C52.9535 23.5335 52.0115 22.3585 50.5742 22.3585C49.1622 22.3585 48.2124 23.5582 48.2124 25.3207C48.2124 27.0993 49.1622 28.2904 50.5742 28.2904C52.0115 28.2904 52.9535 27.124 52.9535 25.3207H52.9535Z" fill="#0E1F1F"/>
<path d="M64.7632 25.3207C64.7632 28.0638 63.2653 29.8262 61.0054 29.8262C60.4329 29.8556 59.8636 29.7263 59.3626 29.4532C58.8616 29.18 58.4492 28.7741 58.1726 28.2818H58.1298V32.6541H56.2817V20.9065H58.0706V22.3747H58.1046C58.3939 21.8848 58.8133 21.481 59.3181 21.2062C59.8229 20.9314 60.3943 20.7959 60.9714 20.8141C63.2565 20.8141 64.7632 22.5851 64.7632 25.3207ZM62.8632 25.3207C62.8632 23.5335 61.9212 22.3585 60.4839 22.3585C59.0719 22.3585 58.1221 23.5582 58.1221 25.3207C58.1221 27.0993 59.0719 28.2904 60.4839 28.2904C61.9212 28.2904 62.8632 27.124 62.8632 25.3207V25.3207Z" fill="#0E1F1F"/>
<path d="M71.3118 26.3603C71.4487 27.5609 72.6384 28.3493 74.264 28.3493C75.8217 28.3493 76.9424 27.5609 76.9424 26.4783C76.9424 25.5385 76.2665 24.9758 74.6661 24.5902L73.0656 24.2122C70.798 23.6752 69.7453 22.6354 69.7453 20.9482C69.7453 18.8592 71.6021 17.4243 74.2378 17.4243C76.8482 17.4243 78.6371 18.8592 78.6973 20.9482H76.8317C76.72 19.7399 75.7013 19.0106 74.2126 19.0106C72.7238 19.0106 71.7051 19.7485 71.7051 20.8225C71.7051 21.6785 72.3557 22.1822 73.9474 22.5678L75.308 22.8953C77.8417 23.4828 78.8935 24.4807 78.8935 26.2517C78.8935 28.5168 77.0541 29.9355 74.1271 29.9355C71.3884 29.9355 69.5394 28.5501 69.4199 26.3602L71.3118 26.3603Z" fill="#0E1F1F"/>
<path d="M82.8837 18.8174V20.9064H84.5958V22.3413H82.8837V27.2077C82.8837 27.9637 83.2265 28.316 83.9791 28.316C84.1824 28.3125 84.3853 28.2985 84.5871 28.2741V29.7004C84.2487 29.7624 83.9048 29.7905 83.5606 29.7842C81.7378 29.7842 81.0269 29.1129 81.0269 27.401V22.3413H79.7178V20.9064H81.0268V18.8174H82.8837Z" fill="#0E1F1F"/>
<path d="M85.5864 25.3206C85.5864 22.5431 87.2548 20.7979 89.8565 20.7979C92.467 20.7979 94.1276 22.5431 94.1276 25.3206C94.1276 28.1056 92.4757 29.8433 89.8565 29.8433C87.2383 29.8433 85.5864 28.1056 85.5864 25.3206ZM92.2446 25.3206C92.2446 23.4153 91.354 22.2908 89.8565 22.2908C88.359 22.2908 87.4685 23.4239 87.4685 25.3206C87.4685 27.2334 88.359 28.3493 89.8565 28.3493C91.354 28.3493 92.2446 27.2334 92.2446 25.3206H92.2446Z" fill="#0E1F1F"/>
<path d="M95.6514 20.9064H97.414V22.4089H97.4568C97.576 21.9396 97.8564 21.5249 98.2508 21.2345C98.6452 20.9441 99.1295 20.7956 99.6224 20.814C99.8354 20.8133 100.048 20.836 100.256 20.8816V22.5765C99.9867 22.4959 99.7063 22.4589 99.4252 22.467C99.1568 22.4563 98.8891 22.5027 98.6406 22.603C98.3922 22.7033 98.1688 22.8552 97.9859 23.0481C97.8029 23.2411 97.6647 23.4705 97.5807 23.7208C97.4968 23.971 97.4691 24.2361 97.4995 24.4979V29.7338H95.6514L95.6514 20.9064Z" fill="#0E1F1F"/>
<path d="M108.776 27.1411C108.528 28.7435 106.936 29.8433 104.9 29.8433C102.28 29.8433 100.655 28.1227 100.655 25.3624C100.655 22.5936 102.289 20.7979 104.822 20.7979C107.313 20.7979 108.879 22.4755 108.879 25.152V25.7728H102.52V25.8823C102.491 26.2072 102.532 26.5345 102.642 26.8424C102.752 27.1504 102.927 27.4319 103.156 27.6684C103.385 27.9049 103.663 28.0909 103.971 28.214C104.279 28.3372 104.61 28.3947 104.942 28.3827C105.379 28.4228 105.817 28.3236 106.192 28.0999C106.567 27.8762 106.858 27.5399 107.022 27.1411L108.776 27.1411ZM102.529 24.5065H107.03C107.047 24.2144 107.002 23.922 106.898 23.6479C106.794 23.3737 106.633 23.1236 106.425 22.9132C106.218 22.7028 105.969 22.5367 105.693 22.4254C105.417 22.314 105.12 22.2598 104.822 22.2661C104.521 22.2643 104.223 22.321 103.944 22.4329C103.666 22.5447 103.413 22.7096 103.199 22.9179C102.986 23.1262 102.817 23.3738 102.702 23.6464C102.587 23.9191 102.528 24.2114 102.529 24.5065V24.5065Z" fill="#0E1F1F"/>
<path d="M37.6165 8.51295C38.0039 8.48569 38.3927 8.54308 38.7548 8.68097C39.1169 8.81887 39.4432 9.03384 39.7103 9.31037C39.9774 9.58691 40.1786 9.91812 40.2993 10.2801C40.4201 10.6421 40.4573 11.0258 40.4085 11.4037C40.4085 13.2623 39.3839 14.3306 37.6165 14.3306H35.4731V8.51295H37.6165ZM36.3948 13.5079H37.5135C37.7904 13.5241 38.0674 13.4796 38.3245 13.3776C38.5816 13.2756 38.8123 13.1187 38.9998 12.9182C39.1872 12.7178 39.3267 12.4789 39.4081 12.219C39.4895 11.959 39.5108 11.6845 39.4704 11.4155C39.5079 11.1476 39.4844 10.8748 39.4018 10.6167C39.3191 10.3587 39.1793 10.1218 38.9923 9.92293C38.8052 9.7241 38.5757 9.56828 38.32 9.46665C38.0644 9.36502 37.789 9.32009 37.5135 9.33508H36.3948V13.5079Z" fill="#0E1F1F"/>
<path d="M41.4494 12.1334C41.4213 11.8449 41.455 11.5538 41.5483 11.2788C41.6416 11.0038 41.7925 10.7509 41.9913 10.5364C42.1902 10.322 42.4325 10.1506 42.7029 10.0333C42.9732 9.91605 43.2656 9.85547 43.5612 9.85547C43.8568 9.85547 44.1492 9.91605 44.4195 10.0333C44.6899 10.1506 44.9322 10.322 45.131 10.5364C45.3299 10.7509 45.4808 11.0038 45.5741 11.2788C45.6674 11.5538 45.7011 11.8449 45.6729 12.1334C45.7016 12.4223 45.6684 12.7138 45.5753 12.9892C45.4822 13.2647 45.3314 13.518 45.1325 13.7329C44.9336 13.9478 44.6911 14.1195 44.4205 14.2371C44.1499 14.3546 43.8572 14.4153 43.5612 14.4153C43.2652 14.4153 42.9725 14.3546 42.7019 14.2371C42.4313 14.1195 42.1888 13.9478 41.9899 13.7329C41.791 13.518 41.6402 13.2647 41.5471 12.9892C41.454 12.7138 41.4208 12.4223 41.4494 12.1334V12.1334ZM44.7639 12.1334C44.7639 11.1818 44.3279 10.6252 43.5626 10.6252C42.7945 10.6252 42.3623 11.1818 42.3623 12.1334C42.3623 13.0927 42.7945 13.645 43.5626 13.645C44.3279 13.645 44.764 13.0889 44.764 12.1334H44.7639Z" fill="#0E1F1F"/>
<path d="M51.2872 14.3303H50.3704L49.4449 11.0968H49.375L48.4534 14.3303H47.5454L46.311 9.93994H47.2074L48.0096 13.29H48.0756L48.9963 9.93994H49.8441L50.7647 13.29H50.8346L51.6329 9.93994H52.5166L51.2872 14.3303Z" fill="#0E1F1F"/>
<path d="M53.5547 9.94014H54.4054V10.6376H54.4715C54.5835 10.3871 54.7724 10.1771 55.012 10.0369C55.2515 9.89668 55.5297 9.83324 55.8077 9.8554C56.0256 9.83933 56.2444 9.87154 56.4479 9.94964C56.6513 10.0277 56.8343 10.1497 56.9831 10.3065C57.132 10.4634 57.2429 10.651 57.3078 10.8556C57.3726 11.0602 57.3897 11.2764 57.3577 11.4883V14.3305H56.4739V11.7059C56.4739 11.0004 56.1612 10.6495 55.5077 10.6495C55.3597 10.6427 55.2121 10.6674 55.0748 10.7219C54.9375 10.7763 54.8138 10.8592 54.7123 10.9649C54.6107 11.0705 54.5336 11.1965 54.4864 11.3341C54.4391 11.4717 54.4228 11.6177 54.4384 11.7621V14.3305H53.5547L53.5547 9.94014Z" fill="#0E1F1F"/>
<path d="M58.7661 8.22607H59.6499V14.3303H58.7661V8.22607Z" fill="#0E1F1F"/>
<path d="M60.8781 12.133C60.85 11.8445 60.8837 11.5534 60.977 11.2783C61.0704 11.0033 61.2213 10.7504 61.4202 10.536C61.619 10.3215 61.8614 10.1501 62.1318 10.0328C62.4021 9.91556 62.6945 9.85498 62.9901 9.85498C63.2858 9.85498 63.5781 9.91556 63.8485 10.0328C64.1189 10.1501 64.3612 10.3215 64.5601 10.536C64.7589 10.7504 64.9099 11.0033 65.0032 11.2783C65.0966 11.5534 65.1302 11.8445 65.1021 12.133C65.1308 12.4219 65.0975 12.7134 65.0044 12.9888C64.9113 13.2643 64.7604 13.5176 64.5615 13.7325C64.3626 13.9474 64.1201 14.1191 63.8494 14.2366C63.5788 14.3542 63.2861 14.4149 62.9901 14.4149C62.6941 14.4149 62.4014 14.3542 62.1308 14.2366C61.8602 14.1191 61.6176 13.9474 61.4187 13.7325C61.2198 13.5176 61.069 13.2643 60.9759 12.9888C60.8828 12.7134 60.8495 12.4219 60.8781 12.133V12.133ZM64.1926 12.133C64.1926 11.1814 63.7566 10.6248 62.9913 10.6248C62.2232 10.6248 61.791 11.1814 61.791 12.133C61.791 13.0923 62.2232 13.6446 62.9913 13.6446C63.7566 13.6446 64.1926 13.0885 64.1926 12.133H64.1926Z" fill="#0E1F1F"/>
<path d="M66.0327 13.0885C66.0327 12.2982 66.6329 11.8426 67.6982 11.7778L68.9112 11.7093V11.3303C68.9112 10.8666 68.5985 10.6048 67.9944 10.6048C67.5011 10.6048 67.1592 10.7824 67.0612 11.0928H66.2056C66.2959 10.3387 67.0194 9.85498 68.0352 9.85498C69.1579 9.85498 69.791 10.4029 69.791 11.3303V14.3301H68.9403V13.7131H68.8704C68.7285 13.9344 68.5292 14.1148 68.2929 14.2359C68.0566 14.357 67.7917 14.4145 67.5254 14.4024C67.3374 14.4216 67.1474 14.4019 66.9676 14.3447C66.7879 14.2875 66.6223 14.1939 66.4817 14.0701C66.3411 13.9463 66.2285 13.795 66.1511 13.6259C66.0738 13.4569 66.0335 13.2738 66.0327 13.0885V13.0885ZM68.9112 12.7133V12.3463L67.8177 12.4148C67.201 12.4553 66.9213 12.661 66.9213 13.048C66.9213 13.4431 67.2709 13.6731 67.7517 13.6731C67.8925 13.6871 68.0348 13.6731 68.1701 13.6321C68.3053 13.591 68.4308 13.5237 68.5389 13.4342C68.6471 13.3447 68.7358 13.2347 68.7998 13.1108C68.8637 12.987 68.9016 12.8518 68.9112 12.7133V12.7133Z" fill="#0E1F1F"/>
<path d="M70.9521 12.1332C70.9521 10.746 71.6795 9.86712 72.8109 9.86712C73.0908 9.85447 73.3685 9.92019 73.6117 10.0566C73.8549 10.193 74.0534 10.3944 74.1841 10.6374H74.2502V8.22607H75.1339V14.3303H74.2871V13.6367H74.2171C74.0763 13.878 73.8709 14.0769 73.623 14.2119C73.3751 14.3469 73.0943 14.4129 72.8109 14.4027C71.6718 14.4027 70.9521 13.5238 70.9521 12.1332ZM71.8651 12.1332C71.8651 13.0644 72.3128 13.6248 73.0615 13.6248C73.8064 13.6248 74.2667 13.0564 74.2667 12.137C74.2667 11.222 73.8015 10.6455 73.0615 10.6455C72.3176 10.6455 71.865 11.2096 71.865 12.1332H71.8651Z" fill="#0E1F1F"/>
<path d="M78.7903 12.1334C78.7621 11.8449 78.7958 11.5538 78.8891 11.2788C78.9824 11.0038 79.1333 10.7509 79.3322 10.5364C79.531 10.322 79.7733 10.1506 80.0437 10.0333C80.314 9.91605 80.6064 9.85547 80.902 9.85547C81.1976 9.85547 81.49 9.91605 81.7603 10.0333C82.0307 10.1506 82.273 10.322 82.4719 10.5364C82.6707 10.7509 82.8216 11.0038 82.9149 11.2788C83.0082 11.5538 83.0419 11.8449 83.0138 12.1334C83.0425 12.4223 83.0092 12.7138 82.9161 12.9892C82.823 13.2647 82.6722 13.518 82.4733 13.7329C82.2744 13.9478 82.0319 14.1195 81.7613 14.2371C81.4907 14.3546 81.198 14.4153 80.902 14.4153C80.606 14.4153 80.3133 14.3546 80.0427 14.2371C79.7721 14.1195 79.5296 13.9478 79.3307 13.7329C79.1318 13.518 78.981 13.2647 78.8879 12.9892C78.7948 12.7138 78.7616 12.4223 78.7903 12.1334V12.1334ZM82.1048 12.1334C82.1048 11.1818 81.6687 10.6252 80.9035 10.6252C80.1353 10.6252 79.7032 11.1818 79.7032 12.1334C79.7032 13.0927 80.1353 13.645 80.9035 13.645C81.6687 13.645 82.1048 13.0889 82.1048 12.1334Z" fill="#0E1F1F"/>
<path d="M84.1997 9.94014H85.0504V10.6376H85.1165C85.2285 10.3871 85.4174 10.1771 85.657 10.0369C85.8965 9.89668 86.1747 9.83324 86.4528 9.8554C86.6706 9.83933 86.8894 9.87154 87.0929 9.94964C87.2963 10.0277 87.4793 10.1497 87.6281 10.3065C87.777 10.4634 87.8879 10.651 87.9528 10.8556C88.0176 11.0602 88.0347 11.2764 88.0027 11.4883V14.3305H87.119V11.7059C87.119 11.0004 86.8063 10.6495 86.1527 10.6495C86.0048 10.6427 85.8571 10.6674 85.7198 10.7219C85.5825 10.7763 85.4588 10.8592 85.3573 10.9649C85.2557 11.0705 85.1787 11.1965 85.1314 11.3341C85.0841 11.4717 85.0678 11.6177 85.0834 11.7621V14.3305H84.1997V9.94014Z" fill="#0E1F1F"/>
<path d="M92.9965 8.84668V9.95974H93.9666V10.6896H92.9965V12.9471C92.9965 13.407 93.1897 13.6084 93.6297 13.6084C93.7423 13.608 93.8548 13.6013 93.9666 13.5884V14.3101C93.8079 14.3379 93.6471 14.3527 93.4859 14.3544C92.5031 14.3544 92.1118 14.0154 92.1118 13.169V10.6895H91.4009V9.9597H92.1118V8.84668H92.9965Z" fill="#0E1F1F"/>
<path d="M95.1738 8.22607H96.0498V10.6455H96.1197C96.2372 10.3927 96.4313 10.1815 96.6757 10.0407C96.92 9.9 97.2026 9.83654 97.4851 9.85901C97.7018 9.84745 97.9185 9.88293 98.1197 9.96292C98.3208 10.0429 98.5015 10.1654 98.6488 10.3218C98.7961 10.4781 98.9064 10.6644 98.9718 10.8673C99.0372 11.0702 99.0562 11.2848 99.0273 11.4958V14.3303H98.1427V11.7095C98.1427 11.0082 97.8095 10.6531 97.1851 10.6531C97.0332 10.6409 96.8804 10.6614 96.7375 10.7131C96.5945 10.7648 96.4647 10.8465 96.3574 10.9526C96.25 11.0586 96.1675 11.1863 96.1157 11.3269C96.0639 11.4674 96.0441 11.6173 96.0576 11.7662V14.3303H95.1739L95.1738 8.22607Z" fill="#0E1F1F"/>
<path d="M104.18 13.1447C104.06 13.546 103.8 13.8931 103.445 14.1253C103.09 14.3575 102.664 14.46 102.239 14.4149C101.944 14.4225 101.651 14.3671 101.38 14.2525C101.109 14.1379 100.867 13.9669 100.67 13.7513C100.473 13.5357 100.327 13.2807 100.241 13.0039C100.154 12.7272 100.131 12.4354 100.171 12.1488C100.132 11.8613 100.156 11.5688 100.242 11.2913C100.328 11.0137 100.474 10.7575 100.669 10.54C100.865 10.3225 101.106 10.1488 101.377 10.0306C101.647 9.91246 101.94 9.85258 102.236 9.85505C103.482 9.85505 104.233 10.6897 104.233 12.0683V12.3706H101.071V12.4192C101.057 12.5803 101.078 12.7425 101.132 12.8953C101.186 13.0481 101.271 13.1883 101.384 13.3067C101.496 13.4251 101.632 13.5192 101.784 13.583C101.935 13.6467 102.099 13.6787 102.264 13.6769C102.475 13.7018 102.689 13.6645 102.879 13.5697C103.069 13.475 103.225 13.327 103.329 13.1447L104.18 13.1447ZM101.071 11.7298H103.333C103.344 11.5825 103.324 11.4345 103.273 11.2953C103.222 11.1562 103.143 11.029 103.039 10.9218C102.935 10.8147 102.809 10.7301 102.67 10.6734C102.531 10.6167 102.381 10.5891 102.231 10.5925C102.078 10.5906 101.926 10.6187 101.785 10.6752C101.643 10.7317 101.514 10.8155 101.406 10.9214C101.298 11.0274 101.213 11.1536 101.155 11.2924C101.098 11.4312 101.069 11.58 101.071 11.7298H101.071Z" fill="#0E1F1F"/>
</svg>
