<svg width="12" height="12" viewBox="0 0 12 12" fill="none" xmlns="http://www.w3.org/2000/svg">
<g clip-path="url(#clip0_132_3721)">
<path d="M7.40735 8.54763H4.59265C4.39828 8.54763 4.24071 8.70469 4.24071 8.89845C4.24071 9.09218 4.39828 9.24924 4.59265 9.24924H7.40737C7.60174 9.24924 7.75931 9.09218 7.75931 8.89845C7.75929 8.70471 7.60172 8.54763 7.40735 8.54763Z" fill="#1A9F58"/>
<path d="M11.757 2.48688L10.5589 2.09836V1.48003C10.5589 0.663937 9.89285 0 9.07411 0H2.913C2.09426 0 1.42816 0.663937 1.42816 1.48003V2.10253L0.243047 2.48688C0.0981094 2.5339 0 2.66855 0 2.82049V4.19679C0 4.39052 0.15757 4.5476 0.351938 4.5476C0.546305 4.5476 0.703875 4.39055 0.703875 4.19679V3.07526L1.42816 2.84037V9.56063C1.42816 10.0207 1.71973 10.414 2.12824 10.5671V11.6492C2.12824 11.8429 2.28581 12 2.48018 12H3.88875C4.08312 12 4.24069 11.8429 4.24069 11.6492V10.6355H7.75929V11.6492C7.75929 11.8429 7.91686 12 8.11123 12H9.5198C9.71416 12 9.87173 11.8429 9.87173 11.6492V10.562C10.2735 10.4055 10.5589 10.0158 10.5589 9.56063V6.16566C10.5589 6.16446 10.5589 6.16327 10.5589 6.16207V2.83617L11.2961 3.07523V4.19677C11.2961 4.3905 11.4537 4.54758 11.6481 4.54758C11.8424 4.54758 12 4.39052 12 4.19677V2.82047C12 2.66855 11.9019 2.5339 11.757 2.48688ZM9.48061 9.93389H2.50652C2.30004 9.93389 2.13206 9.76645 2.13206 9.56063V6.64331L3.79765 7.16658L4.19876 7.71204C4.26506 7.8022 4.37048 7.85545 4.48261 7.85545H7.5045C7.61665 7.85545 7.72207 7.8022 7.78835 7.71204L8.18946 7.16658L9.85505 6.64331V9.56063C9.85507 9.76643 9.68709 9.93389 9.48061 9.93389ZM7.86797 6.53196C7.79656 6.55439 7.73416 6.59895 7.68989 6.65916L7.32612 7.15385H4.66099L4.29722 6.65916C4.25295 6.59895 4.19058 6.55441 4.11914 6.53196L2.13204 5.90768V2.70354H9.85505V5.90768L7.86797 6.53196ZM2.913 0.701602H9.07413C9.50475 0.701602 9.85507 1.0508 9.85507 1.48003V2.00194H2.13206V1.48003C2.13206 1.05082 2.48238 0.701602 2.913 0.701602ZM3.53681 11.2984H2.83214V10.6355H3.53681V11.2984ZM8.46319 11.2984V10.6355H9.16786V11.2984H8.46319Z" fill="#1A9F58"/>
<path d="M8.81576 8.52912C8.62139 8.52912 8.46382 8.68617 8.46382 8.87993V8.89104C8.46382 9.08477 8.62139 9.24185 8.81576 9.24185C9.01012 9.24185 9.1677 9.0848 9.1677 8.89104V8.87993C9.16772 8.6862 9.01015 8.52912 8.81576 8.52912Z" fill="#1A9F58"/>
<path d="M3.18473 8.52912C2.99037 8.52912 2.8328 8.68617 2.8328 8.87993V8.89104C2.8328 9.08477 2.99037 9.24185 3.18473 9.24185C3.3791 9.24185 3.53667 9.0848 3.53667 8.89104V8.87993C3.53667 8.6862 3.3791 8.52912 3.18473 8.52912Z" fill="#1A9F58"/>
</g>
<defs>
<clipPath id="clip0_132_3721">
<rect width="12" height="12" fill="white"/>
</clipPath>
</defs>
</svg>
