<svg width="20" height="20" viewBox="0 0 20 20" fill="none" xmlns="http://www.w3.org/2000/svg">
<path d="M19.8284 6.4477L17.4896 4.10891V0.585938C17.4896 0.262344 17.2272 0 16.9036 0H3.09637C2.77277 0 2.51043 0.262344 2.51043 0.585938V4.10891L0.171641 6.4477C0.0617188 6.55754 0 6.70656 0 6.86199V19.4141C0 19.7377 0.262344 20 0.585938 20H19.4141C19.7377 20 20 19.7377 20 19.4141V6.86199C20 6.70656 19.9383 6.55754 19.8284 6.4477ZM17.4896 5.76613L18.5854 6.86199L17.4896 7.95785V5.76613ZM3.6823 1.17188H16.3177V9.12969L13.138 12.3094L10.4143 9.58566C10.1855 9.35688 9.81453 9.35688 9.5857 9.58566L6.86199 12.3094L3.6823 9.12969V1.17188ZM2.51043 5.76613V7.95781L1.41457 6.86195L2.51043 5.76613ZM1.17188 8.27656L6.03336 13.138L1.17188 17.9995V8.27656ZM2.00051 18.8281L10 10.8286L17.9995 18.8281H2.00051ZM18.8281 17.9995L13.9666 13.138L18.8281 8.27656V17.9995Z" fill="#7A7A01"/>
<path d="M8.20545 8.03057C8.50416 8.15502 8.84721 8.01381 8.97166 7.7151L9.08291 7.44807H10.9167L11.028 7.7151C11.1024 7.89373 11.3936 8.19756 11.7942 8.03057C12.0929 7.90611 12.2342 7.56307 12.1097 7.26436L10.5406 3.49873C10.4497 3.28037 10.2363 3.13818 9.99979 3.13818C9.76322 3.13818 9.54986 3.28041 9.45893 3.49873L7.8899 7.26436C7.76553 7.56307 7.90678 7.90615 8.20545 8.03057ZM9.99986 5.24752L10.4285 6.27619H9.57127L9.99986 5.24752Z" fill="#7A7A01"/>
<path d="M12.8242 4.3101H13.1797V4.66557C13.1797 4.98916 13.4421 5.2515 13.7657 5.2515C14.0893 5.2515 14.3516 4.98916 14.3516 4.66557V4.3101H14.7071C15.0307 4.3101 15.293 4.04775 15.293 3.72416C15.293 3.40057 15.0307 3.13822 14.7071 3.13822H14.3516V2.78271C14.3516 2.45912 14.0893 2.19678 13.7657 2.19678C13.4421 2.19678 13.1797 2.45912 13.1797 2.78271V3.13822H12.8242C12.5006 3.13822 12.2383 3.40057 12.2383 3.72416C12.2383 4.04775 12.5006 4.3101 12.8242 4.3101Z" fill="#7A7A01"/>
</svg>
