<svg width="48" height="48" viewBox="0 0 48 48" fill="none" xmlns="http://www.w3.org/2000/svg">
<g clip-path="url(#clip0_132_3269)">
<path d="M23.3564 30.9033C23.3564 32.9439 25.0107 34.5982 27.0514 34.5982C29.0921 34.5982 30.7464 32.9439 30.7464 30.9033C30.7464 30.4613 30.6685 30.0376 30.5262 29.6448H23.5767C23.4343 30.0376 23.3564 30.4613 23.3564 30.9033Z" fill="url(#paint0_linear_132_3269)"/>
<path d="M24.4388 33.516C25.8817 34.959 28.2213 34.959 29.6642 33.516C31.1071 32.0731 31.1071 29.7335 29.6642 28.2906C29.3517 27.978 28.997 27.7336 28.6187 27.5564L23.7046 32.4705C23.8818 32.8489 24.1262 33.2035 24.4388 33.516Z" fill="url(#paint1_linear_132_3269)"/>
<path d="M34.1676 43.1532C34.1676 43.5232 34.0178 43.8585 33.7752 44.1011C33.5325 44.3438 33.1973 44.4936 32.8273 44.4936H29.1276L17.2735 43.1946L5.41957 44.4936H1.71993C0.980041 44.4936 0.379639 43.8942 0.379639 43.1533C0.379639 39.5773 1.8295 36.3412 4.17202 33.9977C6.51548 31.6543 9.75243 30.2053 13.3276 30.2053H21.2197C28.3708 30.2052 34.1676 36.0021 34.1676 43.1532Z" fill="url(#paint2_linear_132_3269)"/>
<path d="M13.3277 30.2052C11.7497 30.2052 10.2379 30.4878 8.83941 31.0047C8.77985 31.4115 8.74854 31.8274 8.74854 32.2507C8.74854 36.959 12.5654 40.7759 17.2737 40.7759C21.9821 40.7759 25.7989 36.959 25.7989 32.2507C25.7989 31.8274 25.7676 31.4114 25.7081 31.0047C24.3097 30.4879 22.7978 30.2053 21.2198 30.2053H13.3277V30.2052Z" fill="url(#paint3_linear_132_3269)"/>
<path d="M17.2736 29.2937H12.7498L12.8077 30.0749C12.8753 30.9849 13.408 31.7953 14.2164 32.2183L14.8984 32.5751C16.3862 33.3534 18.1609 33.3534 19.6487 32.5751L20.3306 32.2183C21.1391 31.7953 21.6718 30.9849 21.7393 30.0749L21.7973 29.2937H17.2736Z" fill="url(#paint4_linear_132_3269)"/>
<path d="M17.2736 29.2937H12.7498L12.8077 30.0749C12.8753 30.9849 13.408 31.7953 14.2164 32.2183L14.8984 32.5751C16.3862 33.3534 18.1609 33.3534 19.6487 32.5751L20.3306 32.2183C21.1391 31.7953 21.6718 30.9849 21.7393 30.0749L21.7973 29.2937H17.2736Z" fill="url(#paint5_linear_132_3269)"/>
<path d="M5.48853 20.4445C5.48853 18.9028 6.55872 17.611 7.99671 17.2716C8.38106 17.1808 8.74848 17.4781 8.74848 17.873V23.0158C8.74848 23.4107 8.38106 23.708 7.99671 23.6172C6.55863 23.2778 5.48853 21.9861 5.48853 20.4445Z" fill="url(#paint6_linear_132_3269)"/>
<path d="M29.0589 20.4445C29.0589 18.9028 27.9887 17.611 26.5507 17.2716C26.1663 17.1808 25.7988 17.4781 25.7988 17.873V23.0158C25.7988 23.4107 26.1663 23.708 26.5507 23.6172C27.9887 23.2778 29.0589 21.9861 29.0589 20.4445Z" fill="url(#paint7_linear_132_3269)"/>
<path d="M17.2736 7.72546C12.0656 7.72546 7.84375 11.9474 7.84375 17.1553V21.9911C7.84375 27.1991 12.0656 31.421 17.2736 31.421C22.4815 31.421 26.7034 27.1991 26.7034 21.9911V17.1553C26.7034 11.9474 22.4815 7.72546 17.2736 7.72546Z" fill="url(#paint8_linear_132_3269)"/>
<path d="M17.2737 7.72546V31.4209C22.4816 31.4209 26.7035 27.199 26.7035 21.991V17.1552C26.7035 11.9473 22.4816 7.72546 17.2737 7.72546Z" fill="url(#paint9_linear_132_3269)"/>
<path d="M8.02905 23.8588C8.89572 28.1721 12.705 31.421 17.2736 31.421C21.8421 31.421 25.6514 28.1721 26.5181 23.8588H8.02905Z" fill="url(#paint10_linear_132_3269)"/>
<path d="M12.8958 22.1661C12.139 22.1661 11.5254 21.5525 11.5254 20.7957V20.0929C11.5254 19.3361 12.139 18.7225 12.8958 18.7225C13.6526 18.7225 14.2662 19.3361 14.2662 20.0929V20.7957C14.2662 21.5526 13.6527 22.1661 12.8958 22.1661Z" fill="url(#paint11_linear_132_3269)"/>
<path d="M21.6512 22.1661C20.8943 22.1661 20.2808 21.5525 20.2808 20.7957V20.0929C20.2808 19.3361 20.8943 18.7225 21.6512 18.7225C22.408 18.7225 23.0216 19.3361 23.0216 20.0929V20.7957C23.0216 21.5526 22.408 22.1661 21.6512 22.1661Z" fill="url(#paint12_linear_132_3269)"/>
<path d="M17.7946 25.0886H16.7527C15.8845 25.0886 15.227 24.3039 15.3791 23.449L15.8687 20.6973C15.931 20.3468 16.2357 20.0916 16.5916 20.0916H17.9557C18.3116 20.0916 18.6164 20.3469 18.6786 20.6973L19.1682 23.449C19.3203 24.304 18.6628 25.0886 17.7946 25.0886Z" fill="url(#paint13_linear_132_3269)"/>
<path d="M17.7946 25.0886H16.7527C15.8845 25.0886 15.227 24.3039 15.3791 23.449L15.8687 20.6973C15.931 20.3468 16.2357 20.0916 16.5916 20.0916H17.9557C18.3116 20.0916 18.6164 20.3469 18.6786 20.6973L19.1682 23.449C19.3203 24.304 18.6628 25.0886 17.7946 25.0886Z" fill="url(#paint14_linear_132_3269)"/>
<path d="M16.7527 25.0886H17.7946C18.6628 25.0886 19.3203 24.3039 19.1682 23.449L18.6786 20.6973C18.6163 20.3468 18.3116 20.0916 17.9557 20.0916H16.5916C16.2357 20.0916 15.9309 20.3469 15.8687 20.6973L15.3791 23.449C15.227 24.304 15.8844 25.0886 16.7527 25.0886Z" fill="url(#paint15_linear_132_3269)"/>
<path d="M22.1772 17.2551C22.1772 17.2551 23.9699 17.2278 25.0056 18.1042C26.0412 18.9806 27.2762 19.6977 28.4314 18.9806C29.5867 18.2635 29.3201 15.3668 29.3201 15.3668C29.3201 15.3668 25.7226 13.9707 22.1772 17.2551Z" fill="url(#paint16_linear_132_3269)"/>
<path d="M5.92416 14.041C5.92416 14.041 5.13052 16.7498 5.80618 19.0403C6.48184 21.3309 9.03135 21.2813 10.6248 19.5732C12.2183 17.8651 14.8475 17.4269 16.6799 17.8651C16.6799 17.8652 11.6984 12.8422 5.92416 14.041Z" fill="url(#paint17_linear_132_3269)"/>
<path d="M28.5235 16.5299L26.9982 16.8683C20.5929 18.2896 13.954 18.2896 7.54874 16.8683L6.02343 16.5299C5.29457 16.3682 4.77588 15.7218 4.77588 14.9751V6.55774H29.7713V14.9751C29.7711 15.7219 29.2524 16.3683 28.5235 16.5299Z" fill="url(#paint18_linear_132_3269)"/>
<path d="M28.5235 16.5299L26.9982 16.8683C20.5929 18.2896 13.954 18.2896 7.54874 16.8683L6.02343 16.5299C5.29457 16.3682 4.77588 15.7218 4.77588 14.9751V6.55774H29.7713V14.9751C29.7711 15.7219 29.2524 16.3683 28.5235 16.5299Z" fill="url(#paint19_linear_132_3269)"/>
<path d="M28.5235 16.5299L26.9982 16.8683C20.5929 18.2896 13.954 18.2896 7.54874 16.8683L6.02343 16.5299C5.29457 16.3682 4.77588 15.7218 4.77588 14.9751V6.55774H29.7713V14.9751C29.7711 15.7219 29.2524 16.3683 28.5235 16.5299Z" fill="url(#paint20_linear_132_3269)"/>
<path d="M18.0724 6.55774H6.71094V16.6825L7.54862 16.8683C11.0129 17.637 14.5455 17.9891 18.0725 17.9263V6.55774H18.0724Z" fill="url(#paint21_linear_132_3269)"/>
<path d="M17.2734 17.9343C20.5345 17.9343 23.7956 17.5791 26.9981 16.8684L28.5235 16.53C29.2524 16.3683 29.7711 15.7219 29.7711 14.9752V6.55774H17.2734V17.9343Z" fill="url(#paint22_linear_132_3269)"/>
<path d="M14.9044 3.57054L0.610452 6.30525C-0.203484 6.46101 -0.203484 7.6261 0.610452 7.78186L14.9044 10.5166C16.4695 10.816 18.0773 10.816 19.6424 10.5166L33.9363 7.78186C34.7503 7.6261 34.7503 6.46101 33.9363 6.30525L19.6424 3.57054C18.0773 3.27108 16.4695 3.27108 14.9044 3.57054Z" fill="url(#paint23_linear_132_3269)"/>
<path d="M14.9044 3.57054L0.610452 6.30525C-0.203484 6.46101 -0.203484 7.6261 0.610452 7.78186L14.9044 10.5166C16.4695 10.816 18.0773 10.816 19.6424 10.5166L33.9363 7.78186C34.7503 7.6261 34.7503 6.46101 33.9363 6.30525L19.6424 3.57054C18.0773 3.27108 16.4695 3.27108 14.9044 3.57054Z" fill="url(#paint24_linear_132_3269)"/>
<path d="M19.6424 3.57054L33.9363 6.30526C34.7503 6.46101 34.7503 7.6261 33.9363 7.78186L19.6424 10.5167C18.0773 10.8161 16.4695 10.8161 14.9044 10.5167L0.610452 7.78186C-0.203484 7.6261 -0.203484 6.46101 0.610452 6.30526L14.9044 3.57054C16.4695 3.27108 18.0773 3.27108 19.6424 3.57054Z" fill="url(#paint25_linear_132_3269)"/>
<path d="M17.067 6.20142L6.35083 8.77926L6.36785 8.8834L14.9045 10.5167C16.4697 10.8162 18.0775 10.8162 19.6426 10.5167L21.1028 10.2373L17.067 6.20142Z" fill="url(#paint26_linear_132_3269)"/>
<path d="M6.5497 17.4323C6.20387 17.4323 5.92358 17.152 5.92358 16.8062V10.1859C5.92358 8.97057 6.78679 7.92665 7.9804 7.69825L16.5409 6.06046C16.8806 5.99549 17.2086 6.21809 17.2735 6.55775C17.3385 6.8974 17.1159 7.22537 16.7763 7.29034L8.21571 8.92813C7.61223 9.04359 7.17581 9.57144 7.17581 10.1858V16.8062C7.17581 17.152 6.89552 17.4323 6.5497 17.4323Z" fill="url(#paint27_linear_132_3269)"/>
<path d="M6.54977 18.9743C7.40136 18.9743 8.09172 18.2839 8.09172 17.4323C8.09172 16.5807 7.40136 15.8904 6.54977 15.8904C5.69817 15.8904 5.00781 16.5807 5.00781 17.4323C5.00781 18.2839 5.69817 18.9743 6.54977 18.9743Z" fill="url(#paint28_linear_132_3269)"/>
<path d="M5.00781 17.4324C5.00781 18.284 5.69815 18.9743 6.54977 18.9743C7.40138 18.9743 8.09172 18.284 8.09172 17.4324C8.09172 17.2479 8.05919 17.0711 7.99982 16.9072H5.09971C5.04035 17.0711 5.00781 17.248 5.00781 17.4324Z" fill="url(#paint29_linear_132_3269)"/>
<path d="M5.45945 18.5226C6.06163 19.1248 7.03786 19.1248 7.64004 18.5226C8.24222 17.9204 8.24222 16.9442 7.64004 16.342C7.50962 16.2116 7.36162 16.1096 7.20372 16.0356L5.15308 18.0863C5.22693 18.2442 5.32903 18.3922 5.45945 18.5226Z" fill="url(#paint30_linear_132_3269)"/>
<path d="M39.6082 18.648L36.7576 29.2873C36.0471 31.9387 34.5886 34.262 32.5617 36.0234H28.22V30.4719C29.0558 29.6557 29.6607 28.6273 29.9711 27.4689L32.8226 16.8296L39.6082 18.648Z" fill="url(#paint31_linear_132_3269)"/>
<path d="M42.3031 13.6498L41.4872 16.6947C41.0165 18.451 39.2112 19.4933 37.4549 19.0227L34.6273 18.265C33.3115 17.9125 32.5307 16.56 32.8832 15.2442L33.9129 11.4017L42.3031 13.6498Z" fill="url(#paint32_linear_132_3269)"/>
<path d="M42.3031 13.6498L41.4872 16.6947C41.0165 18.451 39.2112 19.4933 37.4549 19.0227L34.6273 18.265C33.3115 17.9125 32.5307 16.56 32.8832 15.2442L33.9129 11.4017L42.3031 13.6498Z" fill="url(#paint33_linear_132_3269)"/>
<path d="M46.299 17.9255L44.4429 17.4281L45.8017 12.3571L47.3634 12.7755C47.6113 12.842 47.8105 13.0354 47.8676 13.2857C47.868 13.2873 47.8684 13.2889 47.8688 13.2905C48.2283 14.8922 47.8079 16.2739 47.1077 17.5778C46.9522 17.8673 46.6165 18.0105 46.299 17.9255Z" fill="url(#paint34_linear_132_3269)"/>
<path d="M46.299 17.9255L44.4429 17.4281L45.8017 12.3571L47.3634 12.7755C47.6113 12.842 47.8105 13.0354 47.8676 13.2857C47.868 13.2873 47.8684 13.2889 47.8688 13.2905C48.2283 14.8922 47.8079 16.2739 47.1077 17.5778C46.9522 17.8673 46.6165 18.0105 46.299 17.9255Z" fill="url(#paint35_linear_132_3269)"/>
<path d="M44.4429 17.4281L46.299 17.9254C46.6165 18.0105 46.9522 17.8672 47.1077 17.5777C47.5403 16.772 47.8656 15.9362 47.9666 15.0376L45.2765 14.3168L44.4429 17.4281Z" fill="url(#paint36_linear_132_3269)"/>
<path d="M29.9028 7.97347L28.5 13.2088L25.0652 12.2885L26.5974 6.57007L29.9028 7.97347Z" fill="url(#paint37_linear_132_3269)"/>
<path d="M29.9028 7.97347L28.5 13.2088L25.0652 12.2885L26.5974 6.57007L29.9028 7.97347Z" fill="url(#paint38_linear_132_3269)"/>
<path d="M26.5975 6.57008C26.0535 6.42433 25.2696 7.58624 24.8464 9.1654C24.4233 10.7446 24.5213 12.1428 25.0653 12.2886C25.6093 12.4343 26.3933 11.2724 26.8164 9.69326C27.003 8.99684 27.5308 7.02726 27.5308 7.02726C27.5308 7.02726 26.9016 6.65151 26.5975 6.57008Z" fill="url(#paint39_linear_132_3269)"/>
<path d="M26.5975 6.57008C26.0535 6.42433 25.2696 7.58624 24.8464 9.1654C24.4233 10.7446 24.5213 12.1428 25.0653 12.2886C25.6093 12.4343 26.3933 11.2724 26.8164 9.69326C27.003 8.99684 27.5308 7.02726 27.5308 7.02726C27.5308 7.02726 26.9016 6.65151 26.5975 6.57008Z" fill="url(#paint40_linear_132_3269)"/>
<path d="M26.5975 6.57008C26.0535 6.42433 25.2696 7.58624 24.8464 9.1654C24.4233 10.7446 24.5213 12.1428 25.0653 12.2886C25.6093 12.4343 26.3933 11.2724 26.8164 9.69326C27.003 8.99684 27.5308 7.02726 27.5308 7.02726C27.5308 7.02726 26.9016 6.65151 26.5975 6.57008Z" fill="url(#paint41_linear_132_3269)"/>
<path d="M26.7137 10.0454L25.8387 9.81092C25.6442 9.75885 25.5256 9.55934 25.5777 9.36478C25.578 9.36356 25.5784 9.36235 25.5786 9.36123C26.0017 7.78244 26.7863 6.62062 27.3302 6.76637C27.4765 6.80555 27.5825 6.83397 27.5825 6.83397C27.5825 6.83397 27.003 8.9968 26.8164 9.69322C26.7843 9.81316 26.7498 9.9305 26.7137 10.0454Z" fill="url(#paint42_linear_132_3269)"/>
<path d="M26.7137 10.0454L25.8387 9.81092C25.6442 9.75885 25.5256 9.55934 25.5777 9.36478C25.578 9.36356 25.5784 9.36235 25.5786 9.36123C26.0017 7.78244 26.7863 6.62062 27.3302 6.76637C27.4765 6.80555 27.5825 6.83397 27.5825 6.83397C27.5825 6.83397 27.003 8.9968 26.8164 9.69322C26.7843 9.81316 26.7498 9.9305 26.7137 10.0454Z" fill="url(#paint43_linear_132_3269)"/>
<path d="M46.9182 12.7373C47.3765 14.7788 46.7105 16.5044 45.7359 18.1433C45.6529 18.2828 45.4861 18.3489 45.3292 18.3069L26.0521 13.1416C25.8198 13.0793 25.7115 12.8138 25.8319 12.6056C26.8684 10.8129 27.418 8.88442 26.5976 6.56995C29.2437 7.27899 43.3462 11.0577 45.9922 11.7668C46.458 11.8916 46.8127 12.2668 46.9182 12.7373Z" fill="url(#paint44_linear_132_3269)"/>
<path d="M45.9921 11.7669C45.3021 11.582 43.8324 11.1881 41.9908 10.6947L40.3113 16.9625L45.329 18.307C45.4858 18.349 45.6526 18.2829 45.7357 18.1434C46.7103 16.5044 47.3763 14.7789 46.9179 12.7374C46.8125 12.2669 46.4579 11.8917 45.9921 11.7669Z" fill="url(#paint45_linear_132_3269)"/>
<path d="M25.8319 12.6056C25.7115 12.8138 25.8198 13.0793 26.0521 13.1416L45.3292 18.3069C45.4861 18.3489 45.6529 18.2828 45.7359 18.1432C46.5411 16.7894 47.1348 15.3762 47.0589 13.7747L26.9813 8.3949C27.0788 9.93349 26.5836 11.3054 25.8319 12.6056Z" fill="url(#paint46_linear_132_3269)"/>
<path d="M45.7358 18.1433C46.7104 16.5044 47.3765 14.7789 46.9181 12.7374C46.8125 12.2669 46.4579 11.8917 45.9922 11.7668C44.688 11.4174 40.6005 10.3221 36.4736 9.21631L34.8572 15.501L45.3292 18.3069C45.486 18.349 45.6528 18.2829 45.7358 18.1433Z" fill="url(#paint47_linear_132_3269)"/>
<path d="M35.6118 14.634L38.6537 15.4491C40.6229 15.9767 42.647 14.8081 43.1746 12.839C43.5416 11.4692 42.7287 10.0611 41.3588 9.69403L36.1467 8.29736C34.7768 7.93032 33.3687 8.74322 33.0017 10.1132C32.474 12.0824 33.6427 14.1065 35.6118 14.634Z" fill="url(#paint48_linear_132_3269)"/>
<path d="M41.3589 9.69406L38.7667 8.99951L37.0576 15.0215L38.6537 15.4491C40.6229 15.9768 42.6469 14.8081 43.1746 12.839C43.5417 11.4692 42.7287 10.0611 41.3589 9.69406Z" fill="url(#paint49_linear_132_3269)"/>
<path d="M37.4946 11.9396L34.2697 11.0755C33.4511 10.8562 32.6097 11.3419 32.3904 12.1606L31.9441 13.8261C31.4305 15.743 32.5681 17.7132 34.485 18.2268L34.4824 18.2209C34.5301 18.2368 34.5783 18.2519 34.6274 18.2651L36.2107 18.6893C36.4991 18.1109 36.6623 17.4591 36.6623 16.7688C36.6623 15.2885 35.9154 13.9835 34.7784 13.2077C34.847 13.2052 34.9171 13.2126 34.9868 13.2313L36.4187 13.615C37.0862 13.7938 37.7722 13.3977 37.951 12.7303C38.0433 12.3859 37.839 12.0319 37.4946 11.9396Z" fill="url(#paint50_linear_132_3269)"/>
<path d="M39.0811 20.9053L32.2706 19.0802C31.7605 18.9435 31.2362 19.2461 31.0995 19.7563L28.3855 29.8826C28.1308 30.8329 27.1038 31.3363 26.1894 30.973C26.1835 30.9706 26.1776 30.9683 26.1717 30.9659C26.0595 30.9224 25.9466 30.8796 25.8329 30.8384C25.4778 30.7091 25.1159 30.5942 24.7472 30.4961C24.7273 30.4966 24.6975 30.4975 24.6776 30.4979C24.5872 30.5335 24.5171 30.6117 24.5001 30.7125C24.2887 31.8937 23.1035 36.7078 17.4269 40.2723C17.3342 40.3312 17.2131 40.3312 17.1203 40.2723C11.4437 36.7078 10.2585 31.8937 10.0471 30.7125C10.027 30.598 9.93982 30.5124 9.83259 30.4874C9.45339 30.5874 9.08148 30.7044 8.71677 30.8375C8.60299 30.8786 8.49005 30.9213 8.37711 30.9658C6.67716 31.6378 5.14913 32.6511 3.87756 33.9227C3.77911 34.0211 3.68309 34.1203 3.58792 34.2221C3.58792 34.2229 3.58792 34.2229 3.58708 34.2237C1.36292 36.5923 -0.000654205 39.7793 2.35465e-07 43.2859C0.000187218 44.0417 0.614987 44.6539 1.37077 44.6539H33.1764C33.5547 44.6539 33.8977 44.5007 34.1462 44.2529C34.3938 44.0044 34.5471 43.6616 34.5471 43.2832C34.5471 43.1831 34.546 43.0833 34.5438 42.9837C34.4969 40.8754 34.863 38.7815 35.6604 36.8292C35.938 36.1495 36.1745 35.4479 36.3677 34.7273L39.7572 22.0762C39.8939 21.5663 39.5912 21.042 39.0811 20.9053Z" fill="url(#paint51_linear_132_3269)"/>
<path d="M39.0811 20.9053L32.4 19.1149L25.7952 44.654H33.1763C33.5547 44.654 33.8976 44.5008 34.1461 44.253C34.3938 44.0045 34.5471 43.6617 34.5471 43.2832C34.5471 43.1832 34.546 43.0834 34.5437 42.9838C34.4969 40.8755 34.863 38.7815 35.6604 36.8293C35.938 36.1496 36.1745 35.448 36.3676 34.7274L39.7572 22.0763C39.894 21.5663 39.5912 21.042 39.0811 20.9053Z" fill="url(#paint52_linear_132_3269)"/>
<path d="M17.4268 40.2722C17.3341 40.3311 17.213 40.3311 17.1202 40.2722C15.2929 39.1248 13.9315 37.8479 12.9177 36.6044H1.80766C0.659302 38.5648 0 40.8466 0 43.2832C0 44.0408 0.613958 44.654 1.37077 44.654H33.1764C33.5547 44.654 33.8977 44.5007 34.1462 44.253C34.3938 44.0045 34.5471 43.6616 34.5471 43.2832C34.5471 40.8473 33.8886 38.5652 32.7405 36.6044H21.6294C20.6155 37.8479 19.2542 39.1248 17.4268 40.2722Z" fill="url(#paint53_linear_132_3269)"/>
<path d="M26.9576 30.8541C26.695 30.7654 26.4165 30.6846 26.1297 30.6136L25.7179 30.5117C25.4999 30.4578 25.2813 30.5976 25.2388 30.8181L25.1586 31.2346C24.8674 32.7457 23.4664 37.8584 17.4926 41.8992C17.3609 41.9883 17.1864 41.9883 17.0547 41.8992C11.0809 37.8583 9.67992 32.7456 9.38888 31.2346L9.30867 30.8181C9.26622 30.5976 9.04755 30.4578 8.82962 30.5117L8.41779 30.6136C8.13114 30.6845 7.85263 30.7654 7.58983 30.8541L7.25429 30.9673C7.06749 31.0303 6.95652 31.2223 6.99522 31.4157L7.06469 31.763C7.26682 32.773 7.81692 34.8175 9.2306 37.1627C10.9385 39.996 13.3669 42.4133 16.4485 44.3475C16.6994 44.5049 16.9867 44.5835 17.274 44.5835C17.5613 44.5835 17.8485 44.5048 18.0989 44.3474C21.1805 42.4133 23.609 39.996 25.3169 37.1627C26.7307 34.8174 27.2807 32.7729 27.4828 31.763L27.5523 31.4158C27.591 31.2224 27.4801 31.0305 27.2933 30.9675L26.9576 30.8541Z" fill="url(#paint54_linear_132_3269)"/>
<path d="M26.9577 30.8541C26.6951 30.7654 26.4166 30.6846 26.1298 30.6136L25.718 30.5117C25.5 30.4578 25.2814 30.5976 25.2388 30.8181L25.1586 31.2346C24.8675 32.7457 23.4664 37.8584 17.4927 41.8992C17.361 41.9882 17.1865 41.9882 17.0548 41.8992C11.081 37.8583 9.68 32.7456 9.38896 31.2346L9.30875 30.8181C9.2663 30.5976 9.04762 30.4578 8.8297 30.5117L8.41787 30.6136C8.13122 30.6845 7.85271 30.7654 7.58991 30.8541L7.25437 30.9673C7.24296 30.9711 7.23277 30.9769 7.22192 30.9817C7.50801 32.0968 8.08644 33.7979 9.23077 35.6964C10.9387 38.5297 13.3671 40.9469 16.4487 42.8812C16.6995 43.0385 16.9868 43.1172 17.2741 43.1172C17.5614 43.1172 17.8487 43.0384 18.0991 42.8811C21.1807 40.9469 23.6092 38.5297 25.3171 35.6964C26.4614 33.7979 27.0399 32.0968 27.3259 30.9818C27.3151 30.977 27.3049 30.9712 27.2935 30.9674L26.9577 30.8541Z" fill="url(#paint55_linear_132_3269)"/>
</g>
<defs>
<linearGradient id="paint0_linear_132_3269" x1="27.0514" y1="30.7127" x2="27.0514" y2="34.7415" gradientUnits="userSpaceOnUse">
<stop stop-color="#FE9738" stop-opacity="0"/>
<stop offset="1" stop-color="#FE9738"/>
</linearGradient>
<linearGradient id="paint1_linear_132_3269" x1="26.8117" y1="30.6965" x2="30.03" y2="33.4725" gradientUnits="userSpaceOnUse">
<stop stop-color="#FE9738" stop-opacity="0"/>
<stop offset="1" stop-color="#FE9738"/>
</linearGradient>
<linearGradient id="paint2_linear_132_3269" x1="14.3818" y1="33.5309" x2="16.9124" y2="41.1228" gradientUnits="userSpaceOnUse">
<stop stop-color="#F5FBFF"/>
<stop offset="1" stop-color="#91DCFA"/>
</linearGradient>
<linearGradient id="paint3_linear_132_3269" x1="15.1041" y1="35.5905" x2="13.0719" y2="37.5843" gradientUnits="userSpaceOnUse">
<stop stop-color="#60B7FF" stop-opacity="0"/>
<stop offset="1" stop-color="#60B7FF"/>
</linearGradient>
<linearGradient id="paint4_linear_132_3269" x1="17.0017" y1="28.9724" x2="18.4655" y2="33.1116" gradientUnits="userSpaceOnUse">
<stop stop-color="#FFDFCF"/>
<stop offset="1" stop-color="#FFA78F"/>
</linearGradient>
<linearGradient id="paint5_linear_132_3269" x1="17.2736" y1="32.1029" x2="17.2736" y2="30.5483" gradientUnits="userSpaceOnUse">
<stop stop-color="#F89580" stop-opacity="0"/>
<stop offset="0.2699" stop-color="#F08F7A" stop-opacity="0.271"/>
<stop offset="0.6945" stop-color="#D97F69" stop-opacity="0.696"/>
<stop offset="0.9972" stop-color="#C5715A"/>
</linearGradient>
<linearGradient id="paint6_linear_132_3269" x1="6.44775" y1="19.035" x2="9.06981" y2="21.657" gradientUnits="userSpaceOnUse">
<stop stop-color="#FFDFCF"/>
<stop offset="1" stop-color="#FFA78F"/>
</linearGradient>
<linearGradient id="paint7_linear_132_3269" x1="24.7827" y1="18.537" x2="28.4518" y2="22.206" gradientUnits="userSpaceOnUse">
<stop stop-color="#FFDFCF"/>
<stop offset="1" stop-color="#FFA78F"/>
</linearGradient>
<linearGradient id="paint8_linear_132_3269" x1="16.602" y1="18.9017" x2="25.4165" y2="27.7162" gradientUnits="userSpaceOnUse">
<stop stop-color="#FFDFCF"/>
<stop offset="1" stop-color="#FFA78F"/>
</linearGradient>
<linearGradient id="paint9_linear_132_3269" x1="21.5135" y1="19.5733" x2="27.1285" y2="19.5733" gradientUnits="userSpaceOnUse">
<stop stop-color="#F89580" stop-opacity="0"/>
<stop offset="0.2699" stop-color="#F08F7A" stop-opacity="0.271"/>
<stop offset="0.6945" stop-color="#D97F69" stop-opacity="0.696"/>
<stop offset="0.9972" stop-color="#C5715A"/>
</linearGradient>
<linearGradient id="paint10_linear_132_3269" x1="17.2736" y1="27.7084" x2="17.2736" y2="32.6629" gradientUnits="userSpaceOnUse">
<stop stop-color="#F89580" stop-opacity="0"/>
<stop offset="0.2699" stop-color="#F08F7A" stop-opacity="0.271"/>
<stop offset="0.6945" stop-color="#D97F69" stop-opacity="0.696"/>
<stop offset="0.9972" stop-color="#C5715A"/>
</linearGradient>
<linearGradient id="paint11_linear_132_3269" x1="8.24842" y1="17.227" x2="15.0039" y2="21.9038" gradientUnits="userSpaceOnUse">
<stop stop-color="#5A5A5A"/>
<stop offset="1" stop-color="#444444"/>
</linearGradient>
<linearGradient id="paint12_linear_132_3269" x1="17.0038" y1="17.227" x2="23.7593" y2="21.9038" gradientUnits="userSpaceOnUse">
<stop stop-color="#5A5A5A"/>
<stop offset="1" stop-color="#444444"/>
</linearGradient>
<linearGradient id="paint13_linear_132_3269" x1="17.2736" y1="22.3264" x2="17.2736" y2="25.6036" gradientUnits="userSpaceOnUse">
<stop stop-color="#C4573A" stop-opacity="0"/>
<stop offset="0.2342" stop-color="#BE5539" stop-opacity="0.234"/>
<stop offset="0.5454" stop-color="#AD4E35" stop-opacity="0.545"/>
<stop offset="0.8984" stop-color="#914330" stop-opacity="0.898"/>
<stop offset="1" stop-color="#883F2E"/>
</linearGradient>
<linearGradient id="paint14_linear_132_3269" x1="17.8392" y1="22.7179" x2="19.7729" y2="23.1884" gradientUnits="userSpaceOnUse">
<stop stop-color="#C4573A" stop-opacity="0"/>
<stop offset="0.2342" stop-color="#BE5539" stop-opacity="0.234"/>
<stop offset="0.5454" stop-color="#AD4E35" stop-opacity="0.545"/>
<stop offset="0.8984" stop-color="#914330" stop-opacity="0.898"/>
<stop offset="1" stop-color="#883F2E"/>
</linearGradient>
<linearGradient id="paint15_linear_132_3269" x1="16.708" y1="22.7179" x2="14.7743" y2="23.1884" gradientUnits="userSpaceOnUse">
<stop stop-color="#FFDDCD" stop-opacity="0"/>
<stop offset="0.9972" stop-color="#FFDDCD"/>
</linearGradient>
<linearGradient id="paint16_linear_132_3269" x1="25.8829" y1="16.4186" x2="28.512" y2="18.53" gradientUnits="userSpaceOnUse">
<stop stop-color="#F89580"/>
<stop offset="1" stop-color="#C4573A"/>
</linearGradient>
<linearGradient id="paint17_linear_132_3269" x1="10.5248" y1="16.0736" x2="11.4842" y2="19.2518" gradientUnits="userSpaceOnUse">
<stop stop-color="#F89580"/>
<stop offset="1" stop-color="#C4573A"/>
</linearGradient>
<linearGradient id="paint18_linear_132_3269" x1="11.0151" y1="6.87178" x2="23.0259" y2="15.1494" gradientUnits="userSpaceOnUse">
<stop stop-color="#5A5A5A"/>
<stop offset="1" stop-color="#444444"/>
</linearGradient>
<linearGradient id="paint19_linear_132_3269" x1="17.2734" y1="11.8328" x2="17.2734" y2="17.6781" gradientUnits="userSpaceOnUse">
<stop stop-color="#433F43" stop-opacity="0"/>
<stop offset="0.3444" stop-color="#403C40" stop-opacity="0.344"/>
<stop offset="0.6223" stop-color="#363336" stop-opacity="0.622"/>
<stop offset="0.8763" stop-color="#252425" stop-opacity="0.876"/>
<stop offset="1" stop-color="#1A1A1A"/>
</linearGradient>
<linearGradient id="paint20_linear_132_3269" x1="17.2734" y1="15.0789" x2="17.2734" y2="8.4243" gradientUnits="userSpaceOnUse">
<stop stop-color="#433F43" stop-opacity="0"/>
<stop offset="0.3444" stop-color="#403C40" stop-opacity="0.344"/>
<stop offset="0.6223" stop-color="#363336" stop-opacity="0.622"/>
<stop offset="0.8763" stop-color="#252425" stop-opacity="0.876"/>
<stop offset="1" stop-color="#1A1A1A"/>
</linearGradient>
<linearGradient id="paint21_linear_132_3269" x1="11.6883" y1="12.2457" x2="7.19653" y2="12.2457" gradientUnits="userSpaceOnUse">
<stop stop-color="#433F43" stop-opacity="0"/>
<stop offset="0.3444" stop-color="#403C40" stop-opacity="0.344"/>
<stop offset="0.6223" stop-color="#363336" stop-opacity="0.622"/>
<stop offset="0.8763" stop-color="#252425" stop-opacity="0.876"/>
<stop offset="1" stop-color="#1A1A1A"/>
</linearGradient>
<linearGradient id="paint22_linear_132_3269" x1="23.0229" y1="12.246" x2="29.5999" y2="12.246" gradientUnits="userSpaceOnUse">
<stop stop-color="#433F43" stop-opacity="0"/>
<stop offset="0.3444" stop-color="#403C40" stop-opacity="0.344"/>
<stop offset="0.6223" stop-color="#363336" stop-opacity="0.622"/>
<stop offset="0.8763" stop-color="#252425" stop-opacity="0.876"/>
<stop offset="1" stop-color="#1A1A1A"/>
</linearGradient>
<linearGradient id="paint23_linear_132_3269" x1="16.9343" y1="2.90693" x2="17.5005" y2="9.81464" gradientUnits="userSpaceOnUse">
<stop stop-color="#5A5A5A"/>
<stop offset="1" stop-color="#444444"/>
</linearGradient>
<linearGradient id="paint24_linear_132_3269" x1="17.6061" y1="8.83195" x2="17.9081" y2="10.4551" gradientUnits="userSpaceOnUse">
<stop stop-color="#433F43" stop-opacity="0"/>
<stop offset="0.3444" stop-color="#403C40" stop-opacity="0.344"/>
<stop offset="0.6223" stop-color="#363336" stop-opacity="0.622"/>
<stop offset="0.8763" stop-color="#252425" stop-opacity="0.876"/>
<stop offset="1" stop-color="#1A1A1A"/>
</linearGradient>
<linearGradient id="paint25_linear_132_3269" x1="16.9407" y1="8.83196" x2="16.6387" y2="10.4551" gradientUnits="userSpaceOnUse">
<stop stop-color="#433F43" stop-opacity="0"/>
<stop offset="0.3444" stop-color="#403C40" stop-opacity="0.344"/>
<stop offset="0.6223" stop-color="#363336" stop-opacity="0.622"/>
<stop offset="0.8763" stop-color="#252425" stop-opacity="0.876"/>
<stop offset="1" stop-color="#1A1A1A"/>
</linearGradient>
<linearGradient id="paint26_linear_132_3269" x1="14.1801" y1="11.2773" x2="13.3077" y2="7.90941" gradientUnits="userSpaceOnUse">
<stop stop-color="#433F43" stop-opacity="0"/>
<stop offset="0.3444" stop-color="#403C40" stop-opacity="0.344"/>
<stop offset="0.6223" stop-color="#363336" stop-opacity="0.622"/>
<stop offset="0.8763" stop-color="#252425" stop-opacity="0.876"/>
<stop offset="1" stop-color="#1A1A1A"/>
</linearGradient>
<linearGradient id="paint27_linear_132_3269" x1="7.1673" y1="7.57119" x2="11.6578" y2="11.7912" gradientUnits="userSpaceOnUse">
<stop stop-color="#FEF0AE"/>
<stop offset="1" stop-color="#FAC600"/>
</linearGradient>
<linearGradient id="paint28_linear_132_3269" x1="5.9561" y1="16.8387" x2="7.12408" y2="18.0067" gradientUnits="userSpaceOnUse">
<stop stop-color="#FEF0AE"/>
<stop offset="1" stop-color="#FAC600"/>
</linearGradient>
<linearGradient id="paint29_linear_132_3269" x1="6.54977" y1="17.3529" x2="6.54977" y2="19.0342" gradientUnits="userSpaceOnUse">
<stop stop-color="#FE9738" stop-opacity="0"/>
<stop offset="1" stop-color="#FE9738"/>
</linearGradient>
<linearGradient id="paint30_linear_132_3269" x1="6.44971" y1="17.346" x2="7.79271" y2="18.5045" gradientUnits="userSpaceOnUse">
<stop stop-color="#FE9738" stop-opacity="0"/>
<stop offset="1" stop-color="#FE9738"/>
</linearGradient>
<linearGradient id="paint31_linear_132_3269" x1="26.931" y1="22.3478" x2="33.4151" y2="26.9793" gradientUnits="userSpaceOnUse">
<stop stop-color="#FFDFCF"/>
<stop offset="1" stop-color="#FFA78F"/>
</linearGradient>
<linearGradient id="paint32_linear_132_3269" x1="36.5341" y1="11.6186" x2="38.8191" y2="19.1051" gradientUnits="userSpaceOnUse">
<stop stop-color="#FFDFCF"/>
<stop offset="1" stop-color="#FFA78F"/>
</linearGradient>
<linearGradient id="paint33_linear_132_3269" x1="36.9628" y1="17.7519" x2="37.3294" y2="15.8191" gradientUnits="userSpaceOnUse">
<stop stop-color="#F89580" stop-opacity="0"/>
<stop offset="0.2699" stop-color="#F08F7A" stop-opacity="0.271"/>
<stop offset="0.6945" stop-color="#D97F69" stop-opacity="0.696"/>
<stop offset="0.9972" stop-color="#C5715A"/>
</linearGradient>
<linearGradient id="paint34_linear_132_3269" x1="46.9465" y1="13.6256" x2="46.1745" y2="16.5048" gradientUnits="userSpaceOnUse">
<stop stop-color="#F5FBFF"/>
<stop offset="1" stop-color="#91DCFA"/>
</linearGradient>
<linearGradient id="paint35_linear_132_3269" x1="48.0159" y1="15.1683" x2="46.6691" y2="15.1601" gradientUnits="userSpaceOnUse">
<stop stop-color="#60B7FF" stop-opacity="0"/>
<stop offset="1" stop-color="#60B7FF"/>
</linearGradient>
<linearGradient id="paint36_linear_132_3269" x1="46.4898" y1="15.3276" x2="45.8642" y2="17.661" gradientUnits="userSpaceOnUse">
<stop stop-color="#60B7FF" stop-opacity="0"/>
<stop offset="1" stop-color="#60B7FF"/>
</linearGradient>
<linearGradient id="paint37_linear_132_3269" x1="26.808" y1="12.6389" x2="27.1521" y2="11.3554" gradientUnits="userSpaceOnUse">
<stop stop-color="#F5FBFF"/>
<stop offset="1" stop-color="#91DCFA"/>
</linearGradient>
<linearGradient id="paint38_linear_132_3269" x1="25.1281" y1="9.59393" x2="27.0639" y2="9.89436" gradientUnits="userSpaceOnUse">
<stop stop-color="#60B7FF" stop-opacity="0"/>
<stop offset="1" stop-color="#60B7FF"/>
</linearGradient>
<linearGradient id="paint39_linear_132_3269" x1="26.6458" y1="10.0112" x2="24.8617" y2="8.74831" gradientUnits="userSpaceOnUse">
<stop stop-color="#F5FBFF"/>
<stop offset="1" stop-color="#91DCFA"/>
</linearGradient>
<linearGradient id="paint40_linear_132_3269" x1="24.7347" y1="9.13271" x2="26.5738" y2="9.62579" gradientUnits="userSpaceOnUse">
<stop stop-color="#60B7FF" stop-opacity="0"/>
<stop offset="1" stop-color="#60B7FF"/>
</linearGradient>
<linearGradient id="paint41_linear_132_3269" x1="26.2578" y1="8.28454" x2="26.803" y2="6.79347" gradientUnits="userSpaceOnUse">
<stop stop-color="#60B7FF" stop-opacity="0"/>
<stop offset="1" stop-color="#60B7FF"/>
</linearGradient>
<linearGradient id="paint42_linear_132_3269" x1="26.3625" y1="7.73308" x2="27.1229" y2="9.30288" gradientUnits="userSpaceOnUse">
<stop stop-color="#F5FBFF"/>
<stop offset="1" stop-color="#91DCFA"/>
</linearGradient>
<linearGradient id="paint43_linear_132_3269" x1="25.9518" y1="8.50302" x2="27.0998" y2="8.38634" gradientUnits="userSpaceOnUse">
<stop stop-color="#60B7FF" stop-opacity="0"/>
<stop offset="1" stop-color="#60B7FF"/>
</linearGradient>
<linearGradient id="paint44_linear_132_3269" x1="36.9248" y1="10.3933" x2="36.0629" y2="13.6077" gradientUnits="userSpaceOnUse">
<stop stop-color="#F5FBFF"/>
<stop offset="1" stop-color="#91DCFA"/>
</linearGradient>
<linearGradient id="paint45_linear_132_3269" x1="44.5563" y1="14.8254" x2="47.4827" y2="15.7876" gradientUnits="userSpaceOnUse">
<stop stop-color="#60B7FF" stop-opacity="0"/>
<stop offset="1" stop-color="#60B7FF"/>
</linearGradient>
<linearGradient id="paint46_linear_132_3269" x1="36.2922" y1="14.1831" x2="35.6908" y2="16.2677" gradientUnits="userSpaceOnUse">
<stop stop-color="#60B7FF" stop-opacity="0"/>
<stop offset="1" stop-color="#60B7FF"/>
</linearGradient>
<linearGradient id="paint47_linear_132_3269" x1="42.0424" y1="15.764" x2="39.5432" y2="12.0318" gradientUnits="userSpaceOnUse">
<stop stop-color="#60B7FF" stop-opacity="0"/>
<stop offset="1" stop-color="#60B7FF"/>
</linearGradient>
<linearGradient id="paint48_linear_132_3269" x1="38.1231" y1="9.25771" x2="37.9898" y2="15.056" gradientUnits="userSpaceOnUse">
<stop stop-color="#FFDFCF"/>
<stop offset="1" stop-color="#FFA78F"/>
</linearGradient>
<linearGradient id="paint49_linear_132_3269" x1="39.3811" y1="12.3856" x2="42.4135" y2="14.485" gradientUnits="userSpaceOnUse">
<stop stop-color="#F89580" stop-opacity="0"/>
<stop offset="0.2699" stop-color="#F08F7A" stop-opacity="0.271"/>
<stop offset="0.6945" stop-color="#D97F69" stop-opacity="0.696"/>
<stop offset="0.9972" stop-color="#C5715A"/>
</linearGradient>
<linearGradient id="paint50_linear_132_3269" x1="34.4054" y1="12.2683" x2="36.6904" y2="19.7548" gradientUnits="userSpaceOnUse">
<stop stop-color="#FFDFCF"/>
<stop offset="1" stop-color="#FFA78F"/>
</linearGradient>
<linearGradient id="paint51_linear_132_3269" x1="19.3774" y1="30.4378" x2="22.0104" y2="41.3459" gradientUnits="userSpaceOnUse">
<stop stop-color="#5A5A5A"/>
<stop offset="1" stop-color="#444444"/>
</linearGradient>
<linearGradient id="paint52_linear_132_3269" x1="30.7364" y1="32.2541" x2="36.1349" y2="33.9203" gradientUnits="userSpaceOnUse">
<stop stop-color="#433F43" stop-opacity="0"/>
<stop offset="0.3444" stop-color="#403C40" stop-opacity="0.344"/>
<stop offset="0.6223" stop-color="#363336" stop-opacity="0.622"/>
<stop offset="0.8763" stop-color="#252425" stop-opacity="0.876"/>
<stop offset="1" stop-color="#1A1A1A"/>
</linearGradient>
<linearGradient id="paint53_linear_132_3269" x1="17.2736" y1="42.1257" x2="17.2736" y2="44.0947" gradientUnits="userSpaceOnUse">
<stop stop-color="#433F43" stop-opacity="0"/>
<stop offset="0.3444" stop-color="#403C40" stop-opacity="0.344"/>
<stop offset="0.6223" stop-color="#363336" stop-opacity="0.622"/>
<stop offset="0.8763" stop-color="#252425" stop-opacity="0.876"/>
<stop offset="1" stop-color="#1A1A1A"/>
</linearGradient>
<linearGradient id="paint54_linear_132_3269" x1="17.2737" y1="30.1681" x2="17.2737" y2="45.7689" gradientUnits="userSpaceOnUse">
<stop stop-color="#FEF0AE"/>
<stop offset="1" stop-color="#FAC600"/>
</linearGradient>
<linearGradient id="paint55_linear_132_3269" x1="17.2737" y1="42.8756" x2="17.2737" y2="27.714" gradientUnits="userSpaceOnUse">
<stop stop-color="#FEF0AE"/>
<stop offset="1" stop-color="#FAC600"/>
</linearGradient>
<clipPath id="clip0_132_3269">
<rect width="48" height="48" fill="white"/>
</clipPath>
</defs>
</svg>
