<svg width="20" height="20" viewBox="0 0 20 20" fill="none" xmlns="http://www.w3.org/2000/svg">
<g clip-path="url(#clip0_333_7928)">
<path d="M15.6535 1.85638H13.3728C13.3122 1.33453 12.8676 0.92819 12.3297 0.92819H11.6856C11.3276 0.355987 10.6984 0 10.0093 0C9.32051 0 8.69109 0.355987 8.33235 0.92819H7.68874C7.15087 0.92819 6.70623 1.33453 6.64565 1.85638H4.36691C3.03589 1.85638 1.95312 2.93929 1.95312 4.27016V17.5863C1.95312 18.9172 3.03589 20 4.36691 20H15.6535C16.9844 20 18.0673 18.9172 18.0673 17.5863V4.27016C18.0673 2.93914 16.9845 1.85638 15.6535 1.85638ZM7.81051 2.10006H8.60503C8.89327 2.10006 9.15282 1.92886 9.26619 1.66382C9.39406 1.3649 9.68581 1.17187 10.0093 1.17187C10.3326 1.17187 10.6239 1.36459 10.751 1.66275C10.8642 1.9284 11.1239 2.10006 11.4126 2.10006H12.2079V3.71276H7.81051V2.10006ZM16.8954 17.5862C16.8954 18.271 16.3383 18.8281 15.6535 18.8281H4.36691C3.6821 18.8281 3.125 18.271 3.125 17.5862V4.27016C3.125 3.58535 3.6821 3.02825 4.36691 3.02825H6.63863V3.83468C6.63863 4.4136 7.10967 4.88463 7.68874 4.88463H12.3297C12.9088 4.88463 13.3798 4.4136 13.3798 3.83468V3.02825H15.6535C16.3383 3.02825 16.8954 3.58535 16.8954 4.27016V17.5862Z" fill="#7A7A01"/>
<path d="M8.79492 8.26953H14.9942C15.3179 8.26953 15.5802 8.00708 15.5802 7.68359C15.5802 7.35995 15.3179 7.09766 14.9942 7.09766H8.79492C8.47128 7.09766 8.20898 7.35995 8.20898 7.68359C8.20898 8.00708 8.47128 8.26953 8.79492 8.26953Z" fill="#7A7A01"/>
<path d="M5.12119 8.78012C5.24235 8.90127 5.40149 8.9617 5.56049 8.9617C5.71949 8.9617 5.87864 8.90127 5.99979 8.78012L7.37476 7.405C7.60364 7.17627 7.60364 6.80518 7.37476 6.57645C7.14603 6.34756 6.77494 6.34756 6.54621 6.57645L5.56049 7.56201L5.38013 7.38165C5.15125 7.15292 4.78031 7.15292 4.55143 7.38165C4.3227 7.61053 4.3227 7.98147 4.55143 8.21035L5.12119 8.78012Z" fill="#7A7A01"/>
<path d="M8.78174 12.4307H14.9812C15.3047 12.4307 15.5672 12.1682 15.5672 11.8447C15.5672 11.5211 15.3047 11.2588 14.9812 11.2588H8.78174C8.45825 11.2588 8.1958 11.5211 8.1958 11.8447C8.1958 12.1682 8.45825 12.4307 8.78174 12.4307Z" fill="#7A7A01"/>
<path d="M5.10812 12.9412C5.22546 13.0586 5.38141 13.1231 5.54742 13.1231H5.54788C5.71389 13.123 5.86999 13.0583 5.98657 12.9412L7.36169 11.5661C7.59057 11.3374 7.59057 10.9663 7.36169 10.7376C7.13296 10.5087 6.76187 10.5087 6.53314 10.7376L5.54742 11.7231L5.36691 11.5428C5.13818 11.3141 4.76724 11.3141 4.53836 11.5428C4.30948 11.7717 4.30948 12.1426 4.53836 12.3715L5.10812 12.9412Z" fill="#7A7A01"/>
<path d="M15.068 15.3784H8.86865C8.54501 15.3784 8.28271 15.6407 8.28271 15.9644C8.28271 16.288 8.54501 16.5503 8.86865 16.5503H15.068C15.3916 16.5503 15.6539 16.288 15.6539 15.9644C15.6539 15.6407 15.3916 15.3784 15.068 15.3784Z" fill="#7A7A01"/>
<path d="M6.62005 14.8577L5.63434 15.8434L5.45382 15.6631C5.22494 15.4342 4.85416 15.4342 4.62527 15.6631C4.39639 15.8918 4.39639 16.2629 4.62527 16.4918L5.19504 17.0614C5.31619 17.1825 5.47519 17.2431 5.63434 17.2431C5.79333 17.2431 5.95248 17.1825 6.07348 17.0614L7.4486 15.6864C7.67748 15.4575 7.67748 15.0866 7.4486 14.8577C7.21987 14.6288 6.84878 14.6288 6.62005 14.8577Z" fill="#7A7A01"/>
</g>
<defs>
<clipPath id="clip0_333_7928">
<rect width="20" height="20" fill="white"/>
</clipPath>
</defs>
</svg>
