<svg width="20" height="20" viewBox="0 0 20 20" fill="none" xmlns="http://www.w3.org/2000/svg">
<g clip-path="url(#clip0_277_1390)">
<path d="M2.34375 0H0V20H20V17.6562H2.34375V0Z" fill="#00512E"/>
<path d="M16.9138 0L17.6283 0.714453L13.9773 4.36543L10.5405 0.928711L3.51562 7.95363V11.2682L10.5405 4.24328L13.9773 7.68L19.2855 2.37172L20 3.08617V0H16.9138Z" fill="#00512E"/>
<path d="M18.0593 13.4273C18.5871 13.2736 18.973 12.7864 18.9739 12.2085C18.9729 11.5072 18.4049 10.939 17.7044 10.939C17.0039 10.939 16.436 11.5072 16.4349 12.2085C16.4358 12.7865 16.8218 13.2737 17.3495 13.4273C16.2502 13.5979 15.4088 14.5483 15.4088 15.6954C15.4088 14.5484 14.5674 13.5979 13.4682 13.4273C13.9959 13.2736 14.3819 12.7864 14.3827 12.2085C14.3817 11.5072 13.8138 10.939 13.1132 10.939C12.4127 10.939 11.8448 11.5072 11.8438 12.2085C11.8446 12.7865 12.2306 13.2737 12.7584 13.4273C11.6591 13.5979 10.8177 14.5483 10.8177 15.6954C10.8177 14.5484 9.97629 13.5979 8.87703 13.4273C9.40477 13.2736 9.79074 12.7864 9.7916 12.2085C9.79055 11.5072 9.22262 10.939 8.52211 10.939C7.8216 10.939 7.25367 11.5072 7.25262 12.2085C7.25352 12.7865 7.63949 13.2737 8.16723 13.4273C7.06797 13.5979 6.22656 14.5483 6.22656 15.6954V16.4844H20V15.6954C20 14.5483 19.1586 13.5979 18.0593 13.4273Z" fill="#00512E"/>
</g>
<defs>
<clipPath id="clip0_277_1390">
<rect width="20" height="20" fill="white"/>
</clipPath>
</defs>
</svg>
