<svg width="16" height="16" viewBox="0 0 16 16" fill="none" xmlns="http://www.w3.org/2000/svg">
<path d="M11.6187 0H4.38128C3.53347 0 2.84375 0.689719 2.84375 1.53753V14.4625C2.84375 15.3103 3.53347 16 4.38128 16H11.6187C12.4665 16 13.1562 15.3103 13.1562 14.4625V1.53753C13.1562 0.689719 12.4665 0 11.6187 0ZM6.35225 0.9375H9.64775V1.39209C9.64775 1.44691 9.60316 1.4915 9.54834 1.4915H6.45166C6.39684 1.4915 6.35225 1.44691 6.35225 1.39209V0.9375ZM12.2188 14.4625C12.2188 14.7933 11.9496 15.0625 11.6187 15.0625H4.38128C4.05041 15.0625 3.78125 14.7933 3.78125 14.4625V1.53753C3.78125 1.20666 4.05041 0.9375 4.38128 0.9375H5.41475V1.39209C5.41475 1.96384 5.87991 2.429 6.45166 2.429H9.54834C10.1201 2.429 10.5852 1.96384 10.5852 1.39209V0.9375H11.6187C11.9496 0.9375 12.2188 1.20666 12.2188 1.53753V14.4625Z" fill="#00512E"/>
<path d="M9.3921 13.3979H6.60791C6.34904 13.3979 6.13916 13.6078 6.13916 13.8667C6.13916 14.1256 6.34904 14.3354 6.60791 14.3354H9.3921C9.65097 14.3354 9.86085 14.1256 9.86085 13.8667C9.86085 13.6078 9.65097 13.3979 9.3921 13.3979Z" fill="#00512E"/>
</svg>
