<svg width="16" height="16" viewBox="0 0 16 16" fill="none" xmlns="http://www.w3.org/2000/svg">
<g clip-path="url(#clip0_132_4448)">
<path d="M10.2586 9.46949C10.1048 9.62342 9.74435 10.1417 9.59811 10.288C8.8304 11.0547 7.37569 9.77161 6.78609 9.18433L6.78426 9.1825C6.19686 8.5929 4.91329 7.13757 5.68099 6.36999C5.74459 6.3064 5.8929 6.19006 6.05916 6.06372C6.22029 5.94201 6.40242 5.80652 6.49898 5.70984C6.68673 5.52173 6.74617 5.2334 5.91402 4.40112C5.55538 4.03637 5.15279 4.18701 4.78926 4.54992C3.32356 6.01562 5.62654 8.94446 6.32369 9.64844C7.02413 10.3416 9.95284 12.6436 11.4187 11.1792C11.7788 10.819 11.9336 10.4136 11.5742 10.0614C10.7365 9.22412 10.4482 9.28186 10.2586 9.46949Z" fill="white"/>
<path d="M8.00001 -0.03125C3.60596 -0.03125 0 3.57471 0 7.96876C0 9.27199 0.351197 10.5587 0.958619 11.7027L0.0141602 15.3865C-0.0261231 15.5462 0.0209961 15.7151 0.137329 15.8314C0.255738 15.9497 0.42688 15.9943 0.582276 15.9545L4.266 15.01C5.40992 15.6176 6.69666 15.9688 8.00001 15.9688C12.3941 15.9688 16 12.3628 16 7.96876C16 3.57471 12.3941 -0.03125 8.00001 -0.03125ZM12.0814 11.8423C11.5353 12.3884 10.8884 12.6022 10.2151 12.6022C8.43531 12.6027 6.46693 11.1099 5.66077 10.3115C4.55714 9.19691 2.13697 5.87672 4.12635 3.88733C4.97584 3.0387 5.9474 3.09851 6.57728 3.73853C6.97498 4.13672 8.18678 5.34852 7.16175 6.37293C7.04322 6.49159 6.82301 6.66139 6.62574 6.81104C6.5044 6.90309 6.3932 6.98451 6.34425 7.0326C6.36305 7.18873 6.89076 7.96095 7.44789 8.52076C8.0077 9.07838 8.78138 9.60157 9.00746 9.58607C8.98414 9.57545 9.06556 9.46425 9.15761 9.34291C9.30739 9.14564 9.47719 8.92555 9.59572 8.8069C10.6193 7.78114 11.8314 8.9933 12.2301 9.39198C12.8627 10.0123 12.9444 10.9794 12.0814 11.8423Z" fill="white"/>
</g>
<defs>
<clipPath id="clip0_132_4448">
<rect width="16" height="16" fill="white"/>
</clipPath>
</defs>
</svg>
