<svg width="16" height="16" viewBox="0 0 16 16" fill="none" xmlns="http://www.w3.org/2000/svg">
<path d="M8 1.875C8.25891 1.875 8.46875 1.66516 8.46875 1.40625V0.46875C8.46875 0.209839 8.25891 0 8 0C7.74109 0 7.53125 0.209839 7.53125 0.46875V1.40625C7.53125 1.66516 7.74109 1.875 8 1.875Z" fill="#00512E"/>
<path d="M10.2064 2.67517L11.1439 1.73767C11.327 1.55457 11.327 1.25781 11.1439 1.07483C10.9609 0.891724 10.6641 0.891724 10.4811 1.07483L9.54358 2.01233C9.36047 2.19531 9.36047 2.49207 9.54358 2.67517C9.72656 2.85828 10.0234 2.85828 10.2064 2.67517Z" fill="#00512E"/>
<path d="M5.79358 2.67517C5.97656 2.85828 6.27344 2.85828 6.45642 2.67517C6.63953 2.49207 6.63953 2.19531 6.45642 2.01233L5.51892 1.07483C5.33594 0.891724 5.03918 0.891724 4.85608 1.07483C4.67297 1.25781 4.67297 1.55457 4.85608 1.73767L5.79358 2.67517Z" fill="#00512E"/>
<path d="M4.21875 6.625C4.21875 5.59106 3.37769 4.75 2.34375 4.75C1.30981 4.75 0.46875 5.59106 0.46875 6.625C0.46875 7.65894 1.30981 8.5 2.34375 8.5C3.37769 8.5 4.21875 7.65894 4.21875 6.625ZM2.34375 7.5625C1.82678 7.5625 1.40625 7.14197 1.40625 6.625C1.40625 6.10803 1.82678 5.6875 2.34375 5.6875C2.86072 5.6875 3.28125 6.10803 3.28125 6.625C3.28125 7.14197 2.86072 7.5625 2.34375 7.5625Z" fill="#00512E"/>
<path d="M15.5312 6.625C15.5312 5.59106 14.6902 4.75 13.6562 4.75C12.6223 4.75 11.7812 5.59106 11.7812 6.625C11.7812 7.65894 12.6223 8.5 13.6562 8.5C14.6902 8.5 15.5312 7.65894 15.5312 6.625ZM13.6562 7.5625C13.1393 7.5625 12.7188 7.14197 12.7188 6.625C12.7188 6.10803 13.1393 5.6875 13.6562 5.6875C14.1732 5.6875 14.5938 6.10803 14.5938 6.625C14.5938 7.14197 14.1732 7.5625 13.6562 7.5625Z" fill="#00512E"/>
<path d="M13.6562 8.5H12.7188C10.9232 8.5 9.40625 6.98303 9.40625 5.1875C9.40625 4.41211 8.77539 3.78125 8 3.78125C7.22461 3.78125 6.59375 4.41211 6.59375 5.1875C6.59375 6.98303 5.07678 8.5 3.28125 8.5H2.34375C1.05139 8.5 0 9.55139 0 10.8438V15.5313C0 15.7902 0.209839 16 0.46875 16H4.21875C4.47754 16 4.68738 15.7903 4.6875 15.5315L4.68994 11.148C5.94031 10.8496 7.07996 10.1519 7.93164 9.15576C7.95422 9.1294 7.97632 9.10266 7.99841 9.07593C8.85278 10.1077 10.02 10.8401 11.3101 11.1478L11.3125 15.5315C11.3126 15.7903 11.5225 16 11.7812 16H15.5312C15.7902 16 16 15.7902 16 15.5313V10.8438C16 9.55139 14.9486 8.5 13.6562 8.5ZM4.14331 10.303C3.91785 10.3411 3.75281 10.5363 3.75269 10.7649L3.75024 15.0625H0.9375V10.8438C0.9375 10.0684 1.56836 9.4375 2.34375 9.4375H3.28125C4.40649 9.4375 5.47107 8.99268 6.27869 8.18494C7.08643 7.37732 7.53125 6.31274 7.53125 5.1875C7.53125 4.92908 7.74158 4.71875 8 4.71875C8.25842 4.71875 8.46875 4.92908 8.46875 5.1875C8.46875 7.68726 6.60925 9.88648 4.14331 10.303ZM15.0625 15.0625H12.2498L12.2473 10.7649C12.2472 10.5363 12.0822 10.3411 11.8567 10.303C10.5503 10.0823 9.36414 9.34888 8.56042 8.2749C8.74658 7.95862 8.90356 7.62732 9.02991 7.28528C9.2168 7.60938 9.44824 7.91187 9.72131 8.18506C10.5289 8.99268 11.5935 9.4375 12.7188 9.4375H13.6562C14.4316 9.4375 15.0625 10.0684 15.0625 10.8438V15.0625Z" fill="#00512E"/>
</svg>
