<svg width="42" height="42" viewBox="0 0 42 42" fill="none" xmlns="http://www.w3.org/2000/svg">
<path d="M40.7695 14.8477H36.9961C36.9961 14.4497 36.9961 2.15396 36.9961 1.23047C36.9961 0.550827 36.4453 0 35.7656 0H28.3828C27.7032 0 27.1523 0.550827 27.1523 1.23047V2.46094H18.5391C18.0853 2.46094 17.6684 2.71088 17.4541 3.11078C17.24 3.511 17.2634 3.99646 17.5153 4.37393L19.5212 7.38281L17.5153 10.3917C17.2637 10.7692 17.24 11.2546 17.4541 11.6548C17.6684 12.0547 18.0853 12.3047 18.5391 12.3047H28.3828C29.0625 12.3047 29.6133 11.7535 29.6133 11.0742V9.84375H34.5352V14.8477H30.8438C30.1644 14.8477 29.6133 15.3985 29.6133 16.0781V19.7695H21C20.3204 19.7695 19.7695 20.3204 19.7695 21V24.6914H11.1562C10.4766 24.6914 9.92578 25.2422 9.92578 25.9219V32.0742H1.23047C0.550827 32.0742 0 32.625 0 33.3047V40.7695C0 41.4489 0.550827 42 1.23047 42H40.7695C40.9394 42 41.1012 41.9654 41.2486 41.9032C41.6901 41.7164 42 41.2793 42 40.7695V16.0781C42 15.3985 41.4492 14.8477 40.7695 14.8477ZM27.1523 9.84375H20.8382L22.0238 8.06534C22.2994 7.65198 22.2994 7.11365 22.0238 6.70029L20.8382 4.92188H27.1523V9.84375ZM29.6133 7.38281V2.46094H34.5352V7.38281H29.6133ZM32.0742 17.3086H39.5391V39.5391H32.0742V17.3086ZM22.2305 22.2305H29.6133V39.5391H22.2305V22.2305ZM12.3867 27.1523H19.7695V39.5391H12.3867V27.1523ZM2.46094 34.5352H9.92578V39.5391H2.46094V34.5352Z" fill="#00512E"/>
</svg>
