<svg width="16" height="16" viewBox="0 0 16 16" fill="none" xmlns="http://www.w3.org/2000/svg">
<mask id="path-1-inside-1_591_4280" fill="white">
<path d="M7.88599 7.70726C8.94482 7.70726 9.86157 7.3275 10.6108 6.57823C11.3599 5.82909 11.7397 4.91247 11.7397 3.85351C11.7397 2.79492 11.36 1.87817 10.6107 1.12878C9.86145 0.37976 8.9447 0 7.88599 0C6.82703 0 5.9104 0.37976 5.16125 1.1289C4.41211 1.87805 4.03223 2.79479 4.03223 3.85351C4.03223 4.91247 4.41211 5.82921 5.16125 6.57836C5.91064 7.32738 6.82739 7.70726 7.88599 7.70726ZM5.82434 1.79187C6.39917 1.21704 7.07349 0.93762 7.88599 0.93762C8.69836 0.93762 9.3728 1.21704 9.94775 1.79187C10.5226 2.36682 10.8021 3.04125 10.8021 3.85351C10.8021 4.66601 10.5226 5.34032 9.94775 5.91527C9.3728 6.49022 8.69836 6.76964 7.88599 6.76964C7.07373 6.76964 6.39941 6.4901 5.82434 5.91527C5.24939 5.34044 4.96985 4.66601 4.96985 3.85351C4.96985 3.04125 5.24939 2.36682 5.82434 1.79187Z"/>
</mask>
<path d="M7.88599 7.70726C8.94482 7.70726 9.86157 7.3275 10.6108 6.57823C11.3599 5.82909 11.7397 4.91247 11.7397 3.85351C11.7397 2.79492 11.36 1.87817 10.6107 1.12878C9.86145 0.37976 8.9447 0 7.88599 0C6.82703 0 5.9104 0.37976 5.16125 1.1289C4.41211 1.87805 4.03223 2.79479 4.03223 3.85351C4.03223 4.91247 4.41211 5.82921 5.16125 6.57836C5.91064 7.32738 6.82739 7.70726 7.88599 7.70726ZM5.82434 1.79187C6.39917 1.21704 7.07349 0.93762 7.88599 0.93762C8.69836 0.93762 9.3728 1.21704 9.94775 1.79187C10.5226 2.36682 10.8021 3.04125 10.8021 3.85351C10.8021 4.66601 10.5226 5.34032 9.94775 5.91527C9.3728 6.49022 8.69836 6.76964 7.88599 6.76964C7.07373 6.76964 6.39941 6.4901 5.82434 5.91527C5.24939 5.34044 4.96985 4.66601 4.96985 3.85351C4.96985 3.04125 5.24939 2.36682 5.82434 1.79187Z" fill="white"/>
<path d="M10.6108 6.57823L11.3179 7.28534L11.318 7.28528L10.6108 6.57823ZM10.6107 1.12878L11.3179 0.421732L11.3177 0.421559L10.6107 1.12878ZM5.16125 6.57836L4.45415 7.28546L4.45432 7.28564L5.16125 6.57836ZM9.94775 1.79187L10.6549 1.08483L10.6548 1.08468L9.94775 1.79187ZM9.94775 5.91527L10.6549 6.62238L10.6549 6.6223L9.94775 5.91527ZM5.82434 5.91527L5.11731 6.62245L5.11738 6.62253L5.82434 5.91527ZM7.88599 7.70726V8.70726C9.21017 8.70726 10.3812 8.22205 11.3179 7.28534L10.6108 6.57823L9.90373 5.87113C9.34191 6.43295 8.67948 6.70726 7.88599 6.70726V7.70726ZM10.6108 6.57823L11.318 7.28528C12.2544 6.34877 12.7397 5.17788 12.7397 3.85351H11.7397H10.7397C10.7397 4.64705 10.4654 5.30941 9.90368 5.87118L10.6108 6.57823ZM11.7397 3.85351H12.7397C12.7397 2.52952 12.2545 1.35851 11.3179 0.421732L10.6107 1.12878L9.90355 1.83583C10.4655 2.39784 10.7397 3.06031 10.7397 3.85351H11.7397ZM10.6107 1.12878L11.3177 0.421559C10.381 -0.514799 9.21004 -1 7.88599 -1V0V1C8.67936 1 9.34186 1.27432 9.90373 1.836L10.6107 1.12878ZM7.88599 0V-1C6.56169 -1 5.39074 -0.514796 4.45415 0.421797L5.16125 1.1289L5.86836 1.83601C6.43006 1.27432 7.09237 1 7.88599 1V0ZM5.16125 1.1289L4.45415 0.421797C3.51761 1.35833 3.03223 2.52937 3.03223 3.85351H4.03223H5.03223C5.03223 3.06022 5.30661 2.39777 5.86836 1.83601L5.16125 1.1289ZM4.03223 3.85351H3.03223C3.03223 5.17786 3.51759 6.34891 4.45415 7.28546L5.16125 6.57836L5.86836 5.87125C5.30663 5.30952 5.03223 4.64708 5.03223 3.85351H4.03223ZM5.16125 6.57836L4.45432 7.28564C5.391 8.22186 6.56194 8.70726 7.88599 8.70726V7.70726V6.70726C7.09285 6.70726 6.43029 6.4329 5.86819 5.87108L5.16125 6.57836ZM5.82434 1.79187L6.53145 2.49897C6.91887 2.11156 7.33888 1.93762 7.88599 1.93762V0.93762V-0.0623797C6.80809 -0.0623797 5.87947 0.322521 5.11723 1.08476L5.82434 1.79187ZM7.88599 0.93762V1.93762C8.43298 1.93762 8.85315 2.11156 9.24072 2.49905L9.94775 1.79187L10.6548 1.08468C9.89245 0.322513 8.96375 -0.0623797 7.88599 -0.0623797V0.93762ZM9.94775 1.79187L9.24057 2.4989C9.62815 2.88656 9.80212 3.30678 9.80212 3.85351H10.8021H11.8021C11.8021 2.77573 11.417 1.84707 10.6549 1.08483L9.94775 1.79187ZM10.8021 3.85351H9.80212C9.80212 4.40049 9.62815 4.82058 9.24057 5.20824L9.94775 5.91527L10.6549 6.6223C11.417 5.86007 11.8021 4.93153 11.8021 3.85351H10.8021ZM9.94775 5.91527L9.24065 5.20816C8.8531 5.59571 8.43296 5.76964 7.88599 5.76964V6.76964V7.76964C8.96377 7.76964 9.8925 7.38473 10.6549 6.62238L9.94775 5.91527ZM7.88599 6.76964V5.76964C7.33931 5.76964 6.91916 5.59571 6.5313 5.20801L5.82434 5.91527L5.11738 6.62253C5.87967 7.38449 6.80815 7.76964 7.88599 7.76964V6.76964ZM5.82434 5.91527L6.53137 5.20809C6.14385 4.82065 5.96985 4.40053 5.96985 3.85351H4.96985H3.96985C3.96985 4.93148 4.35493 5.86024 5.11731 6.62245L5.82434 5.91527ZM4.96985 3.85351H5.96985C5.96985 3.30679 6.14381 2.88661 6.53145 2.49897L5.82434 1.79187L5.11723 1.08476C4.35497 1.84702 3.96985 2.77572 3.96985 3.85351H4.96985Z" fill="white" mask="url(#path-1-inside-1_591_4280)"/>
<path d="M14.629 12.3032C14.6074 11.9914 14.5637 11.6513 14.4994 11.2922C14.4344 10.9304 14.3508 10.5884 14.2507 10.2757C14.1472 9.95262 14.0067 9.63353 13.8328 9.32774C13.6525 9.01036 13.4406 8.73399 13.2028 8.50658C12.9541 8.26866 12.6497 8.07738 12.2976 7.93785C11.9468 7.79906 11.558 7.72874 11.1421 7.72874C10.9788 7.72874 10.8208 7.79576 10.5157 7.99437C10.328 8.11681 10.1084 8.25841 9.86328 8.41502C9.65369 8.54857 9.36975 8.67369 9.01904 8.78697C8.67688 8.89769 8.32947 8.95384 7.98645 8.95384C7.64368 8.95384 7.29626 8.89769 6.95386 8.78697C6.60352 8.67381 6.31946 8.54869 6.11023 8.41514C5.86743 8.25999 5.64771 8.11839 5.45715 7.99425C5.15234 7.79564 4.99438 7.72862 4.83105 7.72862C4.41504 7.72862 4.02637 7.79906 3.67566 7.93797C3.32385 8.07725 3.01929 8.26854 2.77039 8.5067C2.53259 8.73424 2.32068 9.01048 2.1405 9.32774C1.9668 9.63353 1.82617 9.9525 1.72266 10.2759C1.62268 10.5885 1.53906 10.9304 1.47412 11.2922C1.40967 11.6509 1.36609 11.9911 1.34448 12.3036C1.32324 12.6091 1.3125 12.9271 1.3125 13.2484C1.3125 14.0836 1.578 14.7597 2.10156 15.2584C2.61865 15.7505 3.30273 16 4.13489 16H11.839C12.6709 16 13.355 15.7505 13.8722 15.2584C14.3959 14.7601 14.6614 14.0837 14.6614 13.2483C14.6613 12.9259 14.6504 12.6079 14.629 12.3032ZM13.2257 14.5791C12.884 14.9043 12.4304 15.0623 11.8389 15.0623H4.13489C3.54321 15.0623 3.0896 14.9043 2.74805 14.5792C2.41296 14.2602 2.25012 13.8248 2.25012 13.2484C2.25012 12.9486 2.26001 12.6526 2.27979 12.3684C2.29907 12.0896 2.3385 11.7833 2.39697 11.4579C2.45471 11.1365 2.5282 10.8348 2.6156 10.5617C2.69946 10.2999 2.81384 10.0406 2.95569 9.79087C3.09106 9.55284 3.24683 9.34861 3.4187 9.18406C3.57947 9.03013 3.7821 8.90416 4.02087 8.80967C4.2417 8.72227 4.48987 8.67442 4.75928 8.66722C4.79211 8.68468 4.85059 8.718 4.94531 8.77977C5.13806 8.90538 5.36023 9.04869 5.60583 9.20555C5.88269 9.38206 6.23938 9.54149 6.66553 9.67906C7.1012 9.81993 7.54553 9.89146 7.98657 9.89146C8.42761 9.89146 8.87207 9.81993 9.3075 9.67918C9.73401 9.54136 10.0906 9.38206 10.3678 9.2053C10.6191 9.04466 10.8351 8.9055 11.0278 8.77977C11.1226 8.71812 11.181 8.68468 11.2139 8.66722C11.4834 8.67442 11.7316 8.72227 11.9525 8.80967C12.1912 8.90416 12.3938 9.03026 12.5546 9.18406C12.7264 9.34849 12.8822 9.55272 13.0176 9.791C13.1595 10.0406 13.274 10.3 13.3578 10.5616C13.4453 10.8351 13.5189 11.1366 13.5765 11.4577C13.6349 11.7838 13.6744 12.0902 13.6937 12.3685V12.3688C13.7136 12.6518 13.7236 12.9477 13.7238 13.2484C13.7236 13.8249 13.5608 14.2602 13.2257 14.5791Z" fill="white"/>
</svg>
