<svg width="16" height="16" viewBox="0 0 16 16" fill="none" xmlns="http://www.w3.org/2000/svg">
<g clip-path="url(#clip0_132_4591)">
<path fill-rule="evenodd" clip-rule="evenodd" d="M7.95444 0.251953C3.68177 0.251953 0.210693 3.72311 0.210693 7.99579C0.210693 12.2685 3.68177 15.7394 7.95444 15.7394C12.2271 15.7394 15.6982 12.2685 15.6982 7.99579C15.6982 3.7231 12.2271 0.251953 7.95444 0.251953ZM12.5901 10.4988C12.5372 10.6274 12.2876 10.8088 11.4104 10.9451C11.3348 10.96 11.3121 11.0508 11.2667 11.2476C11.2526 11.319 11.235 11.3896 11.2138 11.4593C11.1911 11.5272 11.1533 11.5575 11.0852 11.5575H11.0776C11.0111 11.556 10.945 11.5458 10.881 11.5272C10.7063 11.4953 10.5293 11.4777 10.3517 11.4744C10.225 11.4735 10.0985 11.4836 9.97355 11.5045C9.70886 11.55 9.48956 11.7088 9.24758 11.8752C8.90726 12.1172 8.55186 12.3667 7.99981 12.3667H7.87882C7.32676 12.3667 6.97135 12.1172 6.63105 11.8752C6.39662 11.7088 6.16975 11.55 5.90507 11.5045C5.78014 11.4836 5.65363 11.4735 5.52695 11.4744C5.34896 11.4775 5.17169 11.4978 4.99759 11.5349C4.93305 11.5507 4.86725 11.5607 4.80095 11.565C4.77012 11.5684 4.73913 11.5602 4.71399 11.5421C4.68885 11.5239 4.67133 11.4971 4.66485 11.4667C4.64215 11.3911 4.62703 11.3155 4.61189 11.2476C4.57408 11.066 4.54386 10.96 4.46823 10.9451C3.59099 10.8088 3.34145 10.6274 3.2885 10.4988C3.27994 10.4797 3.27483 10.4592 3.27339 10.4384C3.27287 10.4146 3.28105 10.3916 3.29637 10.3735C3.31169 10.3554 3.3331 10.3435 3.35657 10.3401C4.70266 10.1132 5.30764 8.73685 5.33032 8.67639H5.3379C5.42108 8.50998 5.43619 8.35873 5.38327 8.2453C5.2925 8.02591 4.99001 7.92764 4.7934 7.86718C4.7473 7.8543 4.70187 7.83912 4.6573 7.82167C4.25648 7.66295 4.22623 7.50423 4.24136 7.42092C4.27159 7.27736 4.45309 7.17888 4.61189 7.17888C4.64846 7.17837 4.68466 7.18619 4.71776 7.20174C4.89926 7.28484 5.05808 7.33013 5.1942 7.33013C5.39081 7.33013 5.47399 7.24703 5.48155 7.23955C5.48155 7.14876 5.47399 7.05049 5.46643 6.95201C5.42862 6.31691 5.3757 5.52287 5.57987 5.06914C6.18485 3.71541 7.46288 3.60967 7.84099 3.60967H8.03005C8.40818 3.60967 9.69375 3.71541 10.2987 5.06914C10.5029 5.52289 10.45 6.31691 10.4122 6.95201V6.98235C10.4046 7.06545 10.397 7.15624 10.397 7.23955C10.4046 7.24703 10.4802 7.32265 10.6542 7.33013C10.7903 7.32265 10.9415 7.27736 11.1079 7.20174C11.1533 7.18222 11.2021 7.17191 11.2516 7.1714C11.3066 7.17229 11.3608 7.18519 11.4104 7.20922H11.4179C11.5465 7.2545 11.6372 7.35298 11.6372 7.45125C11.6448 7.54204 11.5692 7.68559 11.2213 7.82167C11.1835 7.83684 11.1381 7.85201 11.0928 7.86718C10.8886 7.92763 10.5861 8.0259 10.4953 8.2453C10.4424 8.35874 10.4575 8.50999 10.5407 8.67639H10.5483C10.571 8.73685 11.1759 10.1132 12.522 10.3401C12.5455 10.3435 12.5669 10.3554 12.5822 10.3735C12.5976 10.3916 12.6057 10.4146 12.6052 10.4384C12.6038 10.4592 12.5987 10.4797 12.5901 10.4988Z" fill="white"/>
</g>
<defs>
<clipPath id="clip0_132_4591">
<rect width="16" height="16" fill="white"/>
</clipPath>
</defs>
</svg>
