<svg width="20" height="20" viewBox="0 0 20 20" fill="none" xmlns="http://www.w3.org/2000/svg">
<path d="M15.0208 3.76562H1.84117C0.812344 3.76562 0 4.60117 0 5.60676V8.74477V14.3932C0 14.7168 0.262344 14.9791 0.585938 14.9791H2.60656C2.85195 15.7079 3.54121 16.2344 4.35156 16.2344C5.16191 16.2344 5.85117 15.7079 6.09652 14.9792H13.9034C14.1488 15.7079 14.838 16.2344 15.6484 16.2344C16.4587 16.2344 17.148 15.7079 17.3934 14.9792H19.4141C19.7377 14.9792 20 14.7168 20 14.3932V10.6276V8.7448C20 5.99926 17.7663 3.76562 15.0208 3.76562ZM18.8281 8.7448V9.81469L14.3516 8.3225V4.9375H15.0208C17.1202 4.9375 18.8281 6.64547 18.8281 8.7448ZM13.1797 8.15887H9.95832V4.9375H13.1797V8.15887ZM8.78648 8.15887H5.56512V4.9375H8.78648V8.15887ZM1.17188 5.60676C1.17188 5.24246 1.46633 4.9375 1.84117 4.9375H4.39324V8.15887H1.17188V5.60676ZM4.35156 15.0625C3.98254 15.0625 3.68227 14.7623 3.68227 14.3932C3.68227 14.0242 3.98254 13.724 4.35156 13.724C4.72059 13.724 5.02082 14.0242 5.02082 14.3932C5.02082 14.7623 4.72062 15.0625 4.35156 15.0625ZM15.6484 15.0625C15.2794 15.0625 14.9792 14.7623 14.9792 14.3932C14.9792 14.0242 15.2794 13.724 15.6484 13.724C16.0175 13.724 16.3177 14.0242 16.3177 14.3932C16.3177 14.7623 16.0175 15.0625 15.6484 15.0625ZM17.3934 13.8073C17.1481 13.0786 16.4588 12.5521 15.6484 12.5521C14.8381 12.5521 14.1488 13.0786 13.9035 13.8073H6.09656C5.85121 13.0786 5.16195 12.5521 4.3516 12.5521C3.54125 12.5521 2.85195 13.0786 2.6066 13.8073H1.17188V9.33074H4.97918H9.37242H13.6705L18.8281 11.0499V13.8073H17.3934V13.8073Z" fill="#7A7A01"/>
</svg>
