<svg width="20" height="20" viewBox="0 0 20 20" fill="none" xmlns="http://www.w3.org/2000/svg">
<g clip-path="url(#clip0_333_7914)">
<path d="M18.8648 0H5.82266C5.19672 0 4.6875 0.509219 4.6875 1.13516V7.57816H4.21875C3.89516 7.57816 3.63281 7.84051 3.63281 8.1641C3.63281 8.4877 3.89516 8.75004 4.21875 8.75004H4.6875V9.48586C3.86371 9.57734 3.09648 9.85902 2.43117 10.2864C2.43066 10.2857 2.43031 10.285 2.4298 10.2843L2.1332 9.86938L2.14496 9.86125C2.41086 9.6768 2.47695 9.31176 2.2925 9.04586C2.10809 8.77988 1.74305 8.71391 1.47711 8.89828L0.478398 9.5909C0.2125 9.77535 0.146406 10.1404 0.330859 10.4063C0.444648 10.5704 0.627227 10.6584 0.812852 10.6584C0.928047 10.6584 1.04441 10.6245 1.14625 10.5539L1.17016 10.5373L1.47648 10.9657C1.49102 10.9861 1.50668 11.0052 1.5232 11.0231C0.581992 11.9761 0 13.2845 0 14.7266C0 17.6343 2.36566 20 5.27344 20C8.02324 20 10.2878 17.8843 10.5258 15.1953H18.8649C19.4908 15.1953 20 14.6861 20 14.0601V1.13516C20 0.509219 19.4908 0 18.8648 0ZM18.8281 2.34375H17.6562V1.17188H18.8281V2.34375ZM16.4843 1.17188V2.34375H5.85938V1.17188H16.4843ZM7.62871 12.3713C7.74312 12.4857 7.89309 12.5429 8.04305 12.5429C8.19297 12.5429 8.34297 12.4857 8.45734 12.3713L8.55711 12.2715C8.95949 12.8083 9.23328 13.4467 9.33297 14.1406H9.19027C8.86668 14.1406 8.60434 14.403 8.60434 14.7266C8.60434 15.0502 8.86668 15.3125 9.19027 15.3125H9.33297C9.23328 16.0064 8.95953 16.6448 8.55711 17.1816L8.45734 17.0819C8.22852 16.8531 7.85754 16.8531 7.62871 17.0819C7.39992 17.3107 7.39992 17.6817 7.62871 17.9105L7.72848 18.0103C7.19164 18.4127 6.55324 18.6864 5.85934 18.7861V18.6434C5.85934 18.3198 5.59699 18.0575 5.2734 18.0575C4.9498 18.0575 4.68746 18.3198 4.68746 18.6434V18.7861C3.99359 18.6864 3.3552 18.4127 2.81836 18.0102L2.91813 17.9105C3.14695 17.6817 3.14695 17.3107 2.91813 17.0819C2.68934 16.8531 2.31832 16.8531 2.08949 17.0819L1.98973 17.1816C1.58734 16.6448 1.31359 16.0064 1.21391 15.3125H1.3566C1.6802 15.3125 1.94254 15.0502 1.94254 14.7266C1.94254 14.403 1.6802 14.1406 1.3566 14.1406H1.21391C1.31359 13.4468 1.58734 12.8084 1.98977 12.2715L2.08953 12.3713C2.20395 12.4857 2.35391 12.5429 2.50383 12.5429C2.65375 12.5429 2.80375 12.4857 2.91813 12.3713C3.14695 12.1425 3.14695 11.7714 2.91813 11.5426L2.81836 11.4429C3.3552 11.0405 3.99359 10.7667 4.68746 10.667V10.8097C4.68746 11.1333 4.9498 11.3956 5.2734 11.3956C5.59699 11.3956 5.85934 11.1333 5.85934 10.8097V10.667C6.5532 10.7667 7.1916 11.0405 7.72848 11.4429L7.62871 11.5426C7.39992 11.7714 7.39992 12.1424 7.62871 12.3713ZM10.4999 14.0234C10.1824 11.651 8.28156 9.77301 5.89844 9.49031V8.79055C5.89844 8.77687 5.8973 8.76348 5.89641 8.75004H6.40625C6.72984 8.75004 6.99219 8.4877 6.99219 8.1641C6.99219 7.84051 6.72984 7.57816 6.40625 7.57816H5.85938V3.51562H18.8281V14.0234H10.4999Z" fill="#7A7A01"/>
<path d="M9.73705 4.86886L9.29791 5.30796C9.0683 5.13452 8.74014 5.15249 8.531 5.36171C8.30217 5.5905 8.30217 5.96151 8.531 6.19034L8.8876 6.54694C9.00201 6.66136 9.15197 6.71858 9.30189 6.71858C9.45182 6.71858 9.60182 6.66136 9.71619 6.54694L10.5656 5.69749C10.7945 5.4687 10.7945 5.09769 10.5656 4.86886C10.3369 4.64007 9.96584 4.64007 9.73705 4.86886Z" fill="#7A7A01"/>
<path d="M16.7969 5.12207H12.5C12.1764 5.12207 11.9141 5.38441 11.9141 5.70801C11.9141 6.0316 12.1764 6.29395 12.5 6.29395H16.7969C17.1205 6.29395 17.3828 6.0316 17.3828 5.70801C17.3828 5.38441 17.1205 5.12207 16.7969 5.12207Z" fill="#7A7A01"/>
<path d="M9.73705 8.06225L9.29791 8.50135C9.0683 8.32795 8.74014 8.34588 8.531 8.5551C8.30217 8.78389 8.30217 9.1549 8.531 9.38373L8.8876 9.74033C9.00201 9.85475 9.15197 9.91197 9.30189 9.91197C9.45182 9.91197 9.60182 9.85475 9.71619 9.74033L10.5656 8.89088C10.7945 8.66209 10.7945 8.29107 10.5656 8.06225C10.3369 7.83342 9.96584 7.83342 9.73705 8.06225Z" fill="#7A7A01"/>
<path d="M16.7969 7.89062H12.5C12.1764 7.89062 11.9141 8.15297 11.9141 8.47656C11.9141 8.80016 12.1764 9.0625 12.5 9.0625H16.7969C17.1205 9.0625 17.3828 8.80016 17.3828 8.47656C17.3828 8.15297 17.1205 7.89062 16.7969 7.89062Z" fill="#7A7A01"/>
<path d="M14.6484 10.2344H12.5C12.1764 10.2344 11.9141 10.4967 11.9141 10.8203C11.9141 11.1439 12.1764 11.4062 12.5 11.4062H14.6484C14.972 11.4062 15.2344 11.1439 15.2344 10.8203C15.2344 10.4967 14.972 10.2344 14.6484 10.2344Z" fill="#7A7A01"/>
<path d="M5.85938 14.4837V12.9971C5.85938 12.6735 5.59703 12.4111 5.27344 12.4111C4.94984 12.4111 4.6875 12.6735 4.6875 12.9971V14.7264C4.6875 14.8819 4.74926 15.0309 4.85914 15.1407L5.97242 16.254C6.08684 16.3684 6.2368 16.4257 6.38672 16.4257C6.53664 16.4257 6.68664 16.3684 6.80102 16.254C7.02984 16.0252 7.02984 15.6542 6.80102 15.4254L5.85938 14.4837Z" fill="#7A7A01"/>
</g>
<defs>
<clipPath id="clip0_333_7914">
<rect width="20" height="20" fill="white"/>
</clipPath>
</defs>
</svg>
