<svg width="16" height="16" viewBox="0 0 16 16" fill="none" xmlns="http://www.w3.org/2000/svg">
<g clip-path="url(#clip0_132_4578)">
<path d="M6.89062 9.29053L9.10957 8.00316L6.89062 6.70947V9.29053Z" fill="white"/>
<path d="M8 0C6.41775 0 4.87103 0.469192 3.55544 1.34824C2.23985 2.22729 1.21447 3.47672 0.608967 4.93853C0.00346625 6.40034 -0.15496 8.00887 0.153721 9.56072C0.462403 11.1126 1.22433 12.538 2.34315 13.6569C3.46197 14.7757 4.88743 15.5376 6.43928 15.8463C7.99113 16.155 9.59966 15.9965 11.0615 15.391C12.5233 14.7855 13.7727 13.7602 14.6518 12.4446C15.5308 11.129 16 9.58225 16 8C16 5.87827 15.1571 3.84344 13.6569 2.34315C12.1566 0.842855 10.1217 0 8 0ZM12.2105 9.41579C12.2107 9.62503 12.1696 9.83224 12.0896 10.0256C12.0096 10.2189 11.8923 10.3946 11.7444 10.5426C11.5965 10.6906 11.4209 10.808 11.2276 10.8881C11.0343 10.9682 10.8271 11.0095 10.6179 11.0095H5.38211C5.17287 11.0095 4.96569 10.9682 4.77239 10.8881C4.5791 10.808 4.40348 10.6906 4.25558 10.5426C4.10767 10.3946 3.99038 10.2189 3.91041 10.0256C3.83043 9.83224 3.78934 9.62503 3.78948 9.41579V6.58421C3.78934 6.37498 3.83043 6.16776 3.91041 5.97441C3.99038 5.78107 4.10767 5.60537 4.25558 5.45737C4.40348 5.30937 4.5791 5.19196 4.77239 5.11186C4.96569 5.03176 5.17287 4.99053 5.38211 4.99053H10.6179C10.8271 4.99053 11.0343 5.03176 11.2276 5.11186C11.4209 5.19196 11.5965 5.30937 11.7444 5.45737C11.8923 5.60537 12.0096 5.78107 12.0896 5.97441C12.1696 6.16776 12.2107 6.37498 12.2105 6.58421V9.41579Z" fill="white"/>
</g>
<defs>
<clipPath id="clip0_132_4578">
<rect width="16" height="16" fill="white"/>
</clipPath>
</defs>
</svg>
