<svg width="16" height="16" viewBox="0 0 16 16" fill="none" xmlns="http://www.w3.org/2000/svg">
<g clip-path="url(#clip0_132_4585)">
<path d="M13.1382 15.7273C9.72363 16.0916 6.28001 16.0916 2.86546 15.7273C2.20238 15.6573 1.58334 15.3621 1.11154 14.8909C0.639737 14.4198 0.343681 13.8012 0.272729 13.1382C-0.0915607 9.72363 -0.0915607 6.28001 0.272729 2.86546C0.342751 2.20238 0.637938 1.58334 1.10908 1.11154C1.58022 0.639737 2.19884 0.343681 2.86182 0.272729C6.27637 -0.0915607 9.71999 -0.0915607 13.1345 0.272729C13.7976 0.342751 14.4167 0.637938 14.8885 1.10908C15.3603 1.58022 15.6563 2.19884 15.7273 2.86182C16.0916 6.27637 16.0916 9.71999 15.7273 13.1345C15.6573 13.7976 15.3621 14.4167 14.8909 14.8885C14.4198 15.3603 13.8012 15.6563 13.1382 15.7273Z" fill="white"/>
<path d="M6.79369 13C5.94741 13 5.13579 12.6638 4.53738 12.0654C3.93897 11.467 3.60278 10.6554 3.60278 9.80909C3.60278 8.96281 3.93897 8.15119 4.53738 7.55278C5.13579 6.95437 5.94741 6.61818 6.79369 6.61818H7.57278V8.17545H6.79369C6.47005 8.17545 6.15368 8.27143 5.88458 8.45123C5.61548 8.63104 5.40574 8.8866 5.28189 9.18561C5.15804 9.48462 5.12563 9.81363 5.18877 10.1311C5.25191 10.4485 5.40776 10.7401 5.63661 10.9689C5.86546 11.1978 6.15703 11.3536 6.47445 11.4167C6.79188 11.4799 7.1209 11.4475 7.4199 11.3236C7.71891 11.1998 7.97447 10.99 8.15428 10.7209C8.33408 10.4518 8.43006 10.1355 8.43006 9.81182V3H9.98733V3.77818C9.98733 4.21217 10.1597 4.62839 10.4666 4.93527C10.7735 5.24214 11.1897 5.41455 11.6237 5.41455H12.4028V6.96909H11.6182C11.0415 6.96992 10.4756 6.81272 9.98187 6.51455V9.80909C9.98115 10.6547 9.64511 11.4655 9.04745 12.0636C8.44978 12.6618 7.63928 12.9986 6.79369 13Z" fill="#00512E"/>
</g>
<defs>
<clipPath id="clip0_132_4585">
<rect width="16" height="16" fill="white"/>
</clipPath>
</defs>
</svg>
