<svg width="20" height="20" viewBox="0 0 20 20" fill="none" xmlns="http://www.w3.org/2000/svg">
<g clip-path="url(#clip0_277_3000)">
<path d="M19.4852 0.514863C18.7987 -0.171621 17.6857 -0.171621 16.9992 0.514863L13.9203 3.59377H12.9519C11.5585 3.59377 10.2387 4.07209 9.17969 4.95064C8.12059 4.07209 6.80086 3.59377 5.4075 3.59377H2.92969C2.60609 3.59377 2.34375 3.85611 2.34375 4.17971V5.15627H0.585937C0.262344 5.15627 0 5.41861 0 5.74221V19.4141C0 19.7377 0.262344 20 0.585937 20H17.7734C18.097 20 18.3594 19.7377 18.3594 19.4141V5.74221C18.3594 5.41861 18.097 5.15627 17.7734 5.15627H17.3296L19.4851 3.0008C20.1716 2.31432 20.1716 1.20135 19.4852 0.514863ZM1.17187 18.8281V6.32814H2.34375V17.0703C2.34375 17.3939 2.60609 17.6563 2.92969 17.6563H4.46445C5.77371 17.6563 7.01965 18.0674 8.05535 18.8281H1.17187ZM8.59375 17.7735C8.17227 17.4816 7.72004 17.2352 7.24051 17.0366C6.35594 16.6702 5.42191 16.4844 4.46445 16.4844H3.51562V4.76564H5.4075C6.59664 4.76564 7.71906 5.19975 8.59375 5.99307V17.7735ZM16.3087 2.86268L17.1373 3.69131L12.7179 8.11076L11.8893 7.28209L16.3087 2.86268ZM9.76562 5.99307C10.5891 5.24619 11.6322 4.81783 12.7439 4.77021L10.6463 6.86779C10.5966 6.91748 10.5562 6.97568 10.5272 7.03967L9.76562 8.71514V5.99307ZM11.7057 8.75584L10.8595 9.14049L11.2441 8.29428L11.7057 8.75584ZM9.76562 10.9009C9.81734 10.8927 9.86973 10.8776 9.92203 10.8538L12.9604 9.47279C13.0243 9.44373 13.0825 9.40338 13.1322 9.35369L14.8437 7.64217V16.4844H13.8949C12.9374 16.4844 12.0034 16.6702 11.1188 17.0366C10.6393 17.2352 10.1871 17.4816 9.76558 17.7735V10.9009H9.76562ZM17.1875 18.8281H10.304C11.3397 18.0674 12.5857 17.6563 13.8949 17.6563H15.4297C15.7533 17.6563 16.0156 17.3939 16.0156 17.0703V6.47029L16.1578 6.32814H17.1875V18.8281ZM18.6565 2.17213L17.9659 2.86268L17.1373 2.03404L17.8279 1.3435C18.0567 1.11467 18.4277 1.11467 18.6565 1.3435C18.8853 1.57232 18.8853 1.94334 18.6565 2.17213Z" fill="#7A7A01"/>
<path d="M4.6875 7.30469C4.6875 7.62828 4.94984 7.89062 5.27344 7.89062H6.83594C7.15953 7.89062 7.42188 7.62828 7.42188 7.30469C7.42188 6.98109 7.15953 6.71875 6.83594 6.71875H5.27344C4.94984 6.71875 4.6875 6.98109 4.6875 7.30469Z" fill="#7A7A01"/>
<path d="M6.83594 9.0625H5.27344C4.94984 9.0625 4.6875 9.32484 4.6875 9.64844C4.6875 9.97203 4.94984 10.2344 5.27344 10.2344H6.83594C7.15953 10.2344 7.42188 9.97203 7.42188 9.64844C7.42188 9.32484 7.15953 9.0625 6.83594 9.0625Z" fill="#7A7A01"/>
<path d="M6.83594 11.4062H5.27344C4.94984 11.4062 4.6875 11.6686 4.6875 11.9922C4.6875 12.3158 4.94984 12.5781 5.27344 12.5781H6.83594C7.15953 12.5781 7.42188 12.3158 7.42188 11.9922C7.42188 11.6686 7.15953 11.4062 6.83594 11.4062Z" fill="#7A7A01"/>
<path d="M6.83594 13.75H5.27344C4.94984 13.75 4.6875 14.0123 4.6875 14.3359C4.6875 14.6595 4.94984 14.9219 5.27344 14.9219H6.83594C7.15953 14.9219 7.42188 14.6595 7.42188 14.3359C7.42188 14.0123 7.15953 13.75 6.83594 13.75Z" fill="#7A7A01"/>
<path d="M11.5234 12.5781H13.0859C13.4095 12.5781 13.6719 12.3158 13.6719 11.9922C13.6719 11.6686 13.4095 11.4062 13.0859 11.4062H11.5234C11.1998 11.4062 10.9375 11.6686 10.9375 11.9922C10.9375 12.3158 11.1998 12.5781 11.5234 12.5781Z" fill="#7A7A01"/>
<path d="M13.0859 14.9219C13.4095 14.9219 13.6719 14.6595 13.6719 14.3359C13.6719 14.0123 13.4095 13.75 13.0859 13.75H11.5234C11.1998 13.75 10.9375 14.0123 10.9375 14.3359C10.9375 14.6595 11.1998 14.9219 11.5234 14.9219H13.0859Z" fill="#7A7A01"/>
</g>
<defs>
<clipPath id="clip0_277_3000">
<rect width="20" height="20" fill="white"/>
</clipPath>
</defs>
</svg>
