<svg width="20" height="20" viewBox="0 0 20 20" fill="none" xmlns="http://www.w3.org/2000/svg">
<path d="M18.1458 16.386C18.2129 16.298 18.2761 16.1777 18.2752 16.0192V3.0227C18.2752 2.6991 18.0128 2.43676 17.6892 2.43676H15.7338V0.585938C15.7338 0.262344 15.4714 0 15.1478 0H2.31055C1.98695 0 1.72461 0.262344 1.72461 0.585938V16.9382C1.72461 17.2618 1.98695 17.5242 2.31055 17.5242H4.18789V19.4141C4.18789 19.7377 4.45023 20 4.77383 20H14.1251C14.2438 19.9993 14.4137 19.9545 14.5292 19.8383L18.0934 16.4435C18.1099 16.4261 18.1103 16.428 18.1458 16.386ZM2.89648 16.3523V1.17188H14.5619V2.43676H4.77379C4.4502 2.43676 4.18785 2.6991 4.18785 3.0227V16.3523H2.89648ZM5.35973 16.9715C5.36172 16.9495 5.36172 16.927 5.35973 16.905V3.60863H17.1033V15.4333H14.125C13.8014 15.4333 13.5391 15.6957 13.5391 16.0193V18.8281H5.35973V16.9715ZM14.711 18.0468V16.6052H16.2245L14.711 18.0468Z" fill="#00512E"/>
<path d="M9.74404 13.2402C8.96908 13.2683 8.96654 14.383 9.74404 14.4121H14.9108C15.2344 14.4121 15.4968 14.1498 15.4968 13.8262C15.4968 13.5026 15.2344 13.2402 14.9108 13.2402H9.74404Z" fill="#00512E"/>
<path d="M7.552 13.2402C7.22841 13.2402 6.96606 13.5026 6.96606 13.8262C6.99478 14.6026 8.10935 14.6023 8.13794 13.8262C8.13794 13.5026 7.87563 13.2402 7.552 13.2402Z" fill="#00512E"/>
<path d="M11.7186 15.877H9.74407C8.96821 15.9054 8.96739 17.02 9.74407 17.0488H11.7186C12.4945 17.0204 12.4953 15.9057 11.7186 15.877Z" fill="#00512E"/>
<path d="M7.552 15.877C7.22841 15.877 6.96606 16.1393 6.96606 16.4629C6.99478 17.2393 8.10935 17.2391 8.13794 16.4629C8.13794 16.1393 7.87563 15.877 7.552 15.877Z" fill="#00512E"/>
<path d="M14.6469 4.95166H12.2701C11.9465 4.95166 11.6842 5.214 11.6842 5.5376V6.88924H9.89258C9.56898 6.88924 9.30664 7.15158 9.30664 7.47518V8.32611H7.51563C7.19203 8.32611 6.92969 8.58846 6.92969 8.91205V11.161C6.92969 11.4846 7.19203 11.747 7.51563 11.747L14.6469 11.7587C14.9705 11.7587 15.2328 11.4963 15.2328 11.1728V5.5376C15.2328 5.214 14.9705 4.95166 14.6469 4.95166ZM9.30645 10.5751H8.10156V9.49799H9.30645V10.5751ZM11.6834 10.5751H10.4785V8.06111H11.6834V10.5751ZM14.0609 10.5868H12.8561V6.1235H14.0609V10.5868Z" fill="#00512E"/>
</svg>
