<svg width="42" height="42" viewBox="0 0 42 42" fill="none" xmlns="http://www.w3.org/2000/svg">
<path d="M9.01478 12.7047L7.46488 14.2543L7.10444 13.8939C6.62398 13.4134 5.84485 13.4134 5.36431 13.8939C4.88377 14.3744 4.88377 15.1534 5.36431 15.6338L6.59478 16.8641C7.07524 17.3446 7.85437 17.3447 8.33491 16.8641L10.7548 14.4445C11.2354 13.964 11.2354 13.185 10.7548 12.7046C10.2744 12.2241 9.49524 12.2241 9.01478 12.7047Z" fill="#00512E"/>
<path d="M13.6172 16.0763H21C21.6795 16.0763 22.2305 15.5255 22.2305 14.846C22.2305 14.1666 21.6795 13.6157 21 13.6157H13.6172C12.9376 13.6157 12.3867 14.1666 12.3867 14.846C12.3867 15.5255 12.9376 16.0763 13.6172 16.0763Z" fill="#00512E"/>
<path d="M9.01478 20.1688L7.46488 21.7184L7.10444 21.3581C6.62398 20.8776 5.84485 20.8776 5.36431 21.3581C4.88377 21.8385 4.88377 22.6176 5.36431 23.0979L6.59478 24.3282C7.0754 24.8088 7.85437 24.8087 8.33491 24.3282L10.7548 21.9086C11.2354 21.4281 11.2354 20.6491 10.7548 20.1687C10.2744 19.6882 9.49524 19.6882 9.01478 20.1688Z" fill="#00512E"/>
<path d="M9.01478 27.517L7.46488 29.0668L7.10444 28.7064C6.62398 28.2259 5.84485 28.2259 5.36431 28.7064C4.88377 29.1868 4.88377 29.9659 5.36431 30.4463L6.59478 31.6766C7.0754 32.1571 7.85437 32.157 8.33491 31.6766L10.7548 29.2569C11.2354 28.7764 11.2354 27.9974 10.7548 27.517C10.2744 27.0366 9.49524 27.0366 9.01478 27.517Z" fill="#00512E"/>
<path d="M41.1588 19.9959L38.2621 19.0304L37.2966 16.1341C37.0079 15.2681 35.9058 15.0066 35.2592 15.6532L31.7807 19.1312C30.2799 18.4991 28.7234 18.2041 27.1523 18.2093V7.46402H29.6133C30.2928 7.46402 30.8438 6.91318 30.8438 6.23372V4.34716C30.8438 1.95013 28.8934 0 26.4961 0H4.34766C1.95037 0 0 1.95013 0 4.34716V38.3042C0 38.9837 0.550922 39.5345 1.23047 39.5345H19.9534C27.7141 45.5005 39.0838 39.9713 39.0838 30.102C39.0838 28.5064 38.7732 26.965 38.1613 25.511L41.6396 22.033C42.2852 21.3877 42.0262 20.285 41.1588 19.9959ZM27.1893 34.2032C24.9277 34.2032 23.0877 32.3635 23.0877 30.1021C23.0877 27.0171 26.3772 25.0498 29.0847 26.467L26.3192 29.2322C25.8386 29.7126 25.8386 30.4917 26.3192 30.972C26.7997 31.4526 27.5787 31.4525 28.0593 30.972L30.8248 28.2069C32.238 30.906 30.2821 34.2032 27.1893 34.2032ZM26.4962 2.46069C27.5365 2.46069 28.3829 3.30701 28.3829 4.34716V5.00333H8.69531C8.66398 4.60458 8.83591 3.6426 8.26424 2.46069H26.4962ZM2.46094 4.34716C2.46094 3.30693 3.30734 2.46069 4.34766 2.46069C5.38798 2.46069 6.23438 3.30701 6.23438 4.34716V6.23364C6.23438 6.9131 6.7853 7.46394 7.46484 7.46394H24.6914V18.4735C22.7619 18.8874 21.0047 19.7707 19.5453 20.9976H13.6172C12.9376 20.9976 12.3867 21.5485 12.3867 22.2279C12.3867 22.9074 12.9376 23.4582 13.6172 23.4582H17.328C16.3561 24.8959 15.6905 26.5566 15.4246 28.3459H13.6172C12.9376 28.3459 12.3867 28.8967 12.3867 29.5762C12.3867 30.2557 12.9376 30.8065 13.6172 30.8065H15.3161C15.4531 33.1385 16.265 35.2917 17.559 37.0738H2.46094C2.46094 35.6259 2.46094 5.90141 2.46094 4.34716ZM27.1893 39.5345C21.9876 39.5345 17.7557 35.3031 17.7557 30.102C17.7557 23.4551 24.4871 18.8949 30.6305 21.3189L31.5312 24.0207L30.8754 24.6764C26.5859 21.7535 20.6268 24.7942 20.6268 30.1021C20.6268 33.7203 23.5707 36.6639 27.1893 36.6639C32.479 36.6639 35.5491 30.7205 32.6155 26.4164L33.2712 25.7607L35.9725 26.6611C38.4033 32.824 33.8204 39.5345 27.1893 39.5345ZM36.0869 24.1053L33.9117 23.3803L33.1866 21.2054L35.5915 18.8008L36.122 20.3921C36.2444 20.7595 36.5328 21.0478 36.9002 21.1702L38.4917 21.7007L36.0869 24.1053Z" fill="#00512E"/>
</svg>
