<svg width="42" height="42" viewBox="0 0 42 42" fill="none" xmlns="http://www.w3.org/2000/svg">
<path d="M16.9491 25.1339C16.4686 24.6533 15.6895 24.6533 15.209 25.1338L11.143 29.1998L9.46991 27.5807C8.98149 27.1081 8.20261 27.1209 7.73003 27.6092C7.25744 28.0975 7.27024 28.8765 7.75857 29.3491L10.3015 31.81C10.5403 32.0411 10.8488 32.1563 11.1571 32.1563C11.4722 32.1563 11.7873 32.0359 12.0272 31.7959L16.9491 26.874C17.4296 26.3935 17.4296 25.6145 16.9491 25.1339Z" fill="#00512E"/>
<path d="M16.9491 17.7511C16.4686 17.2705 15.6895 17.2705 15.209 17.751L11.143 21.817L9.46991 20.1978C8.98149 19.7253 8.20261 19.7381 7.73003 20.2264C7.25744 20.7147 7.27024 21.4937 7.75857 21.9663L10.3015 24.4272C10.5403 24.6583 10.8488 24.7735 11.1571 24.7735C11.4722 24.7735 11.7873 24.6531 12.0272 24.4131L16.9491 19.4912C17.4296 19.0107 17.4296 18.2316 16.9491 17.7511Z" fill="#00512E"/>
<path d="M16.9491 10.3683C16.4686 9.88767 15.6895 9.88767 15.209 10.3682L11.143 14.4342L9.46991 12.815C8.98149 12.3425 8.20261 12.3552 7.73003 12.8436C7.25744 13.3319 7.27024 14.1109 7.75857 14.5835L10.3015 17.0444C10.5403 17.2755 10.8488 17.3907 11.1571 17.3907C11.4722 17.3907 11.7873 17.2703 12.0272 17.0303L16.9491 12.1084C17.4296 11.6279 17.4296 10.8488 16.9491 10.3683Z" fill="#00512E"/>
<path d="M40.9198 12.8291L39.1797 11.089C37.737 9.6463 35.402 9.64622 33.9593 11.089C33.3535 11.6948 32.766 12.2823 32.1573 12.891V8.77734C32.1573 8.46415 32.0339 8.14939 31.8065 7.91684L24.4236 0.369961C24.1928 0.133711 23.8673 0 23.5439 0H3.69238C3.01284 0 2.46191 0.550922 2.46191 1.23047V34.6172H1.23145C0.551898 34.6172 0.000976562 35.1681 0.000976562 35.8477V38.3086C0.000976562 40.344 1.65694 42 3.69238 42H28.4658C30.5013 42 32.1572 40.344 32.1572 38.3086V26.8122C32.5027 26.4667 40.5131 18.4563 40.9198 18.0496C42.359 16.6103 42.359 14.2684 40.9198 12.8291ZM24.7744 4.24782L28.0017 7.54688H24.7744V4.24782ZM3.69238 39.5391C3.0139 39.5391 2.46191 38.9871 2.46191 38.3086V37.0781C3.1445 37.0781 23.6479 37.0781 24.7744 37.0781V38.3086C24.7744 38.7399 24.8495 39.1539 24.9861 39.5391H3.69238ZM29.6964 38.3086H29.6963C29.6963 38.9871 29.1443 39.5391 28.4658 39.5391C27.7873 39.5391 27.2354 38.9871 27.2354 38.3086V35.8477C27.2354 35.1681 26.6845 34.6172 26.0049 34.6172H4.92285V2.46094H22.3135V8.77734C22.3135 9.45689 22.8644 10.0078 23.5439 10.0078H29.6963V15.3519L21.7782 23.27C21.625 23.4232 21.5011 23.6389 21.4493 23.8635L19.884 30.6492C19.7887 31.0625 19.913 31.4959 20.213 31.7958C20.5135 32.0964 20.9471 32.2199 21.3596 32.1247L28.1453 30.5595C28.3686 30.508 28.5844 30.3851 28.7388 30.2306L29.6964 29.273V38.3086ZM23.3481 26.5802L25.4285 28.6606L22.7243 29.2843L23.3481 26.5802ZM27.8686 27.6204L24.3884 24.1401L33.0891 15.4393L36.5694 18.9197L27.8686 27.6204ZM39.1797 16.3095L38.3096 17.1796L34.8292 13.6992L35.6993 12.8291C36.1802 12.3482 36.9584 12.3482 37.4395 12.8291L39.1796 14.5692C39.6594 15.049 39.6594 15.8297 39.1797 16.3095Z" fill="#00512E"/>
</svg>
