<svg width="20" height="20" viewBox="0 0 20 20" fill="none" xmlns="http://www.w3.org/2000/svg">
<path d="M5.27344 4.72656H2.92969C2.60609 4.72656 2.34375 4.98891 2.34375 5.3125V7.65625C2.34375 7.97984 2.60609 8.24219 2.92969 8.24219H5.27344C5.59703 8.24219 5.85938 7.97984 5.85938 7.65625V5.3125C5.85938 4.98891 5.59703 4.72656 5.27344 4.72656ZM4.6875 7.07031H3.51562V5.89844H4.6875V7.07031Z" fill="#00512E"/>
<path d="M5.27344 9.41406H2.92969C2.60609 9.41406 2.34375 9.67641 2.34375 10V12.3438C2.34375 12.6673 2.60609 12.9297 2.92969 12.9297H5.27344C5.59703 12.9297 5.85938 12.6673 5.85938 12.3438V10C5.85938 9.67641 5.59703 9.41406 5.27344 9.41406ZM4.6875 11.7578H3.51562V10.5859H4.6875V11.7578Z" fill="#00512E"/>
<path d="M7.61719 5.89844H9.57031C9.89391 5.89844 10.1562 5.63609 10.1562 5.3125C10.1562 4.98891 9.89391 4.72656 9.57031 4.72656H7.61719C7.29359 4.72656 7.03125 4.98891 7.03125 5.3125C7.03125 5.63609 7.29359 5.89844 7.61719 5.89844Z" fill="#00512E"/>
<path d="M5.27344 14.1016H2.92969C2.60609 14.1016 2.34375 14.3639 2.34375 14.6875V17.0312C2.34375 17.3548 2.60609 17.6172 2.92969 17.6172H5.27344C5.59703 17.6172 5.85938 17.3548 5.85938 17.0312V14.6875C5.85938 14.3639 5.59703 14.1016 5.27344 14.1016ZM4.6875 16.4453H3.51562V15.2734H4.6875V16.4453Z" fill="#00512E"/>
<path d="M11.5234 16.4453H7.61719C7.29359 16.4453 7.03125 16.7077 7.03125 17.0312C7.03125 17.3548 7.29359 17.6172 7.61719 17.6172H11.5234C11.847 17.6172 12.1094 17.3548 12.1094 17.0312C12.1094 16.7077 11.847 16.4453 11.5234 16.4453Z" fill="#00512E"/>
<path d="M7.61719 15.2734H9.57031C9.89391 15.2734 10.1562 15.0111 10.1562 14.6875C10.1562 14.3639 9.89391 14.1016 9.57031 14.1016H7.61719C7.29359 14.1016 7.03125 14.3639 7.03125 14.6875C7.03125 15.0111 7.29359 15.2734 7.61719 15.2734Z" fill="#00512E"/>
<path d="M19.486 14.8337L16.0296 11.3774C16.1837 10.9467 16.2679 10.483 16.2679 10C16.2679 8.58445 15.547 7.3341 14.4531 6.59672V1.75781C14.4531 1.43422 14.1907 1.17188 13.8671 1.17188H10.9375V0.585938C10.9375 0.262344 10.6751 0 10.3515 0H4.10156C3.77797 0 3.51562 0.262344 3.51562 0.585938V1.17188H0.585938C0.262344 1.17188 0 1.43422 0 1.75781V19.4141C0 19.7377 0.262344 20 0.585938 20H13.8672C14.1908 20 14.4531 19.7377 14.4531 19.4141V14.7727L17 17.3196C17.6854 18.005 18.8006 18.005 19.486 17.3196C20.1713 16.6343 20.1713 15.5191 19.486 14.8337ZM4.6875 1.17188H9.76562V2.34375H4.6875V1.17188ZM13.2812 18.8281H1.17188V2.34375H3.51562V2.92969C3.51562 3.25328 3.77797 3.51562 4.10156 3.51562H10.3516C10.6752 3.51562 10.9375 3.25328 10.9375 2.92969V2.34375H13.2812V6.0525C12.9266 5.95219 12.5526 5.89844 12.1663 5.89844C11.0514 5.89844 10.0391 6.34586 9.29898 7.07031H7.61719C7.29359 7.07031 7.03125 7.33266 7.03125 7.65625C7.03125 7.97984 7.29359 8.24219 7.61719 8.24219H8.46102C8.28742 8.6066 8.16617 9.00047 8.10676 9.41406H7.61719C7.29359 9.41406 7.03125 9.67641 7.03125 10C7.03125 10.3236 7.29359 10.5859 7.61719 10.5859H8.1068C8.16621 10.9995 8.28746 11.3934 8.46105 11.7578H7.61719C7.29359 11.7578 7.03125 12.0202 7.03125 12.3438C7.03125 12.6673 7.29359 12.9297 7.61719 12.9297H9.29898C10.0391 13.6541 11.0513 14.1016 12.1663 14.1016C12.5527 14.1016 12.9266 14.0478 13.2812 13.9475V18.8281ZM12.1663 12.9297C10.5509 12.9297 9.23664 11.6154 9.23664 10C9.23664 8.38457 10.5509 7.07031 12.1663 7.07031C13.7818 7.07031 15.096 8.38457 15.096 10C15.096 11.6154 13.7818 12.9297 12.1663 12.9297ZM18.6573 16.491C18.4289 16.7195 18.0571 16.7195 17.8287 16.491L14.6214 13.2837C14.9354 13.0483 15.2146 12.769 15.45 12.455L18.6573 15.6624C18.8858 15.8909 18.8858 16.2626 18.6573 16.491Z" fill="#00512E"/>
<path d="M12.9388 8.99977L11.6958 10.2427L11.2815 9.82844C11.0526 9.59961 10.6817 9.59965 10.4529 9.82844C10.224 10.0573 10.224 10.4282 10.4529 10.6571L11.2815 11.4857C11.5103 11.7146 11.8813 11.7146 12.1101 11.4857L13.7557 9.8402C13.9788 9.61711 13.9993 9.25368 13.787 9.02032C13.5603 8.7711 13.1742 8.76426 12.9388 8.99977Z" fill="#00512E"/>
</svg>
