<svg width="16" height="16" viewBox="0 0 16 16" fill="none" xmlns="http://www.w3.org/2000/svg">
<g clip-path="url(#clip0_333_10568)">
<path d="M14.5938 0H7.71875C6.94334 0 6.3125 0.630844 6.3125 1.40625V5.15625C6.3125 5.93166 6.94334 6.5625 7.71875 6.5625H7.875V7.65534C7.875 8.05278 8.33853 8.26987 8.64384 8.01544L10.3874 6.5625H14.5938C15.3692 6.5625 16 5.93166 16 5.15625V1.40625C16 0.630844 15.3692 0 14.5938 0ZM9.28125 4.6875H8.65625C8.39738 4.6875 8.1875 4.47762 8.1875 4.21875C8.1875 3.95988 8.39738 3.75 8.65625 3.75H9.28125C9.54012 3.75 9.75 3.95988 9.75 4.21875C9.75 4.47762 9.54012 4.6875 9.28125 4.6875ZM9.28125 2.8125H8.65625C8.39738 2.8125 8.1875 2.60262 8.1875 2.34375C8.1875 2.08488 8.39738 1.875 8.65625 1.875H9.28125C9.54012 1.875 9.75 2.08488 9.75 2.34375C9.75 2.60262 9.54012 2.8125 9.28125 2.8125ZM13.6562 4.6875H11.1562C10.8974 4.6875 10.6875 4.47762 10.6875 4.21875C10.6875 3.95988 10.8974 3.75 11.1562 3.75H13.6562C13.9151 3.75 14.125 3.95988 14.125 4.21875C14.125 4.47762 13.9151 4.6875 13.6562 4.6875ZM13.6562 2.8125H11.1562C10.8974 2.8125 10.6875 2.60262 10.6875 2.34375C10.6875 2.08488 10.8974 1.875 11.1562 1.875H13.6562C13.9151 1.875 14.125 2.08488 14.125 2.34375C14.125 2.60262 13.9151 2.8125 13.6562 2.8125Z" fill="#00512E"/>
<path d="M7.74365 12.2213C7.54418 12.363 7.27624 12.3772 7.06009 12.2493C5.77506 11.4886 4.51127 10.2248 3.75062 8.93979C3.62265 8.72361 3.6369 8.45567 3.77868 8.2562L1.01034 5.48779L0.592993 5.90511C-0.0807884 6.57892 -0.194101 7.6482 0.323587 8.44764C2.2089 11.3589 4.64096 13.791 7.55224 15.6763C8.35168 16.1939 9.42099 16.0806 10.0948 15.4069L10.0947 15.4068L10.512 14.9896L7.74365 12.2213Z" fill="#00512E"/>
<path d="M4.76687 7.25584C5.194 6.82872 5.194 6.13618 4.76687 5.70903L3.55153 4.49368C3.1244 4.06656 2.43187 4.06656 2.00475 4.49368L1.67334 4.82509L4.43546 7.58725L4.76687 7.25584Z" fill="#00512E"/>
<path d="M11.5067 13.9956C11.9338 13.5685 11.9338 12.8759 11.5067 12.4488L10.2913 11.2334C9.86421 10.8063 9.17168 10.8063 8.74452 11.2334L8.41309 11.5649L11.1752 14.327L11.5067 13.9956Z" fill="#00512E"/>
</g>
<defs>
<clipPath id="clip0_333_10568">
<rect width="16" height="16" fill="white"/>
</clipPath>
</defs>
</svg>
