<svg width="12" height="12" viewBox="0 0 12 12" fill="none" xmlns="http://www.w3.org/2000/svg">
<path d="M11.8942 2.38428L8.25488 6.00019L11.8942 9.61611C11.96 9.4786 11.9999 9.32658 11.9999 9.16425V2.83613C11.9999 2.67378 11.96 2.52179 11.8942 2.38428Z" fill="white"/>
<path d="M10.946 1.78125H1.05537C0.893016 1.78125 0.741023 1.82116 0.603516 1.88695L5.25499 6.51499C5.66627 6.92627 6.33509 6.92627 6.74637 6.51499L11.3978 1.88695C11.2603 1.82116 11.1083 1.78125 10.946 1.78125Z" fill="white"/>
<path d="M0.105703 2.38428C0.0399141 2.52179 0 2.67378 0 2.83613V9.16425C0 9.32661 0.0399141 9.47862 0.105703 9.61611L3.74505 6.00019L0.105703 2.38428Z" fill="white"/>
<path d="M7.75849 6.49707L7.2435 7.01206C6.55821 7.69735 5.44313 7.69735 4.75784 7.01206L4.24287 6.49707L0.603516 10.113C0.741023 10.1788 0.893016 10.2187 1.05537 10.2187H10.946C11.1083 10.2187 11.2603 10.1788 11.3978 10.113L7.75849 6.49707Z" fill="white"/>
</svg>
