<svg width="16" height="16" viewBox="0 0 16 16" fill="none" xmlns="http://www.w3.org/2000/svg">
<path d="M15.8364 9.67848L14.6881 8.69363C14.7519 8.23614 14.7519 7.76407 14.6881 7.30657L15.8364 6.32173C16.0076 6.17485 16.05 5.92688 15.9372 5.73151L14.8075 3.77492C14.6947 3.57957 14.4587 3.49223 14.246 3.5671L12.8179 4.06954C12.4506 3.78179 12.0487 3.54923 11.6177 3.37513L11.3389 1.8887C11.2973 1.66701 11.1038 1.50635 10.8782 1.50635H9.00419C8.74531 1.50635 8.53544 1.71623 8.53544 1.9751V2.51051H6.68794L5.82109 1.64363C5.73322 1.55573 5.61397 1.50632 5.48966 1.50632H2.94591V0.970947C2.94591 0.712072 2.73603 0.502197 2.47716 0.502197H0.46875C0.209875 0.502197 0 0.712072 0 0.970947V2.97929C0 3.23817 0.209875 3.44804 0.46875 3.44804H2.47709C2.73597 3.44804 2.94584 3.23817 2.94584 2.97929V2.44385H5.29544L6.16228 3.31073C6.25016 3.39863 6.36941 3.44804 6.49372 3.44804H8.53537V5.60217C8.53537 5.7511 8.60616 5.8912 8.72609 5.97954C8.84603 6.06788 9.00072 6.09398 9.14303 6.04985C10.2537 5.68448 11.4963 6.41998 11.7352 7.53135H7.69206L5.82103 5.66032C5.73316 5.57242 5.61391 5.52301 5.48959 5.52301H2.94584V4.9876C2.94584 4.72873 2.73597 4.51885 2.47709 4.51885H0.46875C0.209875 4.51885 0 4.72873 0 4.9876V6.99595C0 7.25482 0.209875 7.4647 0.46875 7.4647H2.47709C2.73597 7.4647 2.94584 7.25482 2.94584 6.99595V6.46054H5.29544L6.83503 8.0001L5.29544 9.5397H2.94584V9.00429C2.94584 8.74542 2.73597 8.53554 2.47709 8.53554H0.46875C0.209875 8.53554 0 8.74542 0 9.00429V11.0126C0 11.2715 0.209875 11.4814 0.46875 11.4814H2.47709C2.73597 11.4814 2.94584 11.2715 2.94584 11.0126V10.4772H5.48959C5.61394 10.4772 5.73316 10.4278 5.82103 10.3399L7.69206 8.46885H11.7352C11.4964 9.58023 10.2536 10.3157 9.14303 9.95035C9.00075 9.90623 8.84603 9.93232 8.72609 10.0207C8.60616 10.109 8.53537 10.2491 8.53537 10.398V12.5522H6.49375C6.36941 12.5522 6.25019 12.6016 6.16231 12.6895L5.29547 13.5564H2.94584V13.0209C2.94584 12.7621 2.73597 12.5522 2.47709 12.5522H0.46875C0.209875 12.5522 0 12.7621 0 13.0209V15.0293C0 15.2882 0.209875 15.498 0.46875 15.498H2.47709C2.73597 15.498 2.94584 15.2882 2.94584 15.0293V14.4939H5.48959C5.61394 14.4939 5.73316 14.4444 5.82103 14.3565L6.68787 13.4897H8.53537V14.0251C8.53537 14.284 8.74525 14.4939 9.00412 14.4939H10.8782C11.1037 14.4939 11.2973 14.3332 11.3389 14.1115L11.6177 12.6251C12.0486 12.451 12.4506 12.2184 12.8179 11.9307L14.2459 12.4331C14.4587 12.508 14.6946 12.4207 14.8074 12.2253L15.9371 10.2687C16.05 10.0733 16.0076 9.82535 15.8364 9.67848ZM2.00834 2.51051H0.9375V1.4397H2.00834V2.51051ZM2.00834 6.5272H0.9375V5.45635H2.00834V6.5272ZM2.00834 10.5439H0.9375V9.47301H2.00834V10.5439ZM2.00834 14.5605H0.9375V13.4897H2.00834V14.5605ZM14.1901 11.4196L12.8789 10.9583C12.7192 10.9021 12.5418 10.9364 12.4145 11.0478C12.0135 11.3991 11.5559 11.6638 11.0546 11.8346C10.8945 11.8892 10.7762 12.0257 10.7451 12.1919L10.4892 13.5563H9.47291V10.9666C11.2039 11.1355 12.737 9.74042 12.7276 8.00007C12.737 6.25988 11.2038 4.86445 9.47291 5.03357V2.44385H10.4892L10.7451 3.80826C10.7762 3.97448 10.8945 4.11101 11.0546 4.16554C11.5559 4.33635 12.0135 4.6011 12.4145 4.95235C12.5417 5.06382 12.7193 5.09807 12.8789 5.04192L14.1901 4.58057L14.9307 5.86335L13.8769 6.76713C13.7487 6.87717 13.6895 7.04776 13.7222 7.2136C13.8237 7.72651 13.8237 8.27367 13.7222 8.78657C13.6895 8.95242 13.7487 9.12301 13.8769 9.23304L14.9307 10.1368L14.1901 11.4196Z" fill="#00512E"/>
</svg>
