<svg width="42" height="42" viewBox="0 0 42 42" fill="none" xmlns="http://www.w3.org/2000/svg">
<path d="M40.7769 19.7691H38.6682C38.062 10.9818 31.0183 3.93807 22.2309 3.3318V1.22314C22.1704 -0.408329 19.8291 -0.407098 19.7691 1.22314V3.3318C10.9818 3.93807 3.93807 10.9818 3.3318 19.7691H1.22314C-0.408329 19.8296 -0.407098 22.1709 1.22314 22.2309H3.3318C3.93799 31.0182 10.9818 38.062 19.7691 38.6682V40.7769C19.8296 42.4083 22.1709 42.4071 22.2309 40.7769V38.6682C31.0182 38.062 38.062 31.0183 38.6682 22.2309H40.7769C42.4083 22.1704 42.4071 19.8291 40.7769 19.7691ZM34.1845 22.2309H36.2C35.6037 29.6601 29.6601 35.6037 22.2309 36.2V34.1845C22.1704 32.5531 19.8291 32.5543 19.7691 34.1845V36.2C12.34 35.6037 6.39631 29.6601 5.80005 22.2309H7.81548C9.44695 22.1704 9.44572 19.8291 7.81548 19.7691H5.80005C6.39631 12.34 12.34 6.39631 19.7691 5.80005V7.81548C19.8296 9.44695 22.1709 9.44572 22.2309 7.81548V5.80005C29.6601 6.39631 35.6037 12.34 36.2 19.7691H34.1845C32.5532 19.8296 32.5544 22.1709 34.1845 22.2309Z" fill="#00512E"/>
<path d="M28.2771 17.5884L24.3949 16.3271L21.9957 13.0249C21.5254 12.3536 20.4742 12.3538 20.004 13.0249L17.6049 16.3271L13.7227 17.5884C13.3479 17.7102 13.0541 18.004 12.9323 18.3787C12.8106 18.7534 12.8756 19.1638 13.1071 19.4826L15.5063 22.7849V26.8665C15.5063 27.2605 15.6949 27.6307 16.0137 27.8623C16.3325 28.0939 16.7429 28.1589 17.1176 28.0371L20.9997 26.7757L24.8819 28.0371C25.2566 28.1589 25.667 28.0939 25.9858 27.8623C26.3045 27.6307 26.4932 27.2605 26.4932 26.8665V22.7849L28.8924 19.4826C29.1239 19.1638 29.1889 18.7534 29.0671 18.3787C28.9456 18.004 28.6518 17.7102 28.2771 17.5884ZM24.2666 21.6614C24.1138 21.8717 24.0315 22.1249 24.0315 22.3849V25.1723L21.3803 24.3108C21.133 24.2305 20.8667 24.2305 20.6195 24.3108L17.9682 25.1723V22.3849C17.9682 22.125 17.8859 21.8717 17.7331 21.6614L16.0948 19.4063L18.7459 18.545C18.9932 18.4647 19.2087 18.3081 19.3614 18.0978L20.9998 15.8427L22.6383 18.0978C22.7911 18.3081 23.0065 18.4647 23.2537 18.545L25.9049 19.4063L24.2666 21.6614Z" fill="#00512E"/>
</svg>
