<svg width="134" height="39" viewBox="0 0 134 39" fill="none" xmlns="http://www.w3.org/2000/svg">
<g clip-path="url(#clip0_333_7640)">
<path fill-rule="evenodd" clip-rule="evenodd" d="M129.035 39H4.96479C2.22849 39 0 36.802 0 34.125V4.875C0 2.18828 2.22849 0 4.96479 0H129.035C131.769 0 134 2.18828 134 4.875V34.125C134 36.802 131.769 39 129.035 39Z" fill="white"/>
<path d="M70.5915 12.9009C69.6967 12.9009 68.9423 12.5921 68.3458 11.9842C67.7541 11.3934 67.4238 10.5789 67.4386 9.74731C67.4386 8.85985 67.7443 8.10854 68.3458 7.51284C68.9399 6.90498 69.6942 6.59619 70.589 6.59619C71.474 6.59619 72.2283 6.90498 72.8348 7.51284C73.4363 8.12799 73.7419 8.8793 73.7419 9.74731C73.7321 10.6372 73.4264 11.3885 72.8348 11.9818C72.2407 12.5945 71.4863 12.9009 70.5915 12.9009ZM43.9657 12.9009C43.0906 12.9009 42.3313 12.5969 41.7101 11.9964C41.0938 11.3982 40.7808 10.6421 40.7808 9.74975C40.7808 8.85741 41.0938 8.10124 41.7101 7.50311C42.319 6.90255 43.0783 6.59862 43.9657 6.59862C44.3996 6.59862 44.8211 6.68372 45.2254 6.85635C45.6223 7.02412 45.9452 7.25268 46.1843 7.53229L46.2435 7.6028L45.5754 8.24956L45.5064 8.16932C45.1292 7.7268 44.6239 7.51041 43.9558 7.51041C43.3593 7.51041 42.8391 7.71951 42.4102 8.13285C41.9788 8.54862 41.7594 9.09326 41.7594 9.75218C41.7594 10.4111 41.9788 10.9557 42.4102 11.3715C42.8391 11.7848 43.3593 11.9939 43.9558 11.9939C44.5918 11.9939 45.1268 11.7848 45.5434 11.3715C45.7899 11.1284 45.9427 10.788 45.997 10.3576H43.8548V9.44825H46.9165L46.9288 9.53092C46.951 9.6841 46.9732 9.84214 46.9732 9.98802C46.9732 10.8269 46.7168 11.5052 46.209 12.0061C45.6321 12.5994 44.8778 12.9009 43.9657 12.9009ZM79.3673 12.772H78.4232L75.5316 8.20822L75.5563 9.03004V12.7696H74.6121V6.72749H75.6894L75.719 6.77369L78.438 11.0724L78.4133 10.253V6.72749H79.3673V12.772V12.772ZM63.4969 12.772H62.5404V7.63684H60.8814V6.72749H65.1534V7.63684H63.4944V12.772H63.4969ZM60.1024 12.772H59.1484V6.72749H60.1024V12.772ZM54.7408 12.772H53.7867V7.63684H52.1277V6.72749H56.3998V7.63684H54.7408V12.772ZM51.5238 12.7623H47.8655V6.72749H51.5238V7.63684H48.822V9.29507H51.26V10.1947H48.822V11.8529H51.5238V12.7623ZM69.0459 11.3593C69.4723 11.78 69.99 11.9915 70.5915 11.9915C71.2102 11.9915 71.7156 11.7848 72.1371 11.3593C72.5562 10.946 72.7682 10.4038 72.7682 9.74975C72.7682 9.09569 72.5562 8.55105 72.1396 8.14014C71.7131 7.71951 71.193 7.50797 70.594 7.50797C69.9752 7.50797 69.4699 7.71465 69.0508 8.14014C68.6317 8.55349 68.4197 9.09569 68.4197 9.74975C68.4197 10.4038 68.6293 10.9484 69.0459 11.3593Z" fill="#0E1F1F"/>
<path fill-rule="evenodd" clip-rule="evenodd" d="M67.3499 21.2116C65.0204 21.2116 63.1321 22.9549 63.1321 25.3596C63.1321 27.7424 65.0327 29.5076 67.3499 29.5076C69.6795 29.5076 71.5678 27.7521 71.5678 25.3596C71.5678 22.9549 69.6795 21.2116 67.3499 21.2116ZM67.3499 27.8639C66.0754 27.8639 64.9784 26.8233 64.9784 25.3498C64.9784 23.8545 66.0779 22.8357 67.3499 22.8357C68.6244 22.8357 69.7214 23.8545 69.7214 25.3498C69.7238 26.833 68.6244 27.8639 67.3499 27.8639ZM58.1475 21.2116C55.818 21.2116 53.9297 22.9549 53.9297 25.3596C53.9297 27.7424 55.8303 29.5076 58.1475 29.5076C60.4771 29.5076 62.3654 27.7521 62.3654 25.3596C62.3654 22.9549 60.4746 21.2116 58.1475 21.2116ZM58.1475 27.8639C56.8731 27.8639 55.7761 26.8233 55.7761 25.3498C55.7761 23.8545 56.8755 22.8357 58.1475 22.8357C59.422 22.8357 60.519 23.8545 60.519 25.3498C60.519 26.833 59.422 27.8639 58.1475 27.8639ZM47.1974 22.4783V24.2338H51.4695C51.3388 25.2185 51.0085 25.9455 50.5031 26.444C49.877 27.0616 48.9107 27.7326 47.2072 27.7326C44.5819 27.7326 42.5284 25.6416 42.5284 23.0521C42.5284 20.4627 44.5819 18.3717 47.2072 18.3717C48.6247 18.3717 49.6576 18.9236 50.4242 19.6287L51.6864 18.3838C50.6215 17.3772 49.204 16.6064 47.2171 16.6064C43.6155 16.6064 40.5933 19.4998 40.5933 23.0424C40.5933 26.5947 43.6131 29.4784 47.2171 29.4784C49.1621 29.4784 50.6215 28.8511 51.7751 27.6694C52.951 26.5096 53.3233 24.8733 53.3233 23.553C53.3233 23.1421 53.2912 22.7725 53.2247 22.4589H47.1949C47.1974 22.4564 47.1974 22.4783 47.1974 22.4783ZM91.9865 23.8448C91.634 22.9136 90.5691 21.2018 88.385 21.2018C86.2206 21.2018 84.421 22.8819 84.421 25.3498C84.421 27.6791 86.2009 29.4978 88.5945 29.4978C90.5173 29.4978 91.6365 28.3381 92.0975 27.6573L90.6702 26.7139C90.1969 27.4068 89.5387 27.8615 88.6044 27.8615C87.6602 27.8615 86.9996 27.4384 86.5608 26.6044L92.1838 24.3068C92.1838 24.3092 91.9865 23.8448 91.9865 23.8448ZM86.2526 25.2307C86.2082 23.6284 87.5148 22.8139 88.4491 22.8139C89.1861 22.8139 89.8 23.1713 90.0095 23.6916L86.2526 25.2307ZM81.6847 29.2498H83.5311V17.0636H81.6847V29.2498ZM78.6526 22.1331H78.586C78.1694 21.6443 77.3781 21.2018 76.3674 21.2018C74.2696 21.2018 72.3369 23.023 72.3369 25.362C72.3369 27.6913 74.2597 29.4905 76.3674 29.4905C77.3658 29.4905 78.1694 29.0456 78.586 28.5472H78.6526V29.1429C78.6526 30.7257 77.7947 31.5791 76.4118 31.5791C75.2803 31.5791 74.5777 30.7768 74.2918 30.1057L72.6869 30.767C73.1479 31.8612 74.378 33.2155 76.4093 33.2155C78.5737 33.2155 80.4078 31.9584 80.4078 28.8924V21.4498H78.6624V22.1331C78.6649 22.1331 78.6526 22.1331 78.6526 22.1331ZM76.5326 27.8639C75.2581 27.8639 74.1931 26.8136 74.1931 25.362C74.1931 23.8983 75.2581 22.8382 76.5326 22.8382C77.7947 22.8382 78.7734 23.9104 78.7734 25.362C78.7857 26.8136 77.7972 27.8639 76.5326 27.8639ZM100.632 17.0636H96.2167V29.2498H98.0631V24.635H100.634C102.678 24.635 104.687 23.1737 104.687 20.8541C104.687 18.5346 102.685 17.0636 100.632 17.0636ZM100.686 22.933H98.0606V18.751H100.686C102.069 18.751 102.85 19.8767 102.85 20.842C102.85 21.7975 102.059 22.933 100.686 22.933ZM112.087 21.1897C110.746 21.1897 109.363 21.7756 108.791 23.0521L110.428 23.7232C110.781 23.0521 111.427 22.8236 112.109 22.8236C113.066 22.8236 114.032 23.3877 114.054 24.3943V24.5232C113.724 24.3384 112.999 24.0563 112.132 24.0563C110.364 24.0563 108.572 25.0094 108.572 26.7965C108.572 28.4329 110.022 29.4833 111.636 29.4833C112.876 29.4833 113.559 28.9313 113.985 28.2919H114.052V29.2352H115.832V24.5669C115.832 22.3932 114.195 21.1897 112.087 21.1897ZM111.856 27.8639C111.252 27.8639 110.406 27.5722 110.406 26.8233C110.406 25.8799 111.461 25.5225 112.361 25.5225C113.174 25.5225 113.559 25.6951 114.042 25.9334C113.909 27.0275 112.972 27.8542 111.856 27.8639ZM122.325 21.4498L120.205 26.7357H120.138L117.942 21.4498H115.955L119.251 28.8389L117.373 32.9456H119.295L124.366 21.4498H122.325ZM105.705 29.2498H107.551V17.0636H105.705V29.2498Z" fill="#0E1F1F"/>
<path fill-rule="evenodd" clip-rule="evenodd" d="M10.3142 7.34543C10.0282 7.64936 9.86304 8.11376 9.86304 8.72162V30.281C9.86304 30.8889 10.0282 31.3533 10.324 31.6451L10.4004 31.7107L22.6472 19.6314V19.3615L10.3906 7.27979L10.3142 7.34543Z" fill="url(#paint0_linear_333_7640)"/>
<path fill-rule="evenodd" clip-rule="evenodd" d="M26.722 23.6699L22.6372 19.641V19.3589L26.722 15.3301L26.8107 15.3836L31.6424 18.0922C33.0254 18.8605 33.0254 20.1297 31.6424 20.9078L26.8107 23.6164L26.722 23.6699Z" fill="url(#paint1_linear_333_7640)"/>
<path fill-rule="evenodd" clip-rule="evenodd" d="M26.8109 23.6164L22.6374 19.5L10.3142 31.6547C10.7653 32.1312 11.5221 32.1847 12.3677 31.7203L26.8109 23.6164Z" fill="url(#paint2_linear_333_7640)"/>
<path fill-rule="evenodd" clip-rule="evenodd" d="M26.8109 15.3834L12.3677 7.29162C11.5221 6.81506 10.7629 6.88071 10.3142 7.35727L22.6374 19.4998L26.8109 15.3834Z" fill="url(#paint3_linear_333_7640)"/>
<path opacity="0.2" fill-rule="evenodd" clip-rule="evenodd" d="M26.7222 23.5288L12.3774 31.5671C11.5763 32.0217 10.8614 31.9901 10.4004 31.5768L10.324 31.6522L10.4004 31.7178C10.8614 32.1287 11.5763 32.1628 12.3774 31.7081L26.8208 23.6163L26.7222 23.5288Z" fill="white"/>
<path opacity="0.12" fill-rule="evenodd" clip-rule="evenodd" d="M31.6425 20.7668L26.7097 23.5289L26.7985 23.6164L31.6301 20.9078C32.3228 20.5188 32.663 20.0082 32.663 19.5C32.6211 19.9668 32.2686 20.4094 31.6425 20.7668Z" fill="white"/>
<path opacity="0.25" fill-rule="evenodd" clip-rule="evenodd" d="M12.3676 7.43298L31.6425 18.2334C32.2687 18.581 32.6212 19.0357 32.6754 19.5001C32.6754 18.992 32.3352 18.4814 31.6425 18.0923L12.3676 7.29196C10.9847 6.51147 9.86304 7.16309 9.86304 8.72163V8.86266C9.86304 7.30168 10.9847 6.66222 12.3676 7.43298Z" fill="#0E1F1F"/>
</g>
<rect x="0.5" y="0.5" width="133" height="38" rx="7.5" stroke="#E6E6E6"/>
<defs>
<linearGradient id="paint0_linear_333_7640" x1="21.5487" y1="8.48901" x2="1.9677" y2="13.7788" gradientUnits="userSpaceOnUse">
<stop stop-color="#00A0FF"/>
<stop offset="0.00657" stop-color="#00A1FF"/>
<stop offset="0.2601" stop-color="#00BEFF"/>
<stop offset="0.5122" stop-color="#00D2FF"/>
<stop offset="0.7604" stop-color="#00DFFF"/>
<stop offset="1" stop-color="#00E3FF"/>
</linearGradient>
<linearGradient id="paint1_linear_333_7640" x1="33.4459" y1="19.5" x2="9.52666" y2="19.5" gradientUnits="userSpaceOnUse">
<stop stop-color="#FFE000"/>
<stop offset="0.4087" stop-color="#FFBD00"/>
<stop offset="0.7754" stop-color="#FFA500"/>
<stop offset="1" stop-color="#FF9C00"/>
</linearGradient>
<linearGradient id="paint2_linear_333_7640" x1="24.5415" y1="21.7399" x2="9.11138" y2="48.0703" gradientUnits="userSpaceOnUse">
<stop stop-color="#FF3A44"/>
<stop offset="1" stop-color="#C31162"/>
</linearGradient>
<linearGradient id="paint3_linear_333_7640" x1="7.21109" y1="0.174106" x2="14.095" y2="11.9335" gradientUnits="userSpaceOnUse">
<stop stop-color="#32A071"/>
<stop offset="0.0685" stop-color="#2DA771"/>
<stop offset="0.4762" stop-color="#15CF74"/>
<stop offset="0.8009" stop-color="#06E775"/>
<stop offset="1" stop-color="#00F076"/>
</linearGradient>
<clipPath id="clip0_333_7640">
<rect width="134" height="39" rx="8" fill="white"/>
</clipPath>
</defs>
</svg>
