<svg width="12" height="12" viewBox="0 0 12 12" fill="none" xmlns="http://www.w3.org/2000/svg">
<path d="M11.6484 7.90781H9.74063V4.69739L9.9967 4.8138C10.0439 4.83525 10.0933 4.84542 10.142 4.84542C10.2756 4.84542 10.4033 4.7688 10.4622 4.63924C10.5426 4.46248 10.4644 4.25407 10.2877 4.17373L6.35156 2.38455V1.07967H7.50628C7.70041 1.07967 7.85784 0.922266 7.85784 0.728109V0.351562C7.85784 0.157406 7.70041 0 7.50628 0H6C5.80587 0 5.64844 0.157406 5.64844 0.351562V2.38455L1.71237 4.1737C1.53562 4.25405 1.45744 4.46245 1.53783 4.63922C1.61812 4.81598 1.82658 4.8941 2.00332 4.81378L2.2594 4.69737V7.90781H0.351562C0.15743 7.90781 0 8.06522 0 8.25937V11.6484C0 11.8426 0.15743 12 0.351562 12H2.61094H4.87031H7.12964H9.38902H11.6484C11.8426 12 12 11.8426 12 11.6484V8.25937C12 8.06522 11.8426 7.90781 11.6484 7.90781ZM2.25938 11.2969H0.703125V8.61094H2.25938V11.2969ZM6.7781 11.2969H5.2219V9.74065H6.7781V11.2969ZM9.0375 8.25937V11.2969H7.48125V9.38909C7.48125 9.19493 7.32387 9.03752 7.12969 9.03752H4.87036C4.67623 9.03752 4.5188 9.19493 4.5188 9.38909V11.2969H2.96255V8.25937H2.9625V4.37777L6 2.99709L9.0375 4.37777V8.25937ZM11.2969 11.2969H9.74063V8.61094H11.2969V11.2969Z" fill="#00512E"/>
</svg>
