<svg width="20" height="20" viewBox="0 0 20 20" fill="none" xmlns="http://www.w3.org/2000/svg">
<path d="M10.4342 18.9766H3.06706C1.89307 18.9766 0.937988 18.0215 0.937988 16.8475C0.937988 15.6736 1.89311 14.7185 3.06706 14.7185H6.56302C6.99386 14.7185 7.34438 14.3679 7.34438 13.9371C7.34438 13.5063 6.99386 13.1557 6.56302 13.1557H4.45391C3.37688 13.1557 2.50063 12.2795 2.50063 11.2025C2.50063 10.1254 3.37688 9.24917 4.45391 9.24917H7.94761C8.47541 9.24917 8.90476 8.81978 8.90476 8.29202V8.26628C8.90476 7.73848 8.47537 7.30913 7.94761 7.30913H5.84983V6.13721H7.94761C9.1216 6.13721 10.0767 7.09232 10.0767 8.26628V8.29202C10.0767 9.46602 9.12157 10.4211 7.94761 10.4211H4.45391C4.02308 10.4211 3.67255 10.7716 3.67255 11.2025C3.67255 11.6333 4.02308 11.9838 4.45391 11.9838H6.56302C7.64006 11.9838 8.51631 12.8601 8.51631 13.9371C8.51631 15.0141 7.64006 15.8904 6.56302 15.8904H3.06706C2.53926 15.8904 2.10991 16.3198 2.10991 16.8475C2.10991 17.3753 2.5393 17.8047 3.06706 17.8047H10.4342V18.9766Z" fill="#00512E"/>
<path d="M20.0008 12.0097C20.0008 10.8503 19.0575 9.90698 17.898 9.90698H13.5139C12.3544 9.90698 11.4111 10.8503 11.4111 12.0097V13.5409H20.0007V12.0097H20.0008Z" fill="#00512E"/>
<path d="M11.4111 18.9765H12.3096V19.9998H13.4816V18.9765H17.9303V19.9998H19.1022V18.9765H20.0007V14.7126H11.4111V18.9765ZM16.6826 15.9058H17.8546V17.0778H16.6826V15.9058ZM13.5573 15.9058H14.7292V17.0778H13.5573V15.9058Z" fill="#00512E"/>
<path d="M3.11536 0C1.39756 0 0 1.39756 0 3.11536C0 3.9879 0.477793 4.94778 1.42018 5.96825C2.08247 6.68547 2.73933 7.17381 2.76695 7.19428L3.11536 7.45191L3.46377 7.19428C3.49143 7.17385 4.14826 6.68547 4.81055 5.96825C5.75293 4.94774 6.23072 3.9879 6.23072 3.11536C6.23072 1.39756 4.83317 0 3.11536 0ZM3.70132 3.70136H2.5294V2.52936H3.70132V3.70136Z" fill="#00512E"/>
</svg>
