<svg width="15" height="15" viewBox="0 0 15 15" fill="none" xmlns="http://www.w3.org/2000/svg">
<path fill-rule="evenodd" clip-rule="evenodd" d="M7.53516 14.3242C11.3166 14.1318 14.333 10.9954 14.333 7.16699C14.3329 3.21517 11.1188 0.000175476 7.16699 0C3.21505 0 8.84682e-05 3.21507 0 7.16699C0 11.119 3.21499 14.334 7.16699 14.334L7.53516 14.3242ZM1.53223 4.66699C2.3439 2.84516 4.01213 1.48715 6.02344 1.1084C5.46314 1.88783 4.74154 3.10985 4.3291 4.66699L1.53223 4.66699ZM10.0049 4.66699C9.59225 3.10939 8.86897 1.88782 8.30859 1.1084C10.3205 1.48683 11.99 2.84466 12.8018 4.66699L10.0049 4.66699ZM5.37305 4.66699C5.85618 3.05267 6.69212 1.85275 7.16602 1.2627C7.63983 1.85304 8.4767 3.05247 8.95996 4.66699H5.37305ZM10.2158 8.66699C10.2907 8.19095 10.334 7.69019 10.334 7.16699C10.334 6.64381 10.2907 6.14303 10.2158 5.66699L13.1475 5.66699C13.268 6.14743 13.333 6.64972 13.333 7.16699C13.333 7.68421 13.268 8.1866 13.1475 8.66699H10.2158ZM5.13477 8.66699C5.05 8.19272 5 7.69158 5 7.16699C5 6.64243 5.05001 6.14128 5.13477 5.66699H9.19824C9.283 6.14126 9.33301 6.64242 9.33301 7.16699C9.33301 7.69156 9.283 8.1927 9.19824 8.66699L5.13477 8.66699ZM1.18555 8.66699C1.06502 8.18662 1 7.68418 1 7.16699C1.00001 6.64975 1.06498 6.1474 1.18555 5.66699L4.11816 5.66699C4.04329 6.14305 4 6.64378 4 7.16699C4 7.6902 4.04327 8.19093 4.11816 8.66699H1.18555ZM6.02441 13.2266C4.0124 12.848 2.34296 11.4895 1.53125 9.66699H4.3291C4.74181 11.2248 5.46402 12.4472 6.02441 13.2266ZM7.16602 13.0713C6.69214 12.4808 5.85619 11.2811 5.37305 9.66699L8.95996 9.66699C8.4767 11.2817 7.63984 12.4814 7.16602 13.0713ZM8.30859 13.2266C8.86904 12.4472 9.59219 11.2251 10.0049 9.66699H12.8018C11.99 11.4895 10.3207 12.8481 8.30859 13.2266Z" fill="#00512E"/>
</svg>
