<svg width="106" height="32" viewBox="0 0 106 32" fill="none" xmlns="http://www.w3.org/2000/svg">
<g clip-path="url(#clip0_591_4450)">
<path d="M27.8703 0H4.15267C1.85922 0 0 1.85788 0 4.1497V27.8503C0 30.1421 1.85922 32 4.15267 32H27.8703C30.1637 32 32.0229 30.1421 32.0229 27.8503V4.1497C32.0229 1.85788 30.1637 0 27.8703 0Z" fill="url(#paint0_linear_591_4450)"/>
<path d="M50.1539 3.87232C52.8834 3.87232 55.1789 5.19318 56.6748 7.14144L54.3991 8.80793C53.4231 7.42323 51.8216 6.53385 50.1957 6.53385C47.3142 6.53385 45.0407 8.63401 45.0407 11.7072C45.0407 14.7804 47.3583 16.9026 50.1957 16.9026C51.9515 16.9026 53.5311 16.0572 54.463 14.6505L56.7387 16.317C55.3089 18.2653 53.0134 19.5861 50.2178 19.5861C45.4527 19.5861 42.0732 16.1431 42.0732 11.7072C42.0732 7.27133 45.4747 3.87012 50.1539 3.87012V3.87232Z" fill="#0F1E17"/>
<path d="M57.9526 19.3065V4.1519H60.7901V19.3065H57.9526Z" fill="#0F1E17"/>
<path d="M65.9893 12.8343L69.2828 12.5966V12.1629C69.2828 11.0578 68.5469 10.3886 67.2251 10.3886C66.2074 10.3886 65.2534 10.7144 64.2577 11.3836L63.0659 9.36929C64.3656 8.41607 65.8615 7.87452 67.571 7.87452C70.2565 7.87452 72.0343 9.43313 72.0343 11.8151V16.2091C72.0343 16.568 72.3251 16.8586 72.6842 16.8586H73.2482V19.3043H71.9264C70.8425 19.3043 70.0208 18.8068 69.6308 17.9835C68.851 18.9785 67.6173 19.5861 66.1214 19.5861C63.8898 19.5861 62.2441 18.1354 62.2441 16.1651C62.2441 14.1948 63.61 13.0039 65.9915 12.8321L65.9893 12.8343ZM66.7471 17.4221C68.1548 17.4221 69.2828 16.5129 69.2828 15.388C69.2828 15.005 68.9523 14.7034 68.5712 14.7364L66.3792 14.9323C65.4253 15.0182 64.9494 15.4078 64.9494 16.1453C64.9494 16.9246 65.6852 17.4221 66.7471 17.4221Z" fill="#0F1E17"/>
<path d="M74.1118 15.7777H76.7973C77.0793 16.9026 78.075 17.3803 79.2889 17.3803C80.3287 17.3803 80.8927 16.9048 80.8927 16.2334C80.8927 15.7777 80.5248 15.388 79.7669 15.1943L77.4494 14.6527C75.3697 14.1552 74.3079 13.0721 74.3079 11.3616C74.3079 9.21739 76.0835 7.83269 78.4892 7.83269C81.3487 7.83269 83.0825 9.52119 83.4063 11.6654H80.7407C80.4367 10.4964 79.3968 10.0209 78.465 10.0209C77.5331 10.0209 77.0793 10.4766 77.0793 11.06C77.0793 11.6434 77.5353 12.0352 78.4231 12.251L80.5688 12.7705C82.6264 13.268 83.6442 14.3511 83.6442 16.0176C83.6442 18.0297 81.9986 19.5685 79.2889 19.5685C76.3435 19.5685 74.5436 17.9241 74.1118 15.7799V15.7777Z" fill="#0F1E17"/>
<path d="M84.5981 15.7777H87.2836C87.5656 16.9026 88.5614 17.3803 89.7752 17.3803C90.815 17.3803 91.379 16.9048 91.379 16.2334C91.379 15.7777 91.0111 15.388 90.2533 15.1943L87.9357 14.6527C85.8561 14.1552 84.7942 13.0721 84.7942 11.3616C84.7942 9.21739 86.5698 7.83269 88.9755 7.83269C91.835 7.83269 93.5688 9.52119 93.8926 11.6654H91.227C90.923 10.4964 89.8832 10.0209 88.9513 10.0209C88.0194 10.0209 87.5656 10.4766 87.5656 11.06C87.5656 11.6434 88.0216 12.0352 88.9094 12.251L91.0552 12.7705C93.1128 13.268 94.1306 14.3511 94.1306 16.0176C94.1306 18.0297 92.4849 19.5685 89.7752 19.5685C86.8298 19.5685 85.0299 17.9241 84.5981 15.7799V15.7777Z" fill="#0F1E17"/>
<path d="M96.5118 16.4931V10.5471H94.3242V8.11447H96.5118V7.68079C96.5118 6.12658 97.7719 4.86736 99.3273 4.86736V8.11447H101.814V9.05228C101.814 9.87782 101.145 10.5449 100.321 10.5449H99.3295V15.9934C99.3295 16.579 99.7414 16.8586 100.391 16.8586H101.799V19.3043H99.5894C97.5538 19.3043 96.514 18.0914 96.514 16.4909L96.5118 16.4931Z" fill="#2CB669"/>
<path d="M102.839 5.34287C102.839 4.4557 103.555 3.78426 104.443 3.78426C105.33 3.78426 106.002 4.4557 106.002 5.34287C106.002 6.23005 105.33 6.9235 104.443 6.9235C103.555 6.9235 102.839 6.23005 102.839 5.34287ZM105.848 19.3065H103.011V8.11447H105.848V19.3065Z" fill="#2CB669"/>
<path d="M48.0634 26.9983C48.1339 27.4562 48.4578 27.7248 48.9579 27.7248C49.4205 27.7248 49.6849 27.4981 49.6849 27.1657C49.6849 26.8861 49.491 26.7034 49.1187 26.5999L48.493 26.4282C47.863 26.2565 47.5457 25.9218 47.5457 25.4045C47.5457 24.7529 48.0745 24.3236 48.7794 24.3236C49.5284 24.3236 50.0616 24.8035 50.1541 25.5124H49.6055C49.524 25.0655 49.2398 24.8013 48.775 24.8013C48.3917 24.8013 48.1075 25.0171 48.1075 25.3605C48.1075 25.6357 48.3014 25.8118 48.6516 25.9086L49.2883 26.0804C49.9514 26.2631 50.2466 26.5801 50.2466 27.1084C50.2466 27.738 49.7399 28.2003 48.9601 28.2003C48.1802 28.2003 47.581 27.716 47.5171 26.9939H48.0656L48.0634 26.9983Z" fill="#0F1E17"/>
<path d="M51.2536 28.1519H50.7095V25.4067H51.2536V25.6973C51.4431 25.4772 51.7162 25.3473 52.0291 25.3473C52.4432 25.3473 52.7671 25.552 52.9279 25.8646C53.1063 25.5476 53.4346 25.3473 53.8267 25.3473C54.4348 25.3473 54.8511 25.8052 54.8511 26.3797V28.1497H54.307V26.492C54.307 26.1046 54.058 25.836 53.6923 25.836C53.3266 25.836 53.0513 26.1112 53.0513 26.5096V28.1519H52.5071V26.4942C52.5071 26.1068 52.2604 25.8382 51.8925 25.8382C51.5246 25.8382 51.2514 26.1134 51.2514 26.5118V28.1541L51.2536 28.1519Z" fill="#0F1E17"/>
<path d="M56.1483 26.5911L57.0053 26.5272V26.3489C57.0053 26.0363 56.8004 25.8492 56.4391 25.8492C56.1748 25.8492 55.9324 25.9307 55.7011 26.1134L55.4588 25.7215C55.7452 25.4794 56.1043 25.3605 56.514 25.3605C57.1331 25.3605 57.5384 25.7215 57.5384 26.2807V27.5179C57.5384 27.6214 57.5913 27.6742 57.6993 27.6742H57.8402V28.1541H57.5715C57.3071 28.1541 57.1133 28.0242 57.0428 27.8107C56.8599 28.0638 56.5537 28.2135 56.1858 28.2135C55.6461 28.2135 55.2495 27.8745 55.2495 27.3946C55.2495 26.9147 55.5778 26.6307 56.1483 26.5933V26.5911ZM56.2937 27.7843C56.6859 27.7843 57.0053 27.5091 57.0053 27.1657V26.9389L56.2299 27.0028C55.928 27.0248 55.7716 27.1591 55.7716 27.3858C55.7716 27.6125 55.9875 27.7843 56.2937 27.7843Z" fill="#0F1E17"/>
<path d="M59.3429 25.891C58.9882 25.891 58.7282 26.1662 58.7282 26.5911V28.1519H58.1841V25.4067H58.7216V25.7457C58.856 25.5256 59.0763 25.3847 59.3781 25.3847H59.5676V25.891H59.3407H59.3429Z" fill="#0F1E17"/>
<path d="M60.2921 27.5597V25.8866H59.77V25.4067H60.2921V24.5988H60.8363V25.4067H61.4663V25.8866H60.8363V27.443C60.8363 27.5927 60.9376 27.6742 61.105 27.6742H61.4663V28.1541H60.9442C60.5235 28.1541 60.2921 27.9075 60.2921 27.5619V27.5597Z" fill="#0F1E17"/>
<path d="M63.3457 26.9983C63.4162 27.4562 63.74 27.7248 64.2401 27.7248C64.7027 27.7248 64.9671 27.4981 64.9671 27.1657C64.9671 26.8861 64.7732 26.7034 64.4009 26.5999L63.7752 26.4282C63.1452 26.2565 62.828 25.9218 62.828 25.4045C62.828 24.7529 63.3567 24.3236 64.0616 24.3236C64.8107 24.3236 65.3438 24.8035 65.4363 25.5124H64.8878C64.8063 25.0655 64.5221 24.8013 64.0572 24.8013C63.6739 24.8013 63.3897 25.0171 63.3897 25.3605C63.3897 25.6357 63.5836 25.8118 63.9339 25.9086L64.5705 26.0804C65.2336 26.2631 65.5288 26.5801 65.5288 27.1084C65.5288 27.738 65.0222 28.2003 64.2423 28.2003C63.4624 28.2003 62.8632 27.716 62.7993 26.9939H63.3479L63.3457 26.9983Z" fill="#0F1E17"/>
<path d="M67.3642 27.7358C67.6814 27.7358 67.9568 27.5795 68.1353 27.333L68.534 27.6236C68.2652 27.978 67.8819 28.2157 67.3642 28.2157C66.5293 28.2157 65.8882 27.5751 65.8882 26.7848C65.8882 25.9945 66.5293 25.3473 67.3642 25.3473C67.8819 25.3473 68.263 25.585 68.534 25.9439L68.1353 26.23C67.9568 25.9879 67.6836 25.8316 67.3642 25.8316C66.8465 25.8316 66.4323 26.2455 66.4323 26.7848C66.4323 27.3242 66.8465 27.738 67.3642 27.738V27.7358Z" fill="#0F1E17"/>
<path d="M69.4104 28.1519H68.8662V24.3852H69.4104V25.7083C69.6042 25.4816 69.895 25.3473 70.2233 25.3473C70.8489 25.3473 71.2741 25.8096 71.2741 26.3974V28.1519H70.73V26.5052C70.73 26.1068 70.4722 25.8382 70.0845 25.8382C69.6967 25.8382 69.4104 26.1134 69.4104 26.5206V28.1519Z" fill="#0F1E17"/>
<path d="M73.1757 28.2157C72.3562 28.2157 71.6997 27.5707 71.6997 26.7782C71.6997 25.9857 72.3562 25.3473 73.1757 25.3473C73.9952 25.3473 74.6517 25.9879 74.6517 26.7782C74.6517 27.5685 73.9952 28.2157 73.1757 28.2157ZM73.1757 25.8316C72.658 25.8316 72.2439 26.2521 72.2439 26.7782C72.2439 27.3043 72.658 27.7314 73.1757 27.7314C73.6934 27.7314 74.1076 27.311 74.1076 26.7782C74.1076 26.2455 73.6934 25.8316 73.1757 25.8316Z" fill="#0F1E17"/>
<path d="M76.4492 28.2157C75.6296 28.2157 74.9731 27.5707 74.9731 26.7782C74.9731 25.9857 75.6296 25.3473 76.4492 25.3473C77.2687 25.3473 77.9252 25.9879 77.9252 26.7782C77.9252 27.5685 77.2687 28.2157 76.4492 28.2157ZM76.4492 25.8316C75.9314 25.8316 75.5173 26.2521 75.5173 26.7782C75.5173 27.3043 75.9314 27.7314 76.4492 27.7314C76.9669 27.7314 77.381 27.311 77.381 26.7782C77.381 26.2455 76.9669 25.8316 76.4492 25.8316Z" fill="#0F1E17"/>
<path d="M78.3525 28.1519V24.3852H78.8967V28.1519H78.3525Z" fill="#0F1E17"/>
<path d="M80.5225 28.1519V24.3852H81.1481L83.2432 27.366L83.2388 24.3852H83.7675V28.1519H83.1418L81.0468 25.1646L81.0512 28.1519H80.5225Z" fill="#0F1E17"/>
<path d="M85.6226 25.3517C86.4135 25.3517 86.9951 25.9593 86.9951 26.7782V26.9565H84.759C84.8339 27.4034 85.2062 27.7358 85.6688 27.7358C85.9861 27.7358 86.2548 27.6059 86.4597 27.333L86.8519 27.6236C86.5765 27.989 86.1689 28.2113 85.6666 28.2113C84.8427 28.2113 84.2061 27.5971 84.2061 26.7804C84.2061 26.0055 84.8141 25.3539 85.6182 25.3539L85.6226 25.3517ZM84.7722 26.525H86.4465C86.354 26.1046 86.0147 25.825 85.6116 25.825C85.2084 25.825 84.8692 26.1046 84.7722 26.525Z" fill="#0F1E17"/>
<path d="M87.6803 27.5597V25.8866H87.1582V25.4067H87.6803V24.5988H88.2245V25.4067H88.8545V25.8866H88.2245V27.443C88.2245 27.5927 88.3258 27.6742 88.4932 27.6742H88.8545V28.1541H88.3324C87.9116 28.1541 87.6803 27.9075 87.6803 27.5619V27.5597Z" fill="#0F1E17"/>
<path d="M91.1982 25.4067L91.8547 27.3396L92.4099 25.4067H92.965L92.1345 28.1519H91.6454L90.9625 26.1662L90.284 28.1519H89.7949L88.96 25.4067H89.5371L90.0857 27.3396L90.7488 25.4067H91.2004H91.1982Z" fill="#0F1E17"/>
<path d="M94.5493 28.2157C93.7297 28.2157 93.0732 27.5707 93.0732 26.7782C93.0732 25.9857 93.7297 25.3473 94.5493 25.3473C95.3688 25.3473 96.0253 25.9879 96.0253 26.7782C96.0253 27.5685 95.3688 28.2157 94.5493 28.2157ZM94.5493 25.8316C94.0315 25.8316 93.6174 26.2521 93.6174 26.7782C93.6174 27.3043 94.0315 27.7314 94.5493 27.7314C95.067 27.7314 95.4811 27.311 95.4811 26.7782C95.4811 26.2455 95.067 25.8316 94.5493 25.8316Z" fill="#0F1E17"/>
<path d="M97.607 25.891C97.2523 25.891 96.9924 26.1662 96.9924 26.5911V28.1519H96.4482V25.4067H96.9858V25.7457C97.1202 25.5256 97.3405 25.3847 97.6423 25.3847H97.8317V25.891H97.6048H97.607Z" fill="#0F1E17"/>
<path d="M98.7395 24.383V26.6175L99.8498 25.4067H100.495L99.2461 26.7298L100.561 28.1497H99.8762L98.7395 26.8905V28.1497H98.1953V24.383H98.7395Z" fill="#0F1E17"/>
<path d="M14.6258 5.29884H9.23726C8.88563 5.29884 8.60059 5.58369 8.60059 5.93506V11.3198C8.60059 11.6711 8.88563 11.956 9.23726 11.956H14.6258C14.9774 11.956 15.2625 11.6711 15.2625 11.3198V5.93506C15.2625 5.58369 14.9774 5.29884 14.6258 5.29884Z" fill="#EDEDED"/>
<path d="M16.7784 13.891V19.41C16.7784 19.76 17.0625 20.0462 17.415 20.0462H22.7882C23.1384 20.0462 23.4248 20.3302 23.4248 20.6824V26.0693C23.4248 26.4194 23.1406 26.7056 22.7882 26.7056H16.7629C13.0905 26.6968 10.1187 23.7182 10.1187 20.0484V13.8294C10.1187 13.4794 10.4028 13.1932 10.7553 13.1932H16.1285C16.4787 13.1932 16.7651 12.9092 16.7651 12.557V7.2383C16.7651 6.88828 17.0493 6.60209 17.4018 6.60209H22.7926C23.1428 6.60209 23.4292 6.88607 23.4292 7.2383V12.623C23.4292 12.973 23.145 13.2592 22.7926 13.2592H17.4194C17.0691 13.2592 16.7828 13.5432 16.7828 13.8954L16.7784 13.891Z" fill="white"/>
</g>
<defs>
<linearGradient id="paint0_linear_591_4450" x1="14.4451" y1="17.9174" x2="-5.80514" y2="42.7088" gradientUnits="userSpaceOnUse">
<stop stop-color="#2CB669"/>
<stop offset="0.44" stop-color="#1B8C4B"/>
<stop offset="0.79" stop-color="#107138"/>
<stop offset="1" stop-color="#0D6831"/>
</linearGradient>
<clipPath id="clip0_591_4450">
<rect width="106" height="32" fill="white"/>
</clipPath>
</defs>
</svg>
