<svg width="106" height="32" viewBox="0 0 106 32" fill="none" xmlns="http://www.w3.org/2000/svg">
<g clip-path="url(#clip0_591_5493)">
<path d="M27.8703 0H4.15267C1.85922 0 0 1.85788 0 4.1497V27.8503C0 30.1421 1.85922 32 4.15267 32H27.8703C30.1637 32 32.0229 30.1421 32.0229 27.8503V4.1497C32.0229 1.85788 30.1637 0 27.8703 0Z" fill="url(#paint0_linear_591_5493)"/>
<path d="M50.1539 3.87232C52.8834 3.87232 55.1789 5.19318 56.6748 7.14144L54.3991 8.80793C53.4231 7.42323 51.8216 6.53385 50.1957 6.53385C47.3142 6.53385 45.0407 8.63401 45.0407 11.7072C45.0407 14.7804 47.3583 16.9026 50.1957 16.9026C51.9515 16.9026 53.5311 16.0572 54.463 14.6505L56.7387 16.317C55.3089 18.2653 53.0134 19.5861 50.2178 19.5861C45.4527 19.5861 42.0732 16.1431 42.0732 11.7072C42.0732 7.27133 45.4747 3.87012 50.1539 3.87012V3.87232Z" fill="white"/>
<path d="M57.9526 19.3065V4.15186H60.7901V19.3065H57.9526Z" fill="white"/>
<path d="M65.9893 12.8343L69.2828 12.5966V12.1629C69.2828 11.0578 68.5469 10.3885 67.2251 10.3885C66.2074 10.3885 65.2534 10.7144 64.2577 11.3836L63.0659 9.36928C64.3656 8.41606 65.8615 7.87451 67.571 7.87451C70.2565 7.87451 72.0343 9.43312 72.0343 11.8151V16.2091C72.0343 16.568 72.3251 16.8586 72.6842 16.8586H73.2482V19.3043H71.9264C70.8425 19.3043 70.0208 18.8068 69.6308 17.9835C68.851 18.9785 67.6173 19.5861 66.1214 19.5861C63.8898 19.5861 62.2441 18.1354 62.2441 16.1651C62.2441 14.1948 63.61 13.0038 65.9915 12.8321L65.9893 12.8343ZM66.7471 17.4221C68.1548 17.4221 69.2828 16.5129 69.2828 15.388C69.2828 15.0049 68.9523 14.7034 68.5712 14.7364L66.3792 14.9323C65.4253 15.0182 64.9494 15.4078 64.9494 16.1453C64.9494 16.9246 65.6852 17.4221 66.7471 17.4221Z" fill="white"/>
<path d="M74.1118 15.7775H76.7973C77.0793 16.9024 78.075 17.3801 79.2889 17.3801C80.3287 17.3801 80.8927 16.9046 80.8927 16.2332C80.8927 15.7775 80.5248 15.3878 79.7669 15.1941L77.4494 14.6526C75.3697 14.155 74.3079 13.0719 74.3079 11.3614C74.3079 9.21722 76.0835 7.83252 78.4892 7.83252C81.3487 7.83252 83.0825 9.52102 83.4063 11.6652H80.7407C80.4367 10.4963 79.3968 10.0207 78.465 10.0207C77.5331 10.0207 77.0793 10.4764 77.0793 11.0598C77.0793 11.6432 77.5353 12.0351 78.4231 12.2508L80.5688 12.7703C82.6264 13.2679 83.6442 14.351 83.6442 16.0174C83.6442 18.0295 81.9986 19.5683 79.2889 19.5683C76.3435 19.5683 74.5436 17.9239 74.1118 15.7797V15.7775Z" fill="white"/>
<path d="M84.5981 15.7775H87.2836C87.5656 16.9024 88.5614 17.3801 89.7752 17.3801C90.815 17.3801 91.379 16.9046 91.379 16.2332C91.379 15.7775 91.0111 15.3878 90.2533 15.1941L87.9357 14.6526C85.8561 14.155 84.7942 13.0719 84.7942 11.3614C84.7942 9.21722 86.5698 7.83252 88.9755 7.83252C91.835 7.83252 93.5688 9.52102 93.8926 11.6652H91.227C90.923 10.4963 89.8832 10.0207 88.9513 10.0207C88.0194 10.0207 87.5656 10.4764 87.5656 11.0598C87.5656 11.6432 88.0216 12.0351 88.9094 12.2508L91.0552 12.7703C93.1128 13.2679 94.1306 14.351 94.1306 16.0174C94.1306 18.0295 92.4849 19.5683 89.7752 19.5683C86.8298 19.5683 85.0299 17.9239 84.5981 15.7797V15.7775Z" fill="white"/>
<path d="M96.5118 16.4929V10.5469H94.3242V8.1143H96.5118V7.68062C96.5118 6.12641 97.7719 4.86719 99.3273 4.86719V8.1143H101.814V9.05211C101.814 9.87764 101.145 10.5447 100.321 10.5447H99.3295V15.9932C99.3295 16.5788 99.7414 16.8584 100.391 16.8584H101.799V19.3042H99.5894C97.5538 19.3042 96.514 18.0912 96.514 16.4907L96.5118 16.4929Z" fill="#2CB669"/>
<path d="M102.839 5.34279C102.839 4.45562 103.555 3.78418 104.443 3.78418C105.33 3.78418 106.002 4.45562 106.002 5.34279C106.002 6.22997 105.33 6.92342 104.443 6.92342C103.555 6.92342 102.839 6.22997 102.839 5.34279ZM105.848 19.3065H103.011V8.11439H105.848V19.3065Z" fill="#2CB669"/>
<path d="M48.0634 26.9985C48.1339 27.4564 48.4578 27.7249 48.9579 27.7249C49.4205 27.7249 49.6849 27.4982 49.6849 27.1658C49.6849 26.8862 49.491 26.7035 49.1187 26.6L48.493 26.4283C47.863 26.2566 47.5457 25.922 47.5457 25.4046C47.5457 24.753 48.0745 24.3237 48.7794 24.3237C49.5284 24.3237 50.0616 24.8036 50.1541 25.5125H49.6055C49.524 25.0656 49.2398 24.8014 48.775 24.8014C48.3917 24.8014 48.1075 25.0172 48.1075 25.3606C48.1075 25.6358 48.3014 25.8119 48.6516 25.9088L49.2883 26.0805C49.9514 26.2632 50.2466 26.5802 50.2466 27.1085C50.2466 27.7382 49.7399 28.2005 48.9601 28.2005C48.1802 28.2005 47.581 27.7161 47.5171 26.9941H48.0656L48.0634 26.9985Z" fill="white"/>
<path d="M51.2536 28.1518H50.7095V25.4066H51.2536V25.6972C51.4431 25.4771 51.7162 25.3472 52.0291 25.3472C52.4432 25.3472 52.7671 25.5519 52.9279 25.8645C53.1063 25.5475 53.4346 25.3472 53.8267 25.3472C54.4348 25.3472 54.8511 25.8051 54.8511 26.3796V28.1496H54.307V26.4919C54.307 26.1045 54.058 25.8359 53.6923 25.8359C53.3266 25.8359 53.0513 26.1111 53.0513 26.5095V28.1518H52.5071V26.4941C52.5071 26.1067 52.2604 25.8381 51.8925 25.8381C51.5246 25.8381 51.2514 26.1133 51.2514 26.5117V28.154L51.2536 28.1518Z" fill="white"/>
<path d="M56.1483 26.5914L57.0053 26.5276V26.3493C57.0053 26.0367 56.8004 25.8496 56.4391 25.8496C56.1748 25.8496 55.9324 25.931 55.7011 26.1137L55.4588 25.7219C55.7452 25.4797 56.1043 25.3608 56.514 25.3608C57.1331 25.3608 57.5384 25.7219 57.5384 26.281V27.5182C57.5384 27.6217 57.5913 27.6745 57.6993 27.6745H57.8402V28.1545H57.5715C57.3071 28.1545 57.1133 28.0246 57.0428 27.811C56.8599 28.0642 56.5537 28.2139 56.1858 28.2139C55.6461 28.2139 55.2495 27.8749 55.2495 27.395C55.2495 26.9151 55.5778 26.6311 56.1483 26.5936V26.5914ZM56.2937 27.7846C56.6859 27.7846 57.0053 27.5094 57.0053 27.166V26.9393L56.2299 27.0031C55.928 27.0251 55.7716 27.1594 55.7716 27.3862C55.7716 27.6129 55.9875 27.7846 56.2937 27.7846Z" fill="white"/>
<path d="M59.3429 25.8911C58.9882 25.8911 58.7282 26.1663 58.7282 26.5912V28.152H58.1841V25.4068H58.7216V25.7458C58.856 25.5257 59.0763 25.3848 59.3781 25.3848H59.5676V25.8911H59.3407H59.3429Z" fill="white"/>
<path d="M60.2921 27.56V25.887H59.77V25.407H60.2921V24.5991H60.8363V25.407H61.4663V25.887H60.8363V27.4434C60.8363 27.5931 60.9376 27.6745 61.105 27.6745H61.4663V28.1544H60.9442C60.5235 28.1544 60.2921 27.9079 60.2921 27.5622V27.56Z" fill="white"/>
<path d="M63.3457 26.9985C63.4162 27.4564 63.74 27.7249 64.2401 27.7249C64.7027 27.7249 64.9671 27.4982 64.9671 27.1658C64.9671 26.8862 64.7732 26.7035 64.4009 26.6L63.7752 26.4283C63.1452 26.2566 62.828 25.922 62.828 25.4046C62.828 24.753 63.3567 24.3237 64.0616 24.3237C64.8107 24.3237 65.3438 24.8036 65.4363 25.5125H64.8878C64.8063 25.0656 64.5221 24.8014 64.0572 24.8014C63.6739 24.8014 63.3897 25.0172 63.3897 25.3606C63.3897 25.6358 63.5836 25.8119 63.9339 25.9088L64.5705 26.0805C65.2336 26.2632 65.5288 26.5802 65.5288 27.1085C65.5288 27.7382 65.0221 28.2005 64.2423 28.2005C63.4624 28.2005 62.8632 27.7161 62.7993 26.9941H63.3479L63.3457 26.9985Z" fill="white"/>
<path d="M67.3642 27.7357C67.6814 27.7357 67.9568 27.5794 68.1353 27.3329L68.534 27.6234C68.2652 27.9779 67.8819 28.2156 67.3642 28.2156C66.5293 28.2156 65.8882 27.575 65.8882 26.7847C65.8882 25.9944 66.5293 25.3472 67.3642 25.3472C67.8819 25.3472 68.263 25.5849 68.534 25.9438L68.1353 26.2299C67.9568 25.9878 67.6836 25.8315 67.3642 25.8315C66.8465 25.8315 66.4323 26.2454 66.4323 26.7847C66.4323 27.3241 66.8465 27.7379 67.3642 27.7379V27.7357Z" fill="white"/>
<path d="M69.4104 28.1519H68.8662V24.3853H69.4104V25.7083C69.6042 25.4816 69.895 25.3473 70.2233 25.3473C70.8489 25.3473 71.2741 25.8096 71.2741 26.3974V28.1519H70.73V26.5052C70.73 26.1068 70.4722 25.8382 70.0845 25.8382C69.6967 25.8382 69.4104 26.1134 69.4104 26.5206V28.1519Z" fill="white"/>
<path d="M73.1757 28.2156C72.3562 28.2156 71.6997 27.5706 71.6997 26.7781C71.6997 25.9856 72.3562 25.3472 73.1757 25.3472C73.9952 25.3472 74.6517 25.9878 74.6517 26.7781C74.6517 27.5684 73.9952 28.2156 73.1757 28.2156ZM73.1757 25.8315C72.658 25.8315 72.2439 26.252 72.2439 26.7781C72.2439 27.3042 72.658 27.7313 73.1757 27.7313C73.6934 27.7313 74.1076 27.3108 74.1076 26.7781C74.1076 26.2454 73.6934 25.8315 73.1757 25.8315Z" fill="white"/>
<path d="M76.4492 28.2156C75.6296 28.2156 74.9731 27.5706 74.9731 26.7781C74.9731 25.9856 75.6296 25.3472 76.4492 25.3472C77.2687 25.3472 77.9252 25.9878 77.9252 26.7781C77.9252 27.5684 77.2687 28.2156 76.4492 28.2156ZM76.4492 25.8315C75.9314 25.8315 75.5173 26.252 75.5173 26.7781C75.5173 27.3042 75.9314 27.7313 76.4492 27.7313C76.9669 27.7313 77.381 27.3108 77.381 26.7781C77.381 26.2454 76.9669 25.8315 76.4492 25.8315Z" fill="white"/>
<path d="M78.3525 28.1519V24.3853H78.8967V28.1519H78.3525Z" fill="white"/>
<path d="M80.5225 28.1519V24.3853H81.1481L83.2432 27.366L83.2388 24.3853H83.7675V28.1519H83.1418L81.0468 25.1646L81.0512 28.1519H80.5225Z" fill="white"/>
<path d="M85.6226 25.3516C86.4135 25.3516 86.9951 25.9592 86.9951 26.7781V26.9564H84.759C84.8339 27.4033 85.2062 27.7357 85.6688 27.7357C85.9861 27.7357 86.2548 27.6058 86.4597 27.3329L86.8519 27.6234C86.5765 27.9889 86.1689 28.2112 85.6666 28.2112C84.8427 28.2112 84.2061 27.597 84.2061 26.7803C84.2061 26.0054 84.8141 25.3538 85.6182 25.3538L85.6226 25.3516ZM84.7722 26.5249H86.4465C86.354 26.1045 86.0147 25.8249 85.6116 25.8249C85.2084 25.8249 84.8692 26.1045 84.7722 26.5249Z" fill="white"/>
<path d="M87.6803 27.56V25.887H87.1582V25.407H87.6803V24.5991H88.2245V25.407H88.8545V25.887H88.2245V27.4434C88.2245 27.5931 88.3258 27.6745 88.4932 27.6745H88.8545V28.1544H88.3324C87.9116 28.1544 87.6803 27.9079 87.6803 27.5622V27.56Z" fill="white"/>
<path d="M91.1982 25.4067L91.8547 27.3396L92.4099 25.4067H92.965L92.1345 28.1519H91.6454L90.9625 26.1662L90.284 28.1519H89.7949L88.96 25.4067H89.5371L90.0857 27.3396L90.7488 25.4067H91.2004H91.1982Z" fill="white"/>
<path d="M94.5493 28.2156C93.7297 28.2156 93.0732 27.5706 93.0732 26.7781C93.0732 25.9856 93.7297 25.3472 94.5493 25.3472C95.3688 25.3472 96.0253 25.9878 96.0253 26.7781C96.0253 27.5684 95.3688 28.2156 94.5493 28.2156ZM94.5493 25.8315C94.0315 25.8315 93.6174 26.252 93.6174 26.7781C93.6174 27.3042 94.0315 27.7313 94.5493 27.7313C95.067 27.7313 95.4811 27.3108 95.4811 26.7781C95.4811 26.2454 95.067 25.8315 94.5493 25.8315Z" fill="white"/>
<path d="M97.607 25.8911C97.2523 25.8911 96.9924 26.1663 96.9924 26.5912V28.152H96.4482V25.4068H96.9858V25.7458C97.1202 25.5257 97.3405 25.3848 97.6423 25.3848H97.8317V25.8911H97.6048H97.607Z" fill="white"/>
<path d="M98.7395 24.3833V26.6178L99.8498 25.407H100.495L99.2461 26.73L100.561 28.1499H99.8762L98.7395 26.8907V28.1499H98.1953V24.3833H98.7395Z" fill="white"/>
<path d="M14.6258 5.29883H9.23726C8.88563 5.29883 8.60059 5.58367 8.60059 5.93504V11.3197C8.60059 11.6711 8.88563 11.956 9.23726 11.956H14.6258C14.9774 11.956 15.2625 11.6711 15.2625 11.3197V5.93504C15.2625 5.58367 14.9774 5.29883 14.6258 5.29883Z" fill="#EDEDED"/>
<path d="M16.7784 13.891V19.41C16.7784 19.76 17.0625 20.0462 17.415 20.0462H22.7882C23.1384 20.0462 23.4248 20.3302 23.4248 20.6824V26.0693C23.4248 26.4193 23.1406 26.7055 22.7882 26.7055H16.7629C13.0905 26.6967 10.1187 23.7182 10.1187 20.0484V13.8293C10.1187 13.4793 10.4028 13.1931 10.7553 13.1931H16.1285C16.4787 13.1931 16.7651 12.9092 16.7651 12.5569V7.23826C16.7651 6.88824 17.0493 6.60205 17.4018 6.60205H22.7926C23.1428 6.60205 23.4292 6.88604 23.4292 7.23826V12.623C23.4292 12.973 23.145 13.2592 22.7926 13.2592H17.4194C17.0691 13.2592 16.7828 13.5432 16.7828 13.8954L16.7784 13.891Z" fill="white"/>
</g>
<defs>
<linearGradient id="paint0_linear_591_5493" x1="14.4451" y1="17.9174" x2="-5.80514" y2="42.7088" gradientUnits="userSpaceOnUse">
<stop stop-color="#2CB669"/>
<stop offset="0.44" stop-color="#1B8C4B"/>
<stop offset="0.79" stop-color="#107138"/>
<stop offset="1" stop-color="#0D6831"/>
</linearGradient>
<clipPath id="clip0_591_5493">
<rect width="106" height="32" fill="white"/>
</clipPath>
</defs>
</svg>
