<svg width="24" height="24" viewBox="0 0 24 24" fill="none" xmlns="http://www.w3.org/2000/svg">
<path d="M15.6918 10.4059C17.0134 9.33051 17.8594 7.69208 17.8594 5.85938C17.8594 2.62848 15.2309 0 12 0C8.7691 0 6.14063 2.62848 6.14063 5.85938C6.14063 7.69208 6.98657 9.33051 8.30823 10.4059C4.69757 11.0045 1.92188 14.4131 1.92188 18.5156V23.2969C1.92188 23.6852 2.23663 24 2.625 24H21.375C21.7634 24 22.0781 23.6852 22.0781 23.2969V18.5156C22.0781 14.4131 19.3024 11.0045 15.6918 10.4059ZM12.7031 11.7188V13.125H11.2969V11.7188H12.7031ZM11.1702 14.5312H12.8298L13.5727 18.2452L12 19.5661L10.4273 18.2452L11.1702 14.5312ZM7.54688 5.85938C7.54688 3.40393 9.54456 1.40625 12 1.40625C14.4554 1.40625 16.4531 3.40393 16.4531 5.85938C16.4531 8.31482 14.4554 10.3125 12 10.3125C9.54456 10.3125 7.54688 8.31482 7.54688 5.85938ZM20.6719 22.5938H3.32813V18.5156C3.32813 14.7678 6.07123 11.7188 9.44312 11.7188H9.89063V13.7585L8.96686 18.3777C8.9165 18.6295 9.00732 18.8888 9.20398 19.054L11.5477 21.0227C11.6785 21.1326 11.8392 21.1875 12 21.1875C12.1608 21.1875 12.3215 21.1326 12.4523 21.0227L14.796 19.054C14.9927 18.8888 15.0837 18.6295 15.0333 18.3777L14.1094 13.7585V11.7188H14.5569C17.9288 11.7188 20.6719 14.7678 20.6719 18.5156V22.5938Z" fill="#878F8F"/>
</svg>
