<svg width="24" height="24" viewBox="0 0 24 24" fill="none" xmlns="http://www.w3.org/2000/svg">
<path d="M19.7344 3.51562C19.7344 1.57711 18.1573 0 16.2188 0C14.2802 0 12.7031 1.57711 12.7031 3.51562C12.7031 5.45414 14.2802 7.03125 16.2188 7.03125C18.1573 7.03125 19.7344 5.45414 19.7344 3.51562ZM16.2188 5.625C15.0556 5.625 14.1094 4.67873 14.1094 3.51562C14.1094 2.35252 15.0556 1.40625 16.2188 1.40625C17.3819 1.40625 18.3281 2.35252 18.3281 3.51562C18.3281 4.67873 17.3819 5.625 16.2188 5.625Z" fill="#878F8F"/>
<path d="M2.85938 23.2969C2.85938 23.6852 3.17419 24 3.5625 24H20.4375C20.8258 24 21.1406 23.6852 21.1406 23.2969V16.8704C22.0232 15.6952 22.5469 14.2358 22.5469 12.6562C22.5469 9.55462 20.0235 7.03125 16.9219 7.03125H13.4062C12.8665 7.03125 12.3735 7.23502 12 7.56966C11.6265 7.23502 11.1335 7.03125 10.5938 7.03125H7.07812C3.9765 7.03125 1.45312 9.55462 1.45312 12.6562C1.45312 14.2358 1.97677 15.6952 2.85938 16.8704V23.2969ZM4.26562 18.2777C5.44158 19.1625 6.90277 19.6875 8.48438 19.6875V22.5938H4.26562V18.2777ZM11.2969 17.5781C11.2969 16.7404 10.806 16.0152 10.0967 15.675C10.224 15.5476 10.3998 15.4688 10.5938 15.4688H13.4062C13.6002 15.4688 13.776 15.5476 13.9033 15.675C13.194 16.0152 12.7031 16.7404 12.7031 17.5781C12.7031 18.4948 13.291 19.2763 14.1094 19.5666V22.5938H9.89062V19.5666C10.709 19.2763 11.2969 18.4948 11.2969 17.5781ZM15.5156 22.5938V19.6875C17.0972 19.6875 18.5584 19.1625 19.7344 18.2777V22.5938H15.5156ZM12 9.84375C12.7754 9.84375 13.4062 10.4746 13.4062 11.25C13.4062 12.0254 12.7754 12.6562 12 12.6562C11.2246 12.6562 10.5938 12.0254 10.5938 11.25C10.5938 10.4746 11.2246 9.84375 12 9.84375ZM7.07812 8.4375H10.5938C10.7664 8.4375 10.9245 8.50031 11.0471 8.604C9.96389 8.99531 9.1875 10.0335 9.1875 11.25C9.1875 12.8008 10.4492 14.0625 12 14.0625C13.5508 14.0625 14.8125 12.8008 14.8125 11.25C14.8125 10.0335 14.0361 8.99531 12.9529 8.604C13.0755 8.50031 13.2336 8.4375 13.4062 8.4375H16.9219C19.2481 8.4375 21.1406 10.33 21.1406 12.6562C21.1406 15.7579 18.6173 18.2812 15.5156 18.2812H14.8125C14.4248 18.2812 14.1094 17.9658 14.1094 17.5781C14.1094 17.1904 14.4248 16.875 14.8125 16.875H15.5156C17.8418 16.875 19.7344 14.9825 19.7344 12.6562C19.7344 12.2679 19.4196 11.9531 19.0312 11.9531C18.6429 11.9531 18.3281 12.2679 18.3281 12.6562C18.3281 14.2071 17.0664 15.4688 15.5156 15.4688H15.3947C15.1044 14.6504 14.3229 14.0625 13.4062 14.0625H10.5938C9.67711 14.0625 8.89556 14.6504 8.60531 15.4688H8.48438C6.93356 15.4688 5.67188 14.2071 5.67188 12.6562C5.67188 12.2679 5.35706 11.9531 4.96875 11.9531C4.58044 11.9531 4.26562 12.2679 4.26562 12.6562C4.26562 14.9825 6.15816 16.875 8.48438 16.875H9.1875C9.5752 16.875 9.89062 17.1904 9.89062 17.5781C9.89062 17.9658 9.5752 18.2812 9.1875 18.2812H8.48438C5.38275 18.2812 2.85938 15.7579 2.85938 12.6562C2.85938 10.33 4.75191 8.4375 7.07812 8.4375Z" fill="#878F8F"/>
<path d="M11.2969 3.51562C11.2969 1.57711 9.71977 0 7.78125 0C5.84273 0 4.26562 1.57711 4.26562 3.51562C4.26562 5.45414 5.84273 7.03125 7.78125 7.03125C9.71977 7.03125 11.2969 5.45414 11.2969 3.51562ZM7.78125 5.625C6.61814 5.625 5.67188 4.67873 5.67188 3.51562C5.67188 2.35252 6.61814 1.40625 7.78125 1.40625C8.94436 1.40625 9.89062 2.35252 9.89062 3.51562C9.89062 4.67873 8.94436 5.625 7.78125 5.625Z" fill="#878F8F"/>
</svg>
