<svg width="28" height="28" viewBox="0 0 28 28" fill="none" xmlns="http://www.w3.org/2000/svg">
<rect width="28" height="28" rx="8" fill="white" fill-opacity="0.05"/>
<path d="M16.6359 20C14.5323 20 12.2858 19.227 10.5294 17.4706C8.77585 15.7171 8 13.4721 8 11.3641C8 9.50619 9.50309 8 11.3641 8C11.5078 8 11.6371 8.08752 11.6905 8.22099L13.1967 11.9866C13.2688 12.1669 13.1812 12.3715 13.0009 12.4436L11.3463 13.1054C11.4633 15.009 12.9913 16.5369 14.8946 16.6538L15.5564 14.9991C15.6284 14.8192 15.8329 14.7312 16.0134 14.8033L19.779 16.3095C19.9125 16.3629 20 16.4922 20 16.6359C20 18.4938 18.4969 20 16.6359 20Z" fill="white"/>
</svg>
