<svg width="150" height="150" viewBox="0 0 150 150" fill="none" xmlns="http://www.w3.org/2000/svg">
<path d="M123.098 74.6669C123.098 101.444 101.347 123.152 74.5148 123.152C47.683 123.152 25.9314 101.444 25.9314 74.6669C25.9314 47.8895 47.683 26.1819 74.5148 26.1819C101.347 26.1819 123.098 47.8895 123.098 74.6669Z" fill="url(#paint0_linear_477_348)"/>
<path d="M65.2607 94.5717C67.1438 96.4765 70.1972 96.4765 72.0804 94.5717L101.548 64.7637C103.075 63.2194 103.075 60.7157 101.548 59.1714L97.8804 55.4614C96.3549 53.9172 93.8796 53.9172 92.3529 55.4614L71.4343 76.6207C69.9076 78.165 67.4335 78.165 65.9068 76.6207L57.6496 68.2685C56.1229 66.7242 53.6476 66.7242 52.1209 68.2685L48.4531 71.9785C46.9264 73.5227 46.9264 76.0265 48.4531 77.5707L65.2607 94.5717Z" fill="url(#paint1_linear_477_348)"/>
<path d="M15.0002 77.6457H2.50003C1.11751 77.6457 0 76.5305 0 75.1508C0 73.771 1.11751 72.6558 2.50003 72.6558H15.0002C16.3827 72.6558 17.5002 73.771 17.5002 75.1508C17.5002 76.5305 16.3827 77.6457 15.0002 77.6457Z" fill="url(#paint2_linear_477_348)"/>
<path d="M12.2194 113.823C11.3544 113.823 10.5144 113.376 10.0519 112.576C9.36185 111.38 9.77185 109.856 10.9669 109.167L21.792 102.93C22.9845 102.244 24.5145 102.648 25.207 103.843C25.897 105.038 25.487 106.563 24.292 107.251L13.4669 113.489C13.0744 113.716 12.6444 113.823 12.2194 113.823Z" fill="url(#paint3_linear_477_348)"/>
<path d="M38.7431 140.304C38.3181 140.304 37.8881 140.197 37.4956 139.97C36.2981 139.281 35.8881 137.754 36.5806 136.561L42.8307 125.758C43.5232 124.563 45.0507 124.154 46.2457 124.845C47.4407 125.536 47.8532 127.061 47.1607 128.253L40.9107 139.056C40.4456 139.855 39.6081 140.304 38.7431 140.304Z" fill="url(#paint4_linear_477_348)"/>
<path d="M74.9993 150C73.6168 150 72.4993 148.885 72.4993 147.505V135.03C72.4993 133.65 73.6168 132.535 74.9993 132.535C76.3818 132.535 77.4993 133.65 77.4993 135.03V147.505C77.4993 148.885 76.3818 150 74.9993 150Z" fill="url(#paint5_linear_477_348)"/>
<path d="M111.26 140.304C110.395 140.304 109.555 139.857 109.092 139.056L102.842 128.253C102.152 127.058 102.562 125.534 103.757 124.845C104.947 124.157 106.48 124.563 107.172 125.758L113.422 136.562C114.112 137.757 113.702 139.281 112.507 139.97C112.115 140.197 111.685 140.304 111.26 140.304Z" fill="url(#paint6_linear_477_348)"/>
<path d="M137.785 113.823C137.36 113.823 136.93 113.716 136.538 113.489L125.712 107.251C124.515 106.563 124.105 105.036 124.797 103.843C125.487 102.648 127.02 102.241 128.212 102.93L139.038 109.167C140.235 109.856 140.645 111.383 139.953 112.575C139.488 113.376 138.65 113.823 137.785 113.823Z" fill="url(#paint7_linear_477_348)"/>
<path d="M147.5 77.6457H135C133.617 77.6457 132.5 76.5304 132.5 75.1507C132.5 73.771 133.617 72.6558 135 72.6558H147.5C148.882 72.6558 150 73.771 150 75.1507C150 76.5304 148.882 77.6457 147.5 77.6457Z" fill="url(#paint8_linear_477_348)"/>
<path d="M126.963 47.7061C126.098 47.7061 125.258 47.2595 124.796 46.4586C124.106 45.2635 124.516 43.7391 125.711 43.0505L136.536 36.8131C137.728 36.122 139.261 36.5312 139.951 37.7262C140.641 38.9213 140.231 40.4457 139.036 41.1344L128.211 47.3718C127.818 47.5988 127.388 47.7061 126.963 47.7061Z" fill="url(#paint9_linear_477_348)"/>
<path d="M104.995 25.7904C104.57 25.7904 104.14 25.6832 103.748 25.4561C102.55 24.7675 102.14 23.2406 102.833 22.048L109.083 11.2448C109.773 10.0497 111.303 9.64053 112.498 10.3316C113.693 11.0227 114.105 12.5472 113.413 13.7398L107.163 24.543C106.698 25.3413 105.86 25.7904 104.995 25.7904Z" fill="url(#paint10_linear_477_348)"/>
<path d="M78.4081 18.0067C78.0512 18.2371 77.6318 18.3801 77.1786 18.4022C75.7984 18.4732 74.6231 17.4134 74.5555 16.0367L73.9235 3.57806C73.8524 2.2006 74.9144 1.02769 76.2939 0.960197C77.6734 0.892705 78.8494 1.94906 78.917 3.32577L79.549 15.7844C79.5931 16.7068 79.1343 17.5378 78.4081 18.0067Z" fill="url(#paint11_linear_477_348)"/>
<path d="M45.0041 25.7908C44.1391 25.7908 43.2991 25.3442 42.8366 24.5433L36.5865 13.7401C35.8965 12.545 36.3065 11.0206 37.5015 10.332C38.694 9.64338 40.2266 10.0501 40.9166 11.2451L47.1666 22.0483C47.8566 23.2434 47.4466 24.7679 46.2516 25.4565C45.8591 25.6835 45.4291 25.7908 45.0041 25.7908Z" fill="url(#paint12_linear_477_348)"/>
<path d="M23.0412 47.706C22.6161 47.706 22.1861 47.5987 21.7936 47.3717L10.9685 41.1342C9.77101 40.4456 9.361 38.9187 10.0535 37.7261C10.7435 36.531 12.2735 36.1194 13.4685 36.813L24.2937 43.0504C25.4912 43.739 25.9012 45.2659 25.2087 46.4585C24.7437 47.2594 23.9062 47.706 23.0412 47.706Z" fill="url(#paint13_linear_477_348)"/>
<defs>
<linearGradient id="paint0_linear_477_348" x1="0.380989" y1="25.684" x2="109.931" y2="123.481" gradientUnits="userSpaceOnUse">
<stop stop-color="#EDDD53"/>
<stop offset="0.490385" stop-color="#57C785"/>
<stop offset="0.980769" stop-color="#00512E"/>
</linearGradient>
<linearGradient id="paint1_linear_477_348" x1="72.66" y1="66.0031" x2="86.7788" y2="79.9613" gradientUnits="userSpaceOnUse">
<stop stop-color="#F9F9F9"/>
<stop offset="1" stop-color="#E6E6E6"/>
</linearGradient>
<linearGradient id="paint2_linear_477_348" x1="17.5002" y1="75.1508" x2="0" y2="75.1508" gradientUnits="userSpaceOnUse">
<stop stop-color="#3DA36B"/>
<stop offset="1" stop-color="#AEE090"/>
</linearGradient>
<linearGradient id="paint3_linear_477_348" x1="17.6294" y1="102.596" x2="17.6294" y2="113.823" gradientUnits="userSpaceOnUse">
<stop stop-color="#3DA36B"/>
<stop offset="1" stop-color="#AEE090"/>
</linearGradient>
<linearGradient id="paint4_linear_477_348" x1="41.8704" y1="124.509" x2="41.8704" y2="140.304" gradientUnits="userSpaceOnUse">
<stop stop-color="#3DA36B"/>
<stop offset="1" stop-color="#AEE090"/>
</linearGradient>
<linearGradient id="paint5_linear_477_348" x1="74.9993" y1="132.535" x2="74.9993" y2="150" gradientUnits="userSpaceOnUse">
<stop stop-color="#3DA36B"/>
<stop offset="1" stop-color="#AEE090"/>
</linearGradient>
<linearGradient id="paint6_linear_477_348" x1="108.132" y1="124.51" x2="108.132" y2="140.304" gradientUnits="userSpaceOnUse">
<stop stop-color="#3DA36B"/>
<stop offset="1" stop-color="#AEE090"/>
</linearGradient>
<linearGradient id="paint7_linear_477_348" x1="132.375" y1="102.595" x2="132.375" y2="113.823" gradientUnits="userSpaceOnUse">
<stop stop-color="#3DA36B"/>
<stop offset="1" stop-color="#AEE090"/>
</linearGradient>
<linearGradient id="paint8_linear_477_348" x1="150" y1="75.1507" x2="132.5" y2="75.1507" gradientUnits="userSpaceOnUse">
<stop stop-color="#AEE090"/>
<stop offset="1" stop-color="#3DA36B"/>
</linearGradient>
<linearGradient id="paint9_linear_477_348" x1="132.373" y1="36.4771" x2="124.091" y2="47.5313" gradientUnits="userSpaceOnUse">
<stop stop-color="#AEE090"/>
<stop offset="1" stop-color="#3DA36B"/>
</linearGradient>
<linearGradient id="paint10_linear_477_348" x1="108.122" y1="9.99561" x2="108.122" y2="25.7904" gradientUnits="userSpaceOnUse">
<stop stop-color="#AEE090"/>
<stop offset="1" stop-color="#3DA36B"/>
</linearGradient>
<linearGradient id="paint11_linear_477_348" x1="72.4373" y1="3.04973" x2="79.3493" y2="19.404" gradientUnits="userSpaceOnUse">
<stop stop-color="#AEE090"/>
<stop offset="0.906926" stop-color="#3DA36B"/>
</linearGradient>
<linearGradient id="paint12_linear_477_348" x1="45.8505" y1="22.7881" x2="41.4924" y2="13.5691" gradientUnits="userSpaceOnUse">
<stop stop-color="#3DA36B"/>
<stop offset="1" stop-color="#AEE090"/>
</linearGradient>
<linearGradient id="paint13_linear_477_348" x1="25.9315" y1="47.5154" x2="9.72345" y2="42.0711" gradientUnits="userSpaceOnUse">
<stop stop-color="#3DA36B"/>
<stop offset="1" stop-color="#AEE090"/>
</linearGradient>
</defs>
</svg>
