<svg width="16" height="16" viewBox="0 0 16 16" fill="none" xmlns="http://www.w3.org/2000/svg">
<g clip-path="url(#clip0_275_1323)">
<path d="M13.7737 7.58289L9.75635 6.24377L8.41711 2.22632C8.35339 2.03491 8.17432 1.90588 7.97253 1.90588C7.77087 1.90588 7.5918 2.03491 7.52795 2.22632L6.18884 6.24377L2.17139 7.58289C1.97998 7.64661 1.85095 7.82581 1.85095 8.02747C1.85095 8.22913 1.97998 8.4082 2.17139 8.47205L6.18884 9.81116L7.52795 13.8286C7.5918 14.02 7.77087 14.149 7.97253 14.149C8.17419 14.149 8.35339 14.02 8.41711 13.8286L9.75623 9.81116L13.7737 8.47205C13.9651 8.4082 14.0941 8.22913 14.0941 8.02747C14.0941 7.82581 13.9651 7.64661 13.7737 7.58289ZM9.23755 8.99609C9.09766 9.04272 8.98779 9.15259 8.94116 9.29248L7.97253 12.1985L7.00391 9.29248C6.95728 9.15259 6.84753 9.04272 6.70752 8.99609L3.80164 8.02747L6.70752 7.05884C6.84753 7.01221 6.95728 6.90247 7.00391 6.76245L7.97253 3.85657L8.94116 6.76245C8.98779 6.90247 9.09766 7.01221 9.23755 7.05884L12.1434 8.02747L9.23755 8.99609Z" fill="#00512E"/>
<path d="M15.741 1.92407L14.631 1.36914L14.0759 0.259033C13.9965 0.100342 13.8342 0 13.6567 0C13.4792 0 13.3169 0.100342 13.2375 0.259033L12.6825 1.36914L11.5725 1.92407C11.4138 2.00354 11.3135 2.16577 11.3135 2.34326C11.3135 2.52087 11.4138 2.68311 11.5725 2.76245L12.6825 3.3175L13.2375 4.42749C13.3169 4.5863 13.4792 4.68665 13.6567 4.68665C13.8342 4.68665 13.9965 4.5863 14.0759 4.42749L14.631 3.3175L15.741 2.76245C15.8997 2.68311 16 2.52087 16 2.34326C16 2.16577 15.8997 2.00354 15.741 1.92407ZM14.072 2.54895C13.9813 2.59436 13.9078 2.66785 13.8624 2.75854L13.6567 3.16992L13.451 2.75854C13.4056 2.66785 13.3322 2.59436 13.2415 2.54895L12.8301 2.34326L13.2415 2.13757C13.3322 2.09216 13.4056 2.01868 13.451 1.92798L13.6567 1.5166L13.8624 1.92798C13.9078 2.01868 13.9813 2.09216 14.072 2.13757L14.4834 2.34326L14.072 2.54895Z" fill="#00512E"/>
<path d="M4.42749 13.2343L3.31738 12.6792L2.76245 11.5692C2.68298 11.4104 2.52075 11.3102 2.34326 11.3102C2.16565 11.3102 2.00342 11.4104 1.92407 11.5692L1.36902 12.6792L0.259033 13.2343C0.100342 13.3136 0 13.476 0 13.6534C0 13.8309 0.100342 13.9932 0.259033 14.0726L1.36914 14.6277L1.92407 15.7377C2.00354 15.8965 2.16577 15.9967 2.34326 15.9967C2.52087 15.9967 2.68311 15.8965 2.76245 15.7377L3.3175 14.6277L4.42749 14.0726C4.5863 13.9933 4.68665 13.8309 4.68665 13.6534C4.68665 13.476 4.58618 13.3136 4.42749 13.2343ZM2.75854 13.8591C2.66785 13.9045 2.59436 13.978 2.54895 14.0687L2.34326 14.4801L2.13757 14.0687C2.09216 13.978 2.01868 13.9045 1.92798 13.8591L1.5166 13.6534L1.92798 13.4478C2.01868 13.4023 2.09216 13.3289 2.13757 13.2382L2.34326 12.8267L2.54895 13.2382C2.59436 13.3289 2.66785 13.4023 2.75854 13.4478L3.16992 13.6534L2.75854 13.8591Z" fill="#00512E"/>
<path d="M13.6222 11.308H13.1536V10.8394C13.1536 10.5806 12.9437 10.3707 12.6848 10.3707C12.426 10.3707 12.2162 10.5806 12.2162 10.8394V11.308H11.7476C11.4888 11.308 11.2789 11.5178 11.2789 11.7767C11.2789 12.0355 11.4888 12.2454 11.7476 12.2454H12.2162V12.714C12.2162 12.9728 12.426 13.1826 12.6848 13.1826C12.9437 13.1826 13.1536 12.9728 13.1536 12.714V12.2454H13.6222C13.881 12.2454 14.0908 12.0355 14.0908 11.7767C14.0908 11.5178 13.881 11.308 13.6222 11.308Z" fill="#00512E"/>
<path d="M2.37451 3.80957H2.84314V4.2782C2.84314 4.53711 3.05298 4.74695 3.31177 4.74695C3.57068 4.74695 3.78052 4.53711 3.78052 4.2782V3.80957H4.24915C4.50793 3.80957 4.71777 3.59973 4.71777 3.34094C4.71777 3.08215 4.50793 2.87231 4.24915 2.87231H3.78052V2.40369C3.78052 2.14478 3.57068 1.93494 3.31177 1.93494C3.05298 1.93494 2.84314 2.14478 2.84314 2.40369V2.87231H2.37451C2.11572 2.87231 1.90588 3.08215 1.90588 3.34094C1.90588 3.59973 2.11572 3.80957 2.37451 3.80957Z" fill="#00512E"/>
</g>
<defs>
<clipPath id="clip0_275_1323">
<rect width="16" height="16" fill="white"/>
</clipPath>
</defs>
</svg>
