<svg width="12" height="12" viewBox="0 0 12 12" fill="none" xmlns="http://www.w3.org/2000/svg">
<g clip-path="url(#clip0_132_3745)">
<path d="M11.7655 3.16391L6.11938 1.16855C6.04355 1.14173 5.96083 1.14173 5.88501 1.16855L0.238869 3.16391C0.0983328 3.21357 0.00436097 3.34644 0.00436097 3.49551C0.00436097 3.64455 0.0983328 3.77742 0.238869 3.8271L0.703382 3.99123V8.28582C0.294037 8.431 0 8.82191 0 9.2804C0 9.73889 0.294037 10.1298 0.703382 10.275V11.4994C0.703382 11.6936 0.860846 11.851 1.05507 11.851C1.2493 11.851 1.40676 11.6936 1.40676 11.4994V10.275C1.81611 10.1298 2.11015 9.73889 2.11015 9.2804C2.11015 8.82191 1.81611 8.431 1.40676 8.28582V4.2398L2.14527 4.5008V7.31996C2.14527 7.45489 2.22248 7.57793 2.34397 7.63662C3.47635 8.18366 4.74136 8.47282 6.00217 8.47282C7.263 8.47282 8.52799 8.18366 9.66036 7.63662C9.78186 7.57793 9.85907 7.45489 9.85907 7.31996V4.5008L11.7655 3.82708C11.906 3.77742 12 3.64455 12 3.49548C12 3.34644 11.9061 3.21357 11.7655 3.16391ZM1.05507 9.63207C0.861151 9.63207 0.703382 9.4743 0.703382 9.28038C0.703382 9.08645 0.861151 8.92869 1.05507 8.92869C1.249 8.92869 1.40676 9.08645 1.40676 9.28038C1.40676 9.47432 1.249 9.63207 1.05507 9.63207ZM9.15571 7.09572C8.16995 7.53704 7.08449 7.76944 6.00219 7.76944C4.9199 7.76944 3.83444 7.53704 2.84867 7.09572V4.74935L5.88501 5.82241C5.96083 5.84921 6.04355 5.84921 6.11938 5.82241L9.15571 4.74935V7.09572ZM6.00219 5.11781L1.41155 3.49548L6.00219 1.87316L10.5928 3.49548L6.00219 5.11781Z" fill="#A96908"/>
</g>
<defs>
<clipPath id="clip0_132_3745">
<rect width="12" height="12" fill="white"/>
</clipPath>
</defs>
</svg>
