<svg width="24" height="24" viewBox="0 0 24 24" fill="none" xmlns="http://www.w3.org/2000/svg">
<g clip-path="url(#clip0_477_339)">
<path d="M23.715 22.339L13.376 12L23.7149 1.66101C24.0949 1.28109 24.0949 0.665013 23.7149 0.285045C23.335 -0.0949233 22.7189 -0.0949233 22.339 0.285045L12 10.624L1.66094 0.285045C1.28102 -0.0949233 0.664944 -0.0949233 0.284976 0.285045C-0.094992 0.664966 -0.094992 1.28104 0.284976 1.66101L10.624 12L0.284976 22.339C-0.094992 22.719 -0.094992 23.335 0.284976 23.715C0.664897 24.0949 1.28097 24.095 1.66094 23.715L12 13.3759L22.3391 23.715C22.719 24.0949 23.3351 24.095 23.715 23.715C24.095 23.335 24.095 22.719 23.715 22.339Z" fill="#666B6B"/>
</g>
<defs>
<clipPath id="clip0_477_339">
<rect width="24" height="24" fill="white"/>
</clipPath>
</defs>
</svg>
