<svg width="24" height="24" viewBox="0 0 24 24" fill="none" xmlns="http://www.w3.org/2000/svg">
<path d="M20.6605 11.3767L14.6345 9.36759L12.6257 3.34017C12.5301 3.053 12.2615 2.85942 11.9588 2.85942C11.6563 2.85942 11.3877 3.053 11.2919 3.34017L9.28326 9.36759L3.25708 11.3767C2.96997 11.4723 2.77643 11.7411 2.77643 12.0437C2.77643 12.3462 2.96997 12.6149 3.25708 12.7107L9.28326 14.7198L11.2919 20.7472C11.3877 21.0344 11.6563 21.2279 11.9588 21.2279C12.2613 21.2279 12.5301 21.0344 12.6257 20.7472L14.6343 14.7198L20.6605 12.7107C20.9476 12.6149 21.1412 12.3462 21.1412 12.0437C21.1412 11.7411 20.9476 11.4723 20.6605 11.3767ZM13.8563 13.4969C13.6465 13.5669 13.4817 13.7317 13.4117 13.9416L11.9588 18.3015L10.5059 13.9416C10.4359 13.7317 10.2713 13.5669 10.0613 13.4969L5.70245 12.0437L10.0613 10.5904C10.2713 10.5205 10.4359 10.3558 10.5059 10.1458L11.9588 5.78604L13.4117 10.1458C13.4817 10.3558 13.6465 10.5205 13.8563 10.5904L18.2151 12.0437L13.8563 13.4969Z" fill="#7A7A01"/>
<path d="M23.6115 2.8867L21.9465 2.05413L21.1139 0.38863C20.9947 0.150544 20.7513 0 20.4851 0C20.2189 0 19.9753 0.150544 19.8563 0.38863L19.0237 2.05413L17.3588 2.8867C17.1207 3.00593 16.9702 3.24933 16.9702 3.51562C16.9702 3.78209 17.1207 4.02549 17.3588 4.14453L19.0237 4.97728L19.8563 6.6426C19.9753 6.88087 20.2189 7.03142 20.4851 7.03142C20.7513 7.03142 20.9947 6.88087 21.1139 6.6426L21.9465 4.97728L23.6115 4.14453C23.8495 4.02549 24 3.78209 24 3.51562C24 3.24933 23.8495 3.00593 23.6115 2.8867ZM21.108 3.82421C20.972 3.89234 20.8618 4.00259 20.7936 4.13867L20.4851 4.75586L20.1766 4.13867C20.1085 4.00259 19.9982 3.89234 19.8622 3.82421L19.2451 3.51562L19.8622 3.20702C19.9982 3.13889 20.1085 3.02864 20.1766 2.89256L20.4851 2.27537L20.7936 2.89256C20.8618 3.02864 20.972 3.13889 21.108 3.20702L21.7251 3.51562L21.108 3.82421Z" fill="#7A7A01"/>
<path d="M6.64124 19.8555L4.97607 19.0227L4.14368 17.3574C4.02448 17.1191 3.78113 16.9688 3.51489 16.9688C3.24847 16.9688 3.00513 17.1191 2.88611 17.3574L2.05353 19.0227L0.38855 19.8555C0.150513 19.9745 0 20.2181 0 20.4844C0 20.7507 0.150513 20.9941 0.38855 21.1133L2.05371 21.9461L2.88611 23.6114C3.00531 23.8496 3.24866 24 3.51489 24C3.78131 24 4.02466 23.8496 4.14368 23.6114L4.97626 21.9461L6.64124 21.1133C6.87946 20.9943 7.02997 20.7507 7.02997 20.4844C7.02997 20.2181 6.87927 19.9745 6.64124 19.8555ZM4.13782 20.793C4.00177 20.8611 3.89154 20.9714 3.82343 21.1074L3.51489 21.7246L3.20636 21.1074C3.13824 20.9714 3.02802 20.8611 2.89197 20.793L2.2749 20.4844L2.89197 20.1758C3.02802 20.1077 3.13824 19.9974 3.20636 19.8613L3.51489 19.244L3.82343 19.8613C3.89154 19.9974 4.00177 20.1077 4.13782 20.1758L4.75488 20.4844L4.13782 20.793Z" fill="#7A7A01"/>
<path d="M20.4333 16.9655H19.7303V16.2624C19.7303 15.8741 19.4156 15.5593 19.0272 15.5593C18.639 15.5593 18.3243 15.8741 18.3243 16.2624V16.9655H17.6213C17.2332 16.9655 16.9184 17.2803 16.9184 17.6687C16.9184 18.057 17.2332 18.3718 17.6213 18.3718H18.3243V19.0749C18.3243 19.4632 18.639 19.778 19.0272 19.778C19.4156 19.778 19.7303 19.4632 19.7303 19.0749V18.3718H20.4333C20.8215 18.3718 21.1362 18.057 21.1362 17.6687C21.1362 17.2803 20.8215 16.9655 20.4333 16.9655Z" fill="#7A7A01"/>
<path d="M3.56177 5.71553H4.26471V6.41862C4.26471 6.80707 4.57947 7.12189 4.96765 7.12189C5.35602 7.12189 5.67078 6.80707 5.67078 6.41862V5.71553H6.37372C6.7619 5.71553 7.07666 5.40071 7.07666 5.01245C7.07666 4.62418 6.7619 4.30936 6.37372 4.30936H5.67078V3.60627C5.67078 3.21783 5.35602 2.903 4.96765 2.903C4.57947 2.903 4.26471 3.21783 4.26471 3.60627V4.30936H3.56177C3.17358 4.30936 2.85883 4.62418 2.85883 5.01245C2.85883 5.40071 3.17358 5.71553 3.56177 5.71553Z" fill="#7A7A01"/>
</svg>
